<?xml version="1.0" encoding="utf-8"?>
<!-- Generator: Adobe Illustrator 21.0.0, SVG Export Plug-In . SVG Version: 6.00 Build 0)  -->
<svg version="1.1" id="Layer_1" xmlns="http://www.w3.org/2000/svg" xmlns:xlink="http://www.w3.org/1999/xlink" x="0px" y="0px"
	 width="128px" height="128px" viewBox="0 0 128 128" style="enable-background:new 0 0 128 128;" xml:space="preserve">
<style type="text/css">
	.st0{fill:#003876;}
	.st1{fill:#FFFFFF;}
</style>
<circle class="st0" cx="64" cy="64" r="62"/>
<g>
	<path class="st1" d="M64.8,22.1c-3.3,0-5.9,2.7-5.9,5.9h11.9C70.8,24.7,68.1,22.1,64.8,22.1z"/>
	<rect x="64.7" y="17.9" class="st1" width="0.2" height="4.4"/>
	<rect x="63.2" y="20.8" class="st1" width="3.1" height="0.2"/>
	<path class="st1" d="M66.4,21h-0.2v-0.8c0-0.1,0-0.1,0.1-0.1h0.1c0.1,0,0.1,0,0.1,0.1v0.6C66.5,21,66.5,21,66.4,21z"/>
	<path class="st1" d="M63.4,21h-0.3c0,0-0.1,0-0.1-0.1v-0.7c0,0,0-0.1,0.1-0.1h0.2c0,0,0.1,0,0.1,0.1V21z"/>
	<path class="st1" d="M64.9,18.4h-0.2c0,0-0.1,0-0.1-0.1v-0.6c0,0,0-0.1,0.1-0.1h0.2c0,0,0.1,0,0.1,0.1L64.9,18.4
		C65,18.4,65,18.4,64.9,18.4z"/>
	<path class="st1" d="M72.5,30H57c-0.1,0-0.2-0.1-0.2-0.2v-0.6c0-0.1,0.1-0.2,0.2-0.2h15.5c0.1,0,0.2,0.1,0.2,0.2v0.6
		C72.7,29.9,72.6,30,72.5,30z"/>
	<path class="st1" d="M72.5,41.7H57c-0.1,0-0.2-0.1-0.2-0.2v-0.6c0-0.1,0.1-0.2,0.2-0.2h15.5c0.1,0,0.2,0.1,0.2,0.2v0.6
		C72.7,41.6,72.6,41.7,72.5,41.7z"/>
	<path class="st1" d="M61.6,39.7h-1.5c-0.3,0-0.5-0.2-0.5-0.5v-8c0-0.3,0.2-0.5,0.5-0.5h1.5c0.3,0,0.5,0.2,0.5,0.5v8
		C62.1,39.5,61.9,39.7,61.6,39.7z"/>
	<path class="st1" d="M65.5,39.7H64c-0.3,0-0.5-0.2-0.5-0.5v-8c0-0.3,0.2-0.5,0.5-0.5h1.5c0.3,0,0.5,0.2,0.5,0.5v8
		C66,39.5,65.8,39.7,65.5,39.7z"/>
	<path class="st1" d="M69.4,39.7H68c-0.3,0-0.5-0.2-0.5-0.5v-8c0-0.3,0.2-0.5,0.5-0.5h1.5c0.3,0,0.5,0.2,0.5,0.5v8
		C69.9,39.5,69.7,39.7,69.4,39.7z"/>
	<path class="st1" d="M53.5,42.5c-15.3,5.1-26.6,20.1-27.7,38.3h5.9C32.5,63.1,41.4,48.3,53.5,42.5z"/>
	<path class="st1" d="M76.1,42.5c12.1,5.8,21,20.6,21.8,38.3h5.9C102.7,62.6,91.4,47.5,76.1,42.5z"/>
	<path class="st1" d="M57.9,44.5C46.1,48.6,37.1,63,35.8,80.8h9.7C46.1,64.1,51,50.2,57.9,44.5z"/>
	<path class="st1" d="M71.7,44.5c6.9,5.7,11.9,19.7,12.4,36.3h9.8C92.5,63,83.5,48.6,71.7,44.5z"/>
	<path class="st1" d="M49.8,80.8h13V45.1C55.5,50.8,50.3,64.5,49.8,80.8z"/>
	<path class="st1" d="M80,80.8c-0.5-16.4-5.8-30.2-13.2-35.9v35.9H80z"/>
	<g>
		<path class="st1" d="M64.8,85.1H23.6c-0.1,0-0.2-0.1-0.2-0.2v-0.7c0-0.1,0.1-0.2,0.2-0.2h41.2V85.1z"/>
		<path class="st1" d="M64.8,94.7H23.6c-0.1,0-0.2-0.1-0.2-0.2v-2.4c0-0.1,0.1-0.2,0.2-0.2h41.2V94.7z"/>
		<path class="st1" d="M49.5,90.9h-3.6c-0.2,0-0.4-0.2-0.4-0.4v-3.6c0-0.2,0.2-0.4,0.4-0.4h3.6c0.2,0,0.4,0.2,0.4,0.4v3.6
			C49.9,90.7,49.7,90.9,49.5,90.9z"/>
		<path class="st1" d="M66.6,90.9H63c-0.2,0-0.4-0.2-0.4-0.4v-3.6c0-0.2,0.2-0.4,0.4-0.4h3.6c0.2,0,0.4,0.2,0.4,0.4v3.6
			C67,90.7,66.8,90.9,66.6,90.9z"/>
		<path class="st1" d="M35.4,90.9h-3.6c-0.2,0-0.4-0.2-0.4-0.4v-3.6c0-0.2,0.2-0.4,0.4-0.4h3.6c0.2,0,0.4,0.2,0.4,0.4v3.6
			C35.8,90.7,35.6,90.9,35.4,90.9z"/>
		<path class="st1" d="M49.9,82.6c0-0.2-0.2-0.4-0.4-0.4h-3.6c-0.2,0-0.4,0.2-0.4,0.4v1.9h4.4V82.6L49.9,82.6z"/>
		<path class="st1" d="M67,82.6c0-0.2-0.2-0.4-0.4-0.4H63c-0.2,0-0.4,0.2-0.4,0.4v1.9H67V82.6z"/>
		<path class="st1" d="M35.8,82.6c0-0.2-0.2-0.4-0.4-0.4h-3.6c-0.2,0-0.4,0.2-0.4,0.4v1.9h4.4V82.6L35.8,82.6z"/>
	</g>
	<g>
		<path class="st1" d="M64.8,85.1H106c0.1,0,0.2-0.1,0.2-0.2v-0.7c0-0.1-0.1-0.2-0.2-0.2H64.8V85.1z"/>
		<path class="st1" d="M64.8,94.7H106c0.1,0,0.2-0.1,0.2-0.2v-2.4c0-0.1-0.1-0.2-0.2-0.2H64.8V94.7z"/>
		<path class="st1" d="M80.1,90.9h3.6c0.2,0,0.4-0.2,0.4-0.4v-3.6c0-0.2-0.2-0.4-0.4-0.4h-3.6c-0.2,0-0.4,0.2-0.4,0.4v3.6
			C79.7,90.7,79.9,90.9,80.1,90.9z"/>
		<path class="st1" d="M63,90.9h3.6c0.2,0,0.4-0.2,0.4-0.4v-3.6c0-0.2-0.2-0.4-0.4-0.4H63c-0.2,0-0.4,0.2-0.4,0.4v3.6
			C62.6,90.7,62.8,90.9,63,90.9z"/>
		<path class="st1" d="M94.2,90.9h3.6c0.2,0,0.4-0.2,0.4-0.4v-3.6c0-0.2-0.2-0.4-0.4-0.4h-3.6c-0.2,0-0.4,0.2-0.4,0.4v3.6
			C93.8,90.7,94,90.9,94.2,90.9z"/>
		<path class="st1" d="M79.7,82.6c0-0.2,0.2-0.4,0.4-0.4h3.6c0.2,0,0.4,0.2,0.4,0.4v1.9h-4.4V82.6z"/>
		<path class="st1" d="M62.6,82.6c0-0.2,0.2-0.4,0.4-0.4h3.6c0.2,0,0.4,0.2,0.4,0.4v1.9h-4.4V82.6L62.6,82.6z"/>
		<path class="st1" d="M93.8,82.6c0-0.2,0.2-0.4,0.4-0.4h3.6c0.2,0,0.4,0.2,0.4,0.4v1.9h-4.4V82.6z"/>
	</g>
</g>
</svg>
