<svg xmlns="http://www.w3.org/2000/svg" viewBox="0 0 1578.05 814.14"><defs><style>.cls-1{fill:#cbced3;}.cls-2{fill:#d7dbde;}.cls-3{fill:#a2a9b3;}.cls-4{fill:#c6c9ce;}.cls-5{fill:#6e7884;}.cls-6{fill:#727c86;}.cls-7{fill:#cdced3;}.cls-8{fill:#69737d;}.cls-9{fill:#454a50;}.cls-10{fill:#5c656e;}.cls-11{fill:#e2e2e2;}.cls-12{fill:#003876;}.cls-13{fill:#ee2a24;}</style></defs><title>Asset 1</title><g id="Layer_2" data-name="Layer 2"><g id="Layer_1-2" data-name="Layer 1"><rect class="cls-1" x="1064.29" y="405.05" width="48" height="151.07" transform="translate(633.45 -618.71) rotate(43.7)"/><rect class="cls-2" x="1042.22" y="376.96" width="33.33" height="151.07" transform="translate(605.9 -606.18) rotate(43.7)"/><rect class="cls-3" x="1101.02" y="433.15" width="33.33" height="151.07" transform="translate(661.01 -631.24) rotate(43.7)"/><rect class="cls-4" x="1020.99" y="355.08" width="30" height="151.07" transform="translate(584.45 -596.42) rotate(43.7)"/><rect class="cls-5" x="1125.58" y="455.02" width="30" height="151.07" transform="translate(682.46 -641) rotate(43.7)"/><rect class="cls-1" x="1000.21" y="542.2" width="31.51" height="28.14" transform="translate(665.71 -547.79) rotate(43.7)"/><rect class="cls-2" x="985.73" y="523.76" width="21.88" height="28.14" transform="translate(647.62 -539.56) rotate(43.7)"/><rect class="cls-3" x="1024.33" y="560.64" width="21.88" height="28.14" transform="translate(683.8 -556.02) rotate(43.7)"/><rect class="cls-4" x="971.79" y="509.39" width="19.69" height="28.14" transform="translate(633.54 -533.16) rotate(43.7)"/><rect class="cls-5" x="1040.45" y="575" width="19.69" height="28.14" transform="translate(697.88 -562.42) rotate(43.7)"/><rect class="cls-1" x="1217.42" y="259.12" width="48" height="122.4" transform="translate(565.15 -768.9) rotate(43.7)"/><rect class="cls-2" x="1195.35" y="231.02" width="33.33" height="122.4" transform="translate(537.6 -756.37) rotate(43.7)"/><rect class="cls-3" x="1254.16" y="287.21" width="33.33" height="122.4" transform="translate(592.71 -781.43) rotate(43.7)"/><rect class="cls-4" x="1174.12" y="209.15" width="30" height="122.4" transform="translate(516.15 -746.61) rotate(43.7)"/><rect class="cls-5" x="1278.72" y="309.09" width="30" height="122.4" transform="translate(614.16 -791.18) rotate(43.7)"/><polygon class="cls-6" points="1339.35 276.45 1280.79 220.5 1285.43 206.95 1352.67 271.2 1339.35 276.45"/><polygon class="cls-2" points="1344.68 263.56 1293.42 214.59 1295.88 195.73 1363.41 260.25 1344.68 263.56"/><polygon class="cls-6" points="1342.69 332.43 1224.72 219.71 1242.37 218.6 1342.99 314.74 1342.69 332.43"/><polygon class="cls-7" points="1341.56 313.95 1243.23 220 1276.81 216.7 1343.33 280.25 1341.56 313.95"/><rect class="cls-8" x="1113.99" y="386.01" width="114.67" height="15.33" transform="translate(596.42 -700.15) rotate(43.7)"/><polygon class="cls-9" points="1136 304.24 1135.17 348.53 1218.08 427.75 1262.28 424.9 1136 304.24"/><polygon class="cls-9" points="972.42 475.43 984.24 506.49 1067.14 585.71 1098.71 596.09 972.42 475.43"/><polygon class="cls-9" points="979.03 540.44 978.51 559.71 1014.24 593.85 1033.46 592.45 979.03 540.44"/><polygon class="cls-2" points="1203.02 486.93 1207.48 438.83 1124.58 359.62 1076.73 366.26 1203.02 486.93"/><rect class="cls-4" x="1096.43" y="377.8" width="168.67" height="12" transform="translate(592.21 -709.41) rotate(43.7)"/><rect class="cls-10" x="974.71" y="574.42" width="31.51" height="17.08" transform="translate(677.08 -522.78) rotate(43.7)"/><path class="cls-3" d="M979.79,670.78l43.88,41.93c6.35-32.51,3.1-64.87-10.12-92.28q-8-9.81-17.07-19.32C1000.21,618.22,994,643,979.79,670.78Z"/><path class="cls-2" d="M972.07,577.77q-9.9-8.59-20.08-16.17c-28-12-60.46-13.73-92.65-5.91l43.88,41.93C930.37,582.15,954.8,574.83,972.07,577.77Z"/><path class="cls-4" d="M919.72,660.73,842.87,540l16.48,15.74c32.19-7.83,64.66-6,92.65,5.91-47.79-35.53-99.07-53.72-140.16-51.3l13.91,13.29,89.19,140.18Z"/><path class="cls-5" d="M1071.18,758.1c.54-41.15-20-91.55-57.63-137.68,13.22,27.42,16.47,59.77,10.12,92.28L1040,728.27,915.81,657,913,661.91l144.09,82.73Z"/><path class="cls-4" d="M916.59,664.37l27-28.22,36.23,34.62c14.23-27.82,20.42-52.56,16.7-69.68q-5.76-6.06-11.92-12t-12.5-11.36c-17.27-2.94-41.7,4.37-68.85,19.85l36.23,34.62-27,28.22a8,8,0,1,0,4.09,3.91Z"/><rect class="cls-3" x="1130.57" y="283.37" width="19.24" height="5.13" transform="translate(513.35 -708.49) rotate(43.7)"/><rect class="cls-3" x="1026.34" y="392.45" width="19.24" height="5.13" transform="translate(559.84 -606.26) rotate(43.7)"/><rect class="cls-3" x="1270.59" y="417.16" width="19.24" height="5.13" transform="translate(644.57 -768.16) rotate(43.7)"/><rect class="cls-3" x="1166.36" y="526.25" width="19.24" height="5.13" transform="translate(691.06 -665.94) rotate(43.7)"/><rect class="cls-11" x="1280.27" y="421.07" width="187.74" height="384.67" transform="translate(-18.66 1183.16) rotate(-46.3)"/><rect class="cls-12" x="1186.33" y="542.22" width="12.07" height="24.14" transform="translate(-32.12 1033.46) rotate(-46.3)"/><rect class="cls-12" x="1196.34" y="531.74" width="12.07" height="24.14" transform="translate(-21.45 1037.45) rotate(-46.3)"/><rect class="cls-12" x="1206.35" y="521.27" width="12.07" height="24.14" transform="translate(-10.79 1041.45) rotate(-46.3)"/><rect class="cls-12" x="1216.36" y="510.8" width="12.07" height="24.14" transform="translate(-0.12 1045.45) rotate(-46.3)"/><rect class="cls-12" x="1226.36" y="500.32" width="12.07" height="24.14" transform="translate(10.54 1049.45) rotate(-46.3)"/><rect class="cls-12" x="1236.37" y="489.85" width="12.07" height="24.14" transform="translate(21.21 1053.44) rotate(-46.3)"/><rect class="cls-12" x="1205.24" y="560.28" width="12.07" height="24.14" transform="translate(-39.34 1052.71) rotate(-46.3)"/><rect class="cls-12" x="1215.24" y="549.8" width="12.07" height="24.14" transform="translate(-28.67 1056.7) rotate(-46.3)"/><rect class="cls-12" x="1225.25" y="539.33" width="12.07" height="24.14" transform="translate(-18 1060.7) rotate(-46.3)"/><rect class="cls-12" x="1235.26" y="528.86" width="12.07" height="24.14" transform="translate(-7.34 1064.7) rotate(-46.3)"/><rect class="cls-12" x="1245.26" y="518.38" width="12.07" height="24.14" transform="translate(3.33 1068.7) rotate(-46.3)"/><rect class="cls-12" x="1255.27" y="507.91" width="12.07" height="24.14" transform="translate(14 1072.69) rotate(-46.3)"/><rect class="cls-12" x="1224.14" y="578.34" width="12.07" height="24.14" transform="translate(-46.55 1071.96) rotate(-46.3)"/><rect class="cls-12" x="1234.14" y="567.86" width="12.07" height="24.14" transform="translate(-35.88 1075.95) rotate(-46.3)"/><rect class="cls-12" x="1244.15" y="557.39" width="12.07" height="24.14" transform="translate(-25.22 1079.95) rotate(-46.3)"/><rect class="cls-12" x="1254.16" y="546.92" width="12.07" height="24.14" transform="translate(-14.55 1083.95) rotate(-46.3)"/><rect class="cls-12" x="1264.17" y="536.44" width="12.07" height="24.14" transform="translate(-3.88 1087.95) rotate(-46.3)"/><rect class="cls-12" x="1274.17" y="525.97" width="12.07" height="24.14" transform="translate(6.78 1091.94) rotate(-46.3)"/><rect class="cls-12" x="1243.04" y="596.4" width="12.07" height="24.14" transform="translate(-53.76 1091.21) rotate(-46.3)"/><rect class="cls-12" x="1253.05" y="585.92" width="12.07" height="24.14" transform="translate(-43.1 1095.2) rotate(-46.3)"/><rect class="cls-12" x="1263.05" y="575.45" width="12.07" height="24.14" transform="translate(-32.43 1099.2) rotate(-46.3)"/><rect class="cls-12" x="1273.06" y="564.98" width="12.07" height="24.14" transform="translate(-21.77 1103.2) rotate(-46.3)"/><rect class="cls-12" x="1283.07" y="554.5" width="12.07" height="24.14" transform="translate(-11.1 1107.19) rotate(-46.3)"/><rect class="cls-12" x="1293.07" y="544.03" width="12.07" height="24.14" transform="translate(-0.43 1111.19) rotate(-46.3)"/><rect class="cls-12" x="1261.94" y="614.46" width="12.07" height="24.14" transform="translate(-60.98 1110.45) rotate(-46.3)"/><rect class="cls-12" x="1271.95" y="603.98" width="12.07" height="24.14" transform="translate(-50.31 1114.45) rotate(-46.3)"/><rect class="cls-12" x="1281.95" y="593.51" width="12.07" height="24.14" transform="translate(-39.65 1118.45) rotate(-46.3)"/><rect class="cls-12" x="1291.96" y="583.04" width="12.07" height="24.14" transform="translate(-28.98 1122.45) rotate(-46.3)"/><rect class="cls-12" x="1301.97" y="572.56" width="12.07" height="24.14" transform="translate(-18.31 1126.44) rotate(-46.3)"/><rect class="cls-12" x="1311.98" y="562.09" width="12.07" height="24.14" transform="translate(-7.65 1130.44) rotate(-46.3)"/><rect class="cls-12" x="1280.84" y="632.52" width="12.07" height="24.14" transform="translate(-68.19 1129.7) rotate(-46.3)"/><rect class="cls-12" x="1290.85" y="622.05" width="12.07" height="24.14" transform="translate(-57.53 1133.7) rotate(-46.3)"/><rect class="cls-12" x="1300.86" y="611.57" width="12.07" height="24.14" transform="translate(-46.86 1137.7) rotate(-46.3)"/><rect class="cls-12" x="1310.86" y="601.1" width="12.07" height="24.14" transform="translate(-36.19 1141.7) rotate(-46.3)"/><rect class="cls-12" x="1320.87" y="590.63" width="12.07" height="24.14" transform="translate(-25.53 1145.69) rotate(-46.3)"/><rect class="cls-12" x="1330.88" y="580.15" width="12.07" height="24.14" transform="translate(-14.86 1149.69) rotate(-46.3)"/><rect class="cls-12" x="1299.74" y="650.58" width="12.07" height="24.14" transform="translate(-75.41 1148.95) rotate(-46.3)"/><rect class="cls-12" x="1309.75" y="640.11" width="12.07" height="24.14" transform="translate(-64.74 1152.95) rotate(-46.3)"/><rect class="cls-12" x="1319.76" y="629.63" width="12.07" height="24.14" transform="translate(-54.07 1156.95) rotate(-46.3)"/><rect class="cls-12" x="1329.76" y="619.16" width="12.07" height="24.14" transform="translate(-43.41 1160.95) rotate(-46.3)"/><rect class="cls-12" x="1339.77" y="608.69" width="12.07" height="24.14" transform="translate(-32.74 1164.94) rotate(-46.3)"/><rect class="cls-12" x="1349.78" y="598.21" width="12.07" height="24.14" transform="translate(-22.08 1168.94) rotate(-46.3)"/><rect class="cls-12" x="1322.74" y="672.55" width="12.07" height="24.14" transform="translate(-84.18 1172.38) rotate(-46.3)"/><rect class="cls-12" x="1332.75" y="662.08" width="12.07" height="24.14" transform="translate(-73.52 1176.37) rotate(-46.3)"/><rect class="cls-12" x="1342.76" y="651.61" width="12.07" height="24.14" transform="translate(-62.85 1180.37) rotate(-46.3)"/><rect class="cls-12" x="1352.76" y="641.13" width="12.07" height="24.14" transform="translate(-52.19 1184.37) rotate(-46.3)"/><rect class="cls-12" x="1362.77" y="630.66" width="12.07" height="24.14" transform="translate(-41.52 1188.37) rotate(-46.3)"/><rect class="cls-12" x="1372.78" y="620.19" width="12.07" height="24.14" transform="translate(-30.85 1192.36) rotate(-46.3)"/><rect class="cls-12" x="1341.64" y="690.61" width="12.07" height="24.14" transform="translate(-91.4 1191.63) rotate(-46.3)"/><rect class="cls-12" x="1351.65" y="680.14" width="12.07" height="24.14" transform="translate(-80.73 1195.62) rotate(-46.3)"/><rect class="cls-12" x="1361.66" y="669.67" width="12.07" height="24.14" transform="translate(-70.07 1199.62) rotate(-46.3)"/><rect class="cls-12" x="1371.66" y="659.2" width="12.07" height="24.14" transform="translate(-59.4 1203.62) rotate(-46.3)"/><rect class="cls-12" x="1381.67" y="648.72" width="12.07" height="24.14" transform="translate(-48.73 1207.62) rotate(-46.3)"/><rect class="cls-12" x="1391.68" y="638.25" width="12.07" height="24.14" transform="translate(-38.07 1211.61) rotate(-46.3)"/><rect class="cls-12" x="1360.54" y="708.68" width="12.07" height="24.14" transform="translate(-98.61 1210.87) rotate(-46.3)"/><rect class="cls-12" x="1370.55" y="698.2" width="12.07" height="24.14" transform="translate(-87.95 1214.87) rotate(-46.3)"/><rect class="cls-12" x="1380.56" y="687.73" width="12.07" height="24.14" transform="translate(-77.28 1218.87) rotate(-46.3)"/><rect class="cls-12" x="1390.57" y="677.26" width="12.07" height="24.14" transform="translate(-66.61 1222.87) rotate(-46.3)"/><rect class="cls-12" x="1400.57" y="666.78" width="12.07" height="24.14" transform="translate(-55.95 1226.86) rotate(-46.3)"/><rect class="cls-12" x="1410.58" y="656.31" width="12.07" height="24.14" transform="translate(-45.28 1230.86) rotate(-46.3)"/><rect class="cls-12" x="1379.45" y="726.74" width="12.07" height="24.14" transform="translate(-105.83 1230.12) rotate(-46.3)"/><rect class="cls-12" x="1389.45" y="716.26" width="12.07" height="24.14" transform="translate(-95.16 1234.12) rotate(-46.3)"/><rect class="cls-12" x="1399.46" y="705.79" width="12.07" height="24.14" transform="translate(-84.5 1238.12) rotate(-46.3)"/><rect class="cls-12" x="1409.47" y="695.32" width="12.07" height="24.14" transform="translate(-73.83 1242.12) rotate(-46.3)"/><rect class="cls-12" x="1419.47" y="684.84" width="12.07" height="24.14" transform="translate(-63.16 1246.11) rotate(-46.3)"/><rect class="cls-12" x="1429.48" y="674.37" width="12.07" height="24.14" transform="translate(-52.5 1250.11) rotate(-46.3)"/><rect class="cls-12" x="1398.35" y="744.8" width="12.07" height="24.14" transform="translate(-113.04 1249.37) rotate(-46.3)"/><rect class="cls-12" x="1408.35" y="734.32" width="12.07" height="24.14" transform="translate(-102.38 1253.37) rotate(-46.3)"/><rect class="cls-12" x="1418.36" y="723.85" width="12.07" height="24.14" transform="translate(-91.71 1257.37) rotate(-46.3)"/><rect class="cls-12" x="1428.37" y="713.38" width="12.07" height="24.14" transform="translate(-81.04 1261.37) rotate(-46.3)"/><rect class="cls-12" x="1438.38" y="702.9" width="12.07" height="24.14" transform="translate(-70.38 1265.36) rotate(-46.3)"/><rect class="cls-12" x="1448.38" y="692.43" width="12.07" height="24.14" transform="translate(-59.71 1269.36) rotate(-46.3)"/><rect class="cls-12" x="1417.25" y="762.86" width="12.07" height="24.14" transform="translate(-120.26 1268.62) rotate(-46.3)"/><rect class="cls-12" x="1427.26" y="752.38" width="12.07" height="24.14" transform="translate(-109.59 1272.62) rotate(-46.3)"/><rect class="cls-12" x="1437.26" y="741.91" width="12.07" height="24.14" transform="translate(-98.92 1276.62) rotate(-46.3)"/><rect class="cls-12" x="1447.27" y="731.44" width="12.07" height="24.14" transform="translate(-88.26 1280.62) rotate(-46.3)"/><rect class="cls-12" x="1457.28" y="720.96" width="12.07" height="24.14" transform="translate(-77.59 1284.61) rotate(-46.3)"/><rect class="cls-12" x="1467.29" y="710.49" width="12.07" height="24.14" transform="translate(-66.93 1288.61) rotate(-46.3)"/><rect class="cls-12" x="1436.15" y="780.92" width="12.07" height="24.14" transform="translate(-127.47 1287.87) rotate(-46.3)"/><rect class="cls-12" x="1446.16" y="770.44" width="12.07" height="24.14" transform="translate(-116.8 1291.87) rotate(-46.3)"/><rect class="cls-12" x="1456.16" y="759.97" width="12.07" height="24.14" transform="translate(-106.14 1295.87) rotate(-46.3)"/><rect class="cls-12" x="1466.17" y="749.5" width="12.07" height="24.14" transform="translate(-95.47 1299.87) rotate(-46.3)"/><rect class="cls-12" x="1476.18" y="739.02" width="12.07" height="24.14" transform="translate(-84.81 1303.86) rotate(-46.3)"/><rect class="cls-12" x="1486.19" y="728.55" width="12.07" height="24.14" transform="translate(-74.14 1307.86) rotate(-46.3)"/><rect class="cls-12" x="1250.16" y="475.42" width="12.07" height="24.14" transform="translate(35.9 1058.95) rotate(-46.3)"/><rect class="cls-12" x="1260.16" y="464.95" width="12.07" height="24.14" transform="translate(46.57 1062.95) rotate(-46.3)"/><rect class="cls-12" x="1270.17" y="454.47" width="12.07" height="24.14" transform="translate(57.24 1066.95) rotate(-46.3)"/><rect class="cls-12" x="1280.18" y="444" width="12.07" height="24.14" transform="translate(67.9 1070.94) rotate(-46.3)"/><rect class="cls-12" x="1290.19" y="433.53" width="12.07" height="24.14" transform="translate(78.57 1074.94) rotate(-46.3)"/><rect class="cls-12" x="1300.19" y="423.05" width="12.07" height="24.14" transform="translate(89.23 1078.94) rotate(-46.3)"/><rect class="cls-12" x="1269.06" y="493.48" width="12.07" height="24.14" transform="translate(28.69 1078.2) rotate(-46.3)"/><rect class="cls-12" x="1279.07" y="483.01" width="12.07" height="24.14" transform="translate(39.36 1082.2) rotate(-46.3)"/><rect class="cls-12" x="1289.07" y="472.54" width="12.07" height="24.14" transform="translate(50.02 1086.2) rotate(-46.3)"/><rect class="cls-12" x="1299.08" y="462.06" width="12.07" height="24.14" transform="translate(60.69 1090.19) rotate(-46.3)"/><rect class="cls-12" x="1309.09" y="451.59" width="12.07" height="24.14" transform="translate(71.35 1094.19) rotate(-46.3)"/><rect class="cls-12" x="1319.09" y="441.12" width="12.07" height="24.14" transform="translate(82.02 1098.19) rotate(-46.3)"/><rect class="cls-12" x="1287.96" y="511.54" width="12.07" height="24.14" transform="translate(21.48 1097.45) rotate(-46.3)"/><rect class="cls-12" x="1297.97" y="501.07" width="12.07" height="24.14" transform="translate(32.14 1101.45) rotate(-46.3)"/><rect class="cls-12" x="1307.97" y="490.6" width="12.07" height="24.14" transform="translate(42.81 1105.44) rotate(-46.3)"/><rect class="cls-12" x="1317.98" y="480.12" width="12.07" height="24.14" transform="translate(53.47 1109.44) rotate(-46.3)"/><rect class="cls-12" x="1327.99" y="469.65" width="12.07" height="24.14" transform="translate(64.14 1113.44) rotate(-46.3)"/><rect class="cls-12" x="1338" y="459.18" width="12.07" height="24.14" transform="translate(74.81 1117.44) rotate(-46.3)"/><rect class="cls-12" x="1306.86" y="529.6" width="12.07" height="24.14" transform="translate(14.26 1116.7) rotate(-46.3)"/><rect class="cls-12" x="1316.87" y="519.13" width="12.07" height="24.14" transform="translate(24.93 1120.7) rotate(-46.3)"/><rect class="cls-12" x="1326.88" y="508.66" width="12.07" height="24.14" transform="translate(35.59 1124.69) rotate(-46.3)"/><rect class="cls-12" x="1336.88" y="498.18" width="12.07" height="24.14" transform="translate(46.26 1128.69) rotate(-46.3)"/><rect class="cls-12" x="1346.89" y="487.71" width="12.07" height="24.14" transform="translate(56.93 1132.69) rotate(-46.3)"/><rect class="cls-12" x="1356.9" y="477.24" width="12.07" height="24.14" transform="translate(67.59 1136.69) rotate(-46.3)"/><rect class="cls-12" x="1325.76" y="547.66" width="12.07" height="24.14" transform="translate(7.05 1135.95) rotate(-46.3)"/><rect class="cls-12" x="1335.77" y="537.19" width="12.07" height="24.14" transform="translate(17.71 1139.95) rotate(-46.3)"/><rect class="cls-12" x="1345.78" y="526.72" width="12.07" height="24.14" transform="translate(28.38 1143.94) rotate(-46.3)"/><rect class="cls-12" x="1355.78" y="516.24" width="12.07" height="24.14" transform="translate(39.05 1147.94) rotate(-46.3)"/><rect class="cls-12" x="1365.79" y="505.77" width="12.07" height="24.14" transform="translate(49.71 1151.94) rotate(-46.3)"/><rect class="cls-12" x="1375.8" y="495.3" width="12.07" height="24.14" transform="translate(60.38 1155.94) rotate(-46.3)"/><rect class="cls-12" x="1344.66" y="565.72" width="12.07" height="24.14" transform="translate(-0.17 1155.2) rotate(-46.3)"/><rect class="cls-12" x="1354.67" y="555.25" width="12.07" height="24.14" transform="translate(10.5 1159.2) rotate(-46.3)"/><rect class="cls-12" x="1364.68" y="544.78" width="12.07" height="24.14" transform="translate(21.16 1163.19) rotate(-46.3)"/><rect class="cls-12" x="1374.69" y="534.3" width="12.07" height="24.14" transform="translate(31.83 1167.19) rotate(-46.3)"/><rect class="cls-12" x="1384.69" y="523.83" width="12.07" height="24.14" transform="translate(42.5 1171.19) rotate(-46.3)"/><rect class="cls-12" x="1394.7" y="513.36" width="12.07" height="24.14" transform="translate(53.16 1175.19) rotate(-46.3)"/><rect class="cls-12" x="1363.57" y="583.78" width="12.07" height="24.14" transform="translate(-7.38 1174.45) rotate(-46.3)"/><rect class="cls-12" x="1373.57" y="573.31" width="12.07" height="24.14" transform="translate(3.28 1178.45) rotate(-46.3)"/><rect class="cls-12" x="1383.58" y="562.84" width="12.07" height="24.14" transform="translate(13.95 1182.44) rotate(-46.3)"/><rect class="cls-12" x="1393.59" y="552.36" width="12.07" height="24.14" transform="translate(24.62 1186.44) rotate(-46.3)"/><rect class="cls-12" x="1403.59" y="541.89" width="12.07" height="24.14" transform="translate(35.28 1190.44) rotate(-46.3)"/><rect class="cls-12" x="1413.6" y="531.42" width="12.07" height="24.14" transform="translate(45.95 1194.44) rotate(-46.3)"/><rect class="cls-12" x="1386.56" y="605.76" width="12.07" height="24.14" transform="translate(-16.16 1197.87) rotate(-46.3)"/><rect class="cls-12" x="1396.57" y="595.29" width="12.07" height="24.14" transform="translate(-5.49 1201.87) rotate(-46.3)"/><rect class="cls-12" x="1406.58" y="584.81" width="12.07" height="24.14" transform="translate(5.17 1205.86) rotate(-46.3)"/><rect class="cls-12" x="1416.59" y="574.34" width="12.07" height="24.14" transform="translate(15.84 1209.86) rotate(-46.3)"/><rect class="cls-12" x="1426.59" y="563.87" width="12.07" height="24.14" transform="translate(26.5 1213.86) rotate(-46.3)"/><rect class="cls-12" x="1436.6" y="553.39" width="12.07" height="24.14" transform="translate(37.17 1217.86) rotate(-46.3)"/><rect class="cls-12" x="1405.47" y="623.82" width="12.07" height="24.14" transform="translate(-23.37 1217.12) rotate(-46.3)"/><rect class="cls-12" x="1415.47" y="613.35" width="12.07" height="24.14" transform="translate(-12.71 1221.12) rotate(-46.3)"/><rect class="cls-12" x="1425.48" y="602.87" width="12.07" height="24.14" transform="translate(-2.04 1225.11) rotate(-46.3)"/><rect class="cls-12" x="1435.49" y="592.4" width="12.07" height="24.14" transform="translate(8.62 1229.11) rotate(-46.3)"/><rect class="cls-12" x="1445.49" y="581.93" width="12.07" height="24.14" transform="translate(19.29 1233.11) rotate(-46.3)"/><rect class="cls-12" x="1455.5" y="571.45" width="12.07" height="24.14" transform="translate(29.96 1237.11) rotate(-46.3)"/><rect class="cls-12" x="1424.37" y="641.88" width="12.07" height="24.14" transform="translate(-30.59 1236.37) rotate(-46.3)"/><rect class="cls-12" x="1434.37" y="631.41" width="12.07" height="24.14" transform="translate(-19.92 1240.37) rotate(-46.3)"/><rect class="cls-12" x="1444.38" y="620.93" width="12.07" height="24.14" transform="translate(-9.26 1244.36) rotate(-46.3)"/><rect class="cls-12" x="1454.39" y="610.46" width="12.07" height="24.14" transform="translate(1.41 1248.36) rotate(-46.3)"/><rect class="cls-12" x="1464.4" y="599.99" width="12.07" height="24.14" transform="translate(12.08 1252.36) rotate(-46.3)"/><rect class="cls-12" x="1474.4" y="589.51" width="12.07" height="24.14" transform="translate(22.74 1256.36) rotate(-46.3)"/><rect class="cls-12" x="1443.27" y="659.94" width="12.07" height="24.14" transform="translate(-37.8 1255.62) rotate(-46.3)"/><rect class="cls-12" x="1453.28" y="649.47" width="12.07" height="24.14" transform="translate(-27.14 1259.62) rotate(-46.3)"/><rect class="cls-12" x="1463.28" y="638.99" width="12.07" height="24.14" transform="translate(-16.47 1263.61) rotate(-46.3)"/><rect class="cls-12" x="1473.29" y="628.52" width="12.07" height="24.14" transform="translate(-5.8 1267.61) rotate(-46.3)"/><rect class="cls-12" x="1483.3" y="618.05" width="12.07" height="24.14" transform="translate(4.86 1271.61) rotate(-46.3)"/><rect class="cls-12" x="1493.3" y="607.57" width="12.07" height="24.14" transform="translate(15.53 1275.61) rotate(-46.3)"/><rect class="cls-12" x="1462.17" y="678" width="12.07" height="24.14" transform="translate(-45.02 1274.87) rotate(-46.3)"/><rect class="cls-12" x="1472.18" y="667.53" width="12.07" height="24.14" transform="translate(-34.35 1278.87) rotate(-46.3)"/><rect class="cls-12" x="1482.18" y="657.06" width="12.07" height="24.14" transform="translate(-23.68 1282.86) rotate(-46.3)"/><rect class="cls-12" x="1492.19" y="646.58" width="12.07" height="24.14" transform="translate(-13.02 1286.86) rotate(-46.3)"/><rect class="cls-12" x="1502.2" y="636.11" width="12.07" height="24.14" transform="translate(-2.35 1290.86) rotate(-46.3)"/><rect class="cls-12" x="1512.21" y="625.64" width="12.07" height="24.14" transform="translate(8.31 1294.86) rotate(-46.3)"/><rect class="cls-12" x="1481.07" y="696.06" width="12.07" height="24.14" transform="translate(-52.23 1294.12) rotate(-46.3)"/><rect class="cls-12" x="1491.08" y="685.59" width="12.07" height="24.14" transform="translate(-41.57 1298.12) rotate(-46.3)"/><rect class="cls-12" x="1501.09" y="675.12" width="12.07" height="24.14" transform="translate(-30.9 1302.11) rotate(-46.3)"/><rect class="cls-12" x="1511.09" y="664.64" width="12.07" height="24.14" transform="translate(-20.23 1306.11) rotate(-46.3)"/><rect class="cls-12" x="1521.1" y="654.17" width="12.07" height="24.14" transform="translate(-9.57 1310.11) rotate(-46.3)"/><rect class="cls-12" x="1531.11" y="643.7" width="12.07" height="24.14" transform="translate(1.1 1314.1) rotate(-46.3)"/><rect class="cls-12" x="1499.97" y="714.12" width="12.07" height="24.14" transform="translate(-59.45 1313.37) rotate(-46.3)"/><rect class="cls-12" x="1509.98" y="703.65" width="12.07" height="24.14" transform="translate(-48.78 1317.36) rotate(-46.3)"/><rect class="cls-12" x="1519.99" y="693.18" width="12.07" height="24.14" transform="translate(-38.11 1321.36) rotate(-46.3)"/><rect class="cls-12" x="1529.99" y="682.7" width="12.07" height="24.14" transform="translate(-27.45 1325.36) rotate(-46.3)"/><rect class="cls-12" x="1540" y="672.23" width="12.07" height="24.14" transform="translate(-16.78 1329.36) rotate(-46.3)"/><rect class="cls-12" x="1550.01" y="661.76" width="12.07" height="24.14" transform="translate(-6.12 1333.35) rotate(-46.3)"/><rect class="cls-11" x="848.39" y="8.41" width="187.74" height="384.67" transform="translate(146.17 743.33) rotate(-46.3)"/><rect class="cls-12" x="754.46" y="129.55" width="12.07" height="24.14" transform="translate(132.72 593.63) rotate(-46.3)"/><rect class="cls-12" x="764.46" y="119.08" width="12.07" height="24.14" transform="translate(143.38 597.62) rotate(-46.3)"/><rect class="cls-12" x="774.47" y="108.61" width="12.07" height="24.14" transform="translate(154.05 601.62) rotate(-46.3)"/><rect class="cls-12" x="784.48" y="98.13" width="12.07" height="24.14" transform="translate(164.72 605.62) rotate(-46.3)"/><rect class="cls-12" x="794.49" y="87.66" width="12.07" height="24.14" transform="translate(175.38 609.62) rotate(-46.3)"/><rect class="cls-12" x="804.49" y="77.19" width="12.07" height="24.14" transform="translate(186.05 613.61) rotate(-46.3)"/><rect class="cls-12" x="773.36" y="147.62" width="12.07" height="24.14" transform="translate(125.5 612.88) rotate(-46.3)"/><rect class="cls-12" x="783.37" y="137.14" width="12.07" height="24.14" transform="translate(136.17 616.87) rotate(-46.3)"/><rect class="cls-12" x="793.37" y="126.67" width="12.07" height="24.14" transform="translate(146.84 620.87) rotate(-46.3)"/><rect class="cls-12" x="803.38" y="116.2" width="12.07" height="24.14" transform="translate(157.5 624.87) rotate(-46.3)"/><rect class="cls-12" x="813.39" y="105.72" width="12.07" height="24.14" transform="translate(168.17 628.87) rotate(-46.3)"/><rect class="cls-12" x="823.39" y="95.25" width="12.07" height="24.14" transform="translate(178.83 632.86) rotate(-46.3)"/><rect class="cls-12" x="792.26" y="165.68" width="12.07" height="24.14" transform="translate(118.29 632.13) rotate(-46.3)"/><rect class="cls-12" x="802.27" y="155.2" width="12.07" height="24.14" transform="translate(128.95 636.12) rotate(-46.3)"/><rect class="cls-12" x="812.27" y="144.73" width="12.07" height="24.14" transform="translate(139.62 640.12) rotate(-46.3)"/><rect class="cls-12" x="822.28" y="134.26" width="12.07" height="24.14" transform="translate(150.29 644.12) rotate(-46.3)"/><rect class="cls-12" x="832.29" y="123.78" width="12.07" height="24.14" transform="translate(160.95 648.12) rotate(-46.3)"/><rect class="cls-12" x="842.3" y="113.31" width="12.07" height="24.14" transform="translate(171.62 652.11) rotate(-46.3)"/><rect class="cls-12" x="811.16" y="183.74" width="12.07" height="24.14" transform="translate(111.07 651.38) rotate(-46.3)"/><rect class="cls-12" x="821.17" y="173.26" width="12.07" height="24.14" transform="translate(121.74 655.37) rotate(-46.3)"/><rect class="cls-12" x="831.18" y="162.79" width="12.07" height="24.14" transform="translate(132.41 659.37) rotate(-46.3)"/><rect class="cls-12" x="841.18" y="152.32" width="12.07" height="24.14" transform="translate(143.07 663.37) rotate(-46.3)"/><rect class="cls-12" x="851.19" y="141.84" width="12.07" height="24.14" transform="translate(153.74 667.37) rotate(-46.3)"/><rect class="cls-12" x="861.2" y="131.37" width="12.07" height="24.14" transform="translate(164.41 671.36) rotate(-46.3)"/><rect class="cls-12" x="830.06" y="201.8" width="12.07" height="24.14" transform="translate(103.86 670.63) rotate(-46.3)"/><rect class="cls-12" x="840.07" y="191.32" width="12.07" height="24.14" transform="translate(114.53 674.62) rotate(-46.3)"/><rect class="cls-12" x="850.08" y="180.85" width="12.07" height="24.14" transform="translate(125.19 678.62) rotate(-46.3)"/><rect class="cls-12" x="860.08" y="170.38" width="12.07" height="24.14" transform="translate(135.86 682.62) rotate(-46.3)"/><rect class="cls-12" x="870.09" y="159.9" width="12.07" height="24.14" transform="translate(146.52 686.62) rotate(-46.3)"/><rect class="cls-12" x="880.1" y="149.43" width="12.07" height="24.14" transform="translate(157.19 690.61) rotate(-46.3)"/><rect class="cls-12" x="848.96" y="219.86" width="12.07" height="24.14" transform="translate(96.65 689.88) rotate(-46.3)"/><rect class="cls-12" x="858.97" y="209.38" width="12.07" height="24.14" transform="translate(107.31 693.87) rotate(-46.3)"/><rect class="cls-12" x="868.98" y="198.91" width="12.07" height="24.14" transform="translate(117.98 697.87) rotate(-46.3)"/><rect class="cls-12" x="878.99" y="188.44" width="12.07" height="24.14" transform="translate(128.64 701.87) rotate(-46.3)"/><rect class="cls-12" x="888.99" y="177.96" width="12.07" height="24.14" transform="translate(139.31 705.86) rotate(-46.3)"/><rect class="cls-12" x="899" y="167.49" width="12.07" height="24.14" transform="translate(149.98 709.86) rotate(-46.3)"/><rect class="cls-12" x="867.87" y="237.92" width="12.07" height="24.14" transform="translate(89.43 709.12) rotate(-46.3)"/><rect class="cls-12" x="877.87" y="227.44" width="12.07" height="24.14" transform="translate(100.1 713.12) rotate(-46.3)"/><rect class="cls-12" x="887.88" y="216.97" width="12.07" height="24.14" transform="translate(110.76 717.12) rotate(-46.3)"/><rect class="cls-12" x="897.89" y="206.5" width="12.07" height="24.14" transform="translate(121.43 721.12) rotate(-46.3)"/><rect class="cls-12" x="907.89" y="196.02" width="12.07" height="24.14" transform="translate(132.1 725.11) rotate(-46.3)"/><rect class="cls-12" x="917.9" y="185.55" width="12.07" height="24.14" transform="translate(142.76 729.11) rotate(-46.3)"/><rect class="cls-12" x="890.86" y="259.89" width="12.07" height="24.14" transform="translate(80.65 732.55) rotate(-46.3)"/><rect class="cls-12" x="900.87" y="249.42" width="12.07" height="24.14" transform="translate(91.32 736.54) rotate(-46.3)"/><rect class="cls-12" x="910.88" y="238.95" width="12.07" height="24.14" transform="translate(101.99 740.54) rotate(-46.3)"/><rect class="cls-12" x="920.89" y="228.47" width="12.07" height="24.14" transform="translate(112.65 744.54) rotate(-46.3)"/><rect class="cls-12" x="930.89" y="218" width="12.07" height="24.14" transform="translate(123.32 748.54) rotate(-46.3)"/><rect class="cls-12" x="940.9" y="207.53" width="12.07" height="24.14" transform="translate(133.98 752.53) rotate(-46.3)"/><rect class="cls-12" x="909.77" y="277.95" width="12.07" height="24.14" transform="translate(73.44 751.8) rotate(-46.3)"/><rect class="cls-12" x="919.77" y="267.48" width="12.07" height="24.14" transform="translate(84.11 755.79) rotate(-46.3)"/><rect class="cls-12" x="929.78" y="257.01" width="12.07" height="24.14" transform="translate(94.77 759.79) rotate(-46.3)"/><rect class="cls-12" x="939.79" y="246.53" width="12.07" height="24.14" transform="translate(105.44 763.79) rotate(-46.3)"/><rect class="cls-12" x="949.79" y="236.06" width="12.07" height="24.14" transform="translate(116.1 767.79) rotate(-46.3)"/><rect class="cls-12" x="959.8" y="225.59" width="12.07" height="24.14" transform="translate(126.77 771.78) rotate(-46.3)"/><rect class="cls-12" x="928.67" y="296.01" width="12.07" height="24.14" transform="translate(66.22 771.05) rotate(-46.3)"/><rect class="cls-12" x="938.67" y="285.54" width="12.07" height="24.14" transform="translate(76.89 775.04) rotate(-46.3)"/><rect class="cls-12" x="948.68" y="275.07" width="12.07" height="24.14" transform="translate(87.56 779.04) rotate(-46.3)"/><rect class="cls-12" x="958.69" y="264.59" width="12.07" height="24.14" transform="translate(98.22 783.04) rotate(-46.3)"/><rect class="cls-12" x="968.7" y="254.12" width="12.07" height="24.14" transform="translate(108.89 787.04) rotate(-46.3)"/><rect class="cls-12" x="978.7" y="243.65" width="12.07" height="24.14" transform="translate(119.56 791.03) rotate(-46.3)"/><rect class="cls-12" x="947.57" y="314.07" width="12.07" height="24.14" transform="translate(59.01 790.3) rotate(-46.3)"/><rect class="cls-12" x="957.58" y="303.6" width="12.07" height="24.14" transform="translate(69.68 794.29) rotate(-46.3)"/><rect class="cls-12" x="967.58" y="293.13" width="12.07" height="24.14" transform="translate(80.34 798.29) rotate(-46.3)"/><rect class="cls-12" x="977.59" y="282.65" width="12.07" height="24.14" transform="translate(91.01 802.29) rotate(-46.3)"/><rect class="cls-12" x="987.6" y="272.18" width="12.07" height="24.14" transform="translate(101.68 806.29) rotate(-46.3)"/><rect class="cls-12" x="997.61" y="261.71" width="12.07" height="24.14" transform="translate(112.34 810.28) rotate(-46.3)"/><rect class="cls-12" x="966.47" y="332.14" width="12.07" height="24.14" transform="translate(51.8 809.54) rotate(-46.3)"/><rect class="cls-12" x="976.48" y="321.66" width="12.07" height="24.14" transform="translate(62.46 813.54) rotate(-46.3)"/><rect class="cls-12" x="986.48" y="311.19" width="12.07" height="24.14" transform="translate(73.13 817.54) rotate(-46.3)"/><rect class="cls-12" x="996.49" y="300.72" width="12.07" height="24.14" transform="translate(83.79 821.54) rotate(-46.3)"/><rect class="cls-12" x="1006.5" y="290.24" width="12.07" height="24.14" transform="translate(94.46 825.53) rotate(-46.3)"/><rect class="cls-12" x="1016.51" y="279.77" width="12.07" height="24.14" transform="translate(105.13 829.53) rotate(-46.3)"/><rect class="cls-12" x="985.37" y="350.2" width="12.07" height="24.14" transform="translate(44.58 828.79) rotate(-46.3)"/><rect class="cls-12" x="995.38" y="339.72" width="12.07" height="24.14" transform="translate(55.25 832.79) rotate(-46.3)"/><rect class="cls-12" x="1005.39" y="329.25" width="12.07" height="24.14" transform="translate(65.91 836.79) rotate(-46.3)"/><rect class="cls-12" x="1015.39" y="318.78" width="12.07" height="24.14" transform="translate(76.58 840.79) rotate(-46.3)"/><rect class="cls-12" x="1025.4" y="308.3" width="12.07" height="24.14" transform="translate(87.25 844.78) rotate(-46.3)"/><rect class="cls-12" x="1035.41" y="297.83" width="12.07" height="24.14" transform="translate(97.91 848.78) rotate(-46.3)"/><rect class="cls-12" x="1004.27" y="368.26" width="12.07" height="24.14" transform="translate(37.37 848.04) rotate(-46.3)"/><rect class="cls-12" x="1014.28" y="357.78" width="12.07" height="24.14" transform="translate(48.03 852.04) rotate(-46.3)"/><rect class="cls-12" x="1024.29" y="347.31" width="12.07" height="24.14" transform="translate(58.7 856.04) rotate(-46.3)"/><rect class="cls-12" x="1034.3" y="336.84" width="12.07" height="24.14" transform="translate(69.37 860.04) rotate(-46.3)"/><rect class="cls-12" x="1044.3" y="326.36" width="12.07" height="24.14" transform="translate(80.03 864.03) rotate(-46.3)"/><rect class="cls-12" x="1054.31" y="315.89" width="12.07" height="24.14" transform="translate(90.7 868.03) rotate(-46.3)"/><rect class="cls-12" x="818.28" y="62.76" width="12.07" height="24.14" transform="translate(200.74 619.12) rotate(-46.3)"/><rect class="cls-12" x="828.29" y="52.29" width="12.07" height="24.14" transform="translate(211.41 623.12) rotate(-46.3)"/><rect class="cls-12" x="838.29" y="41.81" width="12.07" height="24.14" transform="translate(222.07 627.12) rotate(-46.3)"/><rect class="cls-12" x="848.3" y="31.34" width="12.07" height="24.14" transform="translate(232.74 631.11) rotate(-46.3)"/><rect class="cls-12" x="858.31" y="20.87" width="12.07" height="24.14" transform="translate(243.41 635.11) rotate(-46.3)"/><rect class="cls-12" x="868.32" y="10.39" width="12.07" height="24.14" transform="translate(254.07 639.11) rotate(-46.3)"/><rect class="cls-12" x="837.18" y="80.82" width="12.07" height="24.14" transform="translate(193.53 638.37) rotate(-46.3)"/><rect class="cls-12" x="847.19" y="70.35" width="12.07" height="24.14" transform="translate(204.19 642.37) rotate(-46.3)"/><rect class="cls-12" x="857.2" y="59.87" width="12.07" height="24.14" transform="translate(214.86 646.37) rotate(-46.3)"/><rect class="cls-12" x="867.2" y="49.4" width="12.07" height="24.14" transform="translate(225.53 650.36) rotate(-46.3)"/><rect class="cls-12" x="877.21" y="38.93" width="12.07" height="24.14" transform="translate(236.19 654.36) rotate(-46.3)"/><rect class="cls-12" x="887.22" y="28.45" width="12.07" height="24.14" transform="translate(246.86 658.36) rotate(-46.3)"/><rect class="cls-12" x="856.08" y="98.88" width="12.07" height="24.14" transform="translate(186.31 657.62) rotate(-46.3)"/><rect class="cls-12" x="866.09" y="88.41" width="12.07" height="24.14" transform="translate(196.98 661.62) rotate(-46.3)"/><rect class="cls-12" x="876.1" y="77.93" width="12.07" height="24.14" transform="translate(207.65 665.62) rotate(-46.3)"/><rect class="cls-12" x="886.1" y="67.46" width="12.07" height="24.14" transform="translate(218.31 669.61) rotate(-46.3)"/><rect class="cls-12" x="896.11" y="56.99" width="12.07" height="24.14" transform="translate(228.98 673.61) rotate(-46.3)"/><rect class="cls-12" x="906.12" y="46.51" width="12.07" height="24.14" transform="translate(239.64 677.61) rotate(-46.3)"/><rect class="cls-12" x="874.98" y="116.94" width="12.07" height="24.14" transform="translate(179.1 676.87) rotate(-46.3)"/><rect class="cls-12" x="884.99" y="106.47" width="12.07" height="24.14" transform="translate(189.77 680.87) rotate(-46.3)"/><rect class="cls-12" x="895" y="95.99" width="12.07" height="24.14" transform="translate(200.43 684.87) rotate(-46.3)"/><rect class="cls-12" x="905.01" y="85.52" width="12.07" height="24.14" transform="translate(211.1 688.86) rotate(-46.3)"/><rect class="cls-12" x="915.01" y="75.05" width="12.07" height="24.14" transform="translate(221.76 692.86) rotate(-46.3)"/><rect class="cls-12" x="925.02" y="64.57" width="12.07" height="24.14" transform="translate(232.43 696.86) rotate(-46.3)"/><rect class="cls-12" x="893.89" y="135" width="12.07" height="24.14" transform="translate(171.88 696.12) rotate(-46.3)"/><rect class="cls-12" x="903.89" y="124.53" width="12.07" height="24.14" transform="translate(182.55 700.12) rotate(-46.3)"/><rect class="cls-12" x="913.9" y="114.06" width="12.07" height="24.14" transform="translate(193.22 704.11) rotate(-46.3)"/><rect class="cls-12" x="923.91" y="103.58" width="12.07" height="24.14" transform="translate(203.88 708.11) rotate(-46.3)"/><rect class="cls-12" x="933.91" y="93.11" width="12.07" height="24.14" transform="translate(214.55 712.11) rotate(-46.3)"/><rect class="cls-12" x="943.92" y="82.64" width="12.07" height="24.14" transform="translate(225.22 716.11) rotate(-46.3)"/><rect class="cls-12" x="912.79" y="153.06" width="12.07" height="24.14" transform="translate(164.67 715.37) rotate(-46.3)"/><rect class="cls-12" x="922.79" y="142.59" width="12.07" height="24.14" transform="translate(175.34 719.37) rotate(-46.3)"/><rect class="cls-12" x="932.8" y="132.12" width="12.07" height="24.14" transform="translate(186 723.36) rotate(-46.3)"/><rect class="cls-12" x="942.81" y="121.64" width="12.07" height="24.14" transform="translate(196.67 727.36) rotate(-46.3)"/><rect class="cls-12" x="952.82" y="111.17" width="12.07" height="24.14" transform="translate(207.34 731.36) rotate(-46.3)"/><rect class="cls-12" x="962.82" y="100.7" width="12.07" height="24.14" transform="translate(218 735.36) rotate(-46.3)"/><rect class="cls-12" x="931.69" y="171.12" width="12.07" height="24.14" transform="translate(157.46 734.62) rotate(-46.3)"/><rect class="cls-12" x="941.7" y="160.65" width="12.07" height="24.14" transform="translate(168.12 738.62) rotate(-46.3)"/><rect class="cls-12" x="951.7" y="150.18" width="12.07" height="24.14" transform="translate(178.79 742.61) rotate(-46.3)"/><rect class="cls-12" x="961.71" y="139.7" width="12.07" height="24.14" transform="translate(189.45 746.61) rotate(-46.3)"/><rect class="cls-12" x="971.72" y="129.23" width="12.07" height="24.14" transform="translate(200.12 750.61) rotate(-46.3)"/><rect class="cls-12" x="981.72" y="118.76" width="12.07" height="24.14" transform="translate(210.79 754.61) rotate(-46.3)"/><rect class="cls-12" x="954.69" y="193.1" width="12.07" height="24.14" transform="translate(148.68 758.04) rotate(-46.3)"/><rect class="cls-12" x="964.69" y="182.62" width="12.07" height="24.14" transform="translate(159.34 762.04) rotate(-46.3)"/><rect class="cls-12" x="974.7" y="172.15" width="12.07" height="24.14" transform="translate(170.01 766.04) rotate(-46.3)"/><rect class="cls-12" x="984.71" y="161.68" width="12.07" height="24.14" transform="translate(180.68 770.03) rotate(-46.3)"/><rect class="cls-12" x="994.72" y="151.21" width="12.07" height="24.14" transform="translate(191.34 774.03) rotate(-46.3)"/><rect class="cls-12" x="1004.72" y="140.73" width="12.07" height="24.14" transform="translate(202.01 778.03) rotate(-46.3)"/><rect class="cls-12" x="973.59" y="211.16" width="12.07" height="24.14" transform="translate(141.46 777.29) rotate(-46.3)"/><rect class="cls-12" x="983.6" y="200.69" width="12.07" height="24.14" transform="translate(152.13 781.29) rotate(-46.3)"/><rect class="cls-12" x="993.6" y="190.21" width="12.07" height="24.14" transform="translate(162.8 785.29) rotate(-46.3)"/><rect class="cls-12" x="1003.61" y="179.74" width="12.07" height="24.14" transform="translate(173.46 789.28) rotate(-46.3)"/><rect class="cls-12" x="1013.62" y="169.27" width="12.07" height="24.14" transform="translate(184.13 793.28) rotate(-46.3)"/><rect class="cls-12" x="1023.63" y="158.79" width="12.07" height="24.14" transform="translate(194.79 797.28) rotate(-46.3)"/><rect class="cls-12" x="992.49" y="229.22" width="12.07" height="24.14" transform="translate(134.25 796.54) rotate(-46.3)"/><rect class="cls-12" x="1002.5" y="218.75" width="12.07" height="24.14" transform="translate(144.92 800.54) rotate(-46.3)"/><rect class="cls-12" x="1012.5" y="208.27" width="12.07" height="24.14" transform="translate(155.58 804.53) rotate(-46.3)"/><rect class="cls-12" x="1022.51" y="197.8" width="12.07" height="24.14" transform="translate(166.25 808.53) rotate(-46.3)"/><rect class="cls-12" x="1032.52" y="187.33" width="12.07" height="24.14" transform="translate(176.91 812.53) rotate(-46.3)"/><rect class="cls-12" x="1042.53" y="176.85" width="12.07" height="24.14" transform="translate(187.58 816.53) rotate(-46.3)"/><rect class="cls-12" x="1011.39" y="247.28" width="12.07" height="24.14" transform="translate(127.04 815.79) rotate(-46.3)"/><rect class="cls-12" x="1021.4" y="236.81" width="12.07" height="24.14" transform="translate(137.7 819.79) rotate(-46.3)"/><rect class="cls-12" x="1031.41" y="226.33" width="12.07" height="24.14" transform="translate(148.37 823.78) rotate(-46.3)"/><rect class="cls-12" x="1041.41" y="215.86" width="12.07" height="24.14" transform="translate(159.03 827.78) rotate(-46.3)"/><rect class="cls-12" x="1051.42" y="205.39" width="12.07" height="24.14" transform="translate(169.7 831.78) rotate(-46.3)"/><rect class="cls-12" x="1061.43" y="194.91" width="12.07" height="24.14" transform="translate(180.37 835.78) rotate(-46.3)"/><rect class="cls-12" x="1030.29" y="265.34" width="12.07" height="24.14" transform="translate(119.82 835.04) rotate(-46.3)"/><rect class="cls-12" x="1040.3" y="254.87" width="12.07" height="24.14" transform="translate(130.49 839.04) rotate(-46.3)"/><rect class="cls-12" x="1050.31" y="244.39" width="12.07" height="24.14" transform="translate(141.15 843.03) rotate(-46.3)"/><rect class="cls-12" x="1060.31" y="233.92" width="12.07" height="24.14" transform="translate(151.82 847.03) rotate(-46.3)"/><rect class="cls-12" x="1070.32" y="223.45" width="12.07" height="24.14" transform="translate(162.49 851.03) rotate(-46.3)"/><rect class="cls-12" x="1080.33" y="212.97" width="12.07" height="24.14" transform="translate(173.15 855.03) rotate(-46.3)"/><rect class="cls-12" x="1049.19" y="283.4" width="12.07" height="24.14" transform="translate(112.61 854.29) rotate(-46.3)"/><rect class="cls-12" x="1059.2" y="272.93" width="12.07" height="24.14" transform="translate(123.27 858.29) rotate(-46.3)"/><rect class="cls-12" x="1069.21" y="262.45" width="12.07" height="24.14" transform="translate(133.94 862.28) rotate(-46.3)"/><rect class="cls-12" x="1079.22" y="251.98" width="12.07" height="24.14" transform="translate(144.61 866.28) rotate(-46.3)"/><rect class="cls-12" x="1089.22" y="241.51" width="12.07" height="24.14" transform="translate(155.27 870.28) rotate(-46.3)"/><rect class="cls-12" x="1099.23" y="231.03" width="12.07" height="24.14" transform="translate(165.94 874.28) rotate(-46.3)"/><rect class="cls-12" x="1068.1" y="301.46" width="12.07" height="24.14" transform="translate(105.39 873.54) rotate(-46.3)"/><rect class="cls-12" x="1078.1" y="290.99" width="12.07" height="24.14" transform="translate(116.06 877.54) rotate(-46.3)"/><rect class="cls-12" x="1088.11" y="280.51" width="12.07" height="24.14" transform="translate(126.72 881.53) rotate(-46.3)"/><rect class="cls-12" x="1098.12" y="270.04" width="12.07" height="24.14" transform="translate(137.39 885.53) rotate(-46.3)"/><rect class="cls-12" x="1108.13" y="259.57" width="12.07" height="24.14" transform="translate(148.06 889.53) rotate(-46.3)"/><rect class="cls-12" x="1118.13" y="249.09" width="12.07" height="24.14" transform="translate(158.72 893.53) rotate(-46.3)"/><path class="cls-13" d="M213.62,379.81q0,2.56-4.27,3.42a39.71,39.71,0,0,1-8.54.17q-7.69-.51-6.49-.51-6.67,0-6.67,6.67,0,4.1.51,12.39t.51,12.39q0,6-5.3,6-59,0-62-1.45t-3.08-3.67q0-2.56,2.14-12.65t2.14-14.7q0-5.64-6.32-5.64-11.45,0-34.26.68t-34.27.68Q34,383.57,34,372.8q0-5.47-.17-16.32t-.17-16.32q0-5.13,5.3-10.77,25-26.66,36.4-42.72,5.47-7.69,37.08-60a241.55,241.55,0,0,1,13.33-21.53q2.39-2.9,5.13-2.91,4.1,0,25.38,6.15t29,6.15q5.47,0,5.47,7a193.56,193.56,0,0,1-1.54,20.08,194,194,0,0,0-1.54,20.25v71.95a104.22,104.22,0,0,0,11.28-1,84.27,84.27,0,0,1,11.11-1q3.24,0,3.25,3.93,0,3.59-.43,10.77t-.43,10.94q0,3.76.6,11.19T213.62,379.81Zm-84.42-108c0-.68-.4-1-1.2-1q-1.54,0-3.08,2.22l-21.87,35.21q-13.16,20.34-25.63,32.64,9.4,0,47.85-2.39.34-6.83,2.39-33.67Q129.2,283.6,129.2,271.8Z"/><path class="cls-13" d="M432.2,315q0,44.09-28.54,75.71-29.57,32.81-73.32,32.81T257.2,390.75Q228.49,359.13,228.49,315q0-44.26,28.71-75.54,29.39-32.3,73.14-32.3t73.14,32.3Q432.2,271,432.2,315Zm-63.4,0q0-17.6-10.25-30.59-10.94-13.84-28.2-13.84-17.6,0-28.37,13.67Q291.89,296.93,291.89,315q0,17.78,10.08,30.93,10.94,14.19,28.37,14.18,16.75,0,28-14.53A48.3,48.3,0,0,0,368.8,315Z"/><path class="cls-13" d="M627.2,379.81q0,2.56-4.27,3.42a39.71,39.71,0,0,1-8.54.17q-7.69-.51-6.49-.51-6.67,0-6.67,6.67,0,4.1.51,12.39t.51,12.39q0,6-5.3,6-59,0-62-1.45t-3.08-3.67q0-2.56,2.14-12.65t2.14-14.7q0-5.64-6.32-5.64-11.45,0-34.26.68t-34.27.68q-13.67,0-13.67-10.77,0-5.47-.17-16.32t-.17-16.32q0-5.13,5.3-10.77,25-26.66,36.4-42.72,5.47-7.69,37.08-60a241.55,241.55,0,0,1,13.33-21.53q2.39-2.9,5.13-2.91,4.1,0,25.38,6.15t29,6.15q5.47,0,5.47,7a193.56,193.56,0,0,1-1.54,20.08,194,194,0,0,0-1.54,20.25v71.95a104.22,104.22,0,0,0,11.28-1,84.27,84.27,0,0,1,11.11-1q3.24,0,3.25,3.93,0,3.59-.43,10.77T626,357.42q0,3.76.6,11.19T627.2,379.81Zm-84.42-108c0-.68-.4-1-1.2-1q-1.54,0-3.08,2.22l-21.87,35.21Q503.46,328.54,491,340.85q9.4,0,47.85-2.39.34-6.83,2.39-33.67Q542.77,283.6,542.77,271.8Z"/><path class="cls-12" d="M116.46,522.28q0,11.82-6.2,19.14-6.64,7.76-18.31,7.76-2,0-5.88-.22t-5.88-.22q-2.1,0-2.1,1.81,0,2.25.44,6.69t.44,6.64q0,1.12-1,1.12-3,0-8.94-.17t-8.94-.17a1.25,1.25,0,0,1-1.42-1.42q0-5.42.17-16.28T59,530.68q0-15.33-1.32-32.23l0-.68q-.1-.93,1.46-1.12,3.81-.49,16.8-.49,7.67,0,14.7.2,11.57.34,18.65,7.28Q116.45,510.76,116.46,522.28ZM97,523.07q0-11.38-11.08-11.38-7.81,0-8.2.88-.34.64-.34,11.28,0,1.51.12,4.47t.12,4.47q0,1,8.79,1Q97,533.76,97,523.07Z"/><path class="cls-12" d="M187.55,563.45q0,.88-1.22,1.22-1.46.39-9.08.39a61.62,61.62,0,0,1-9-.39,2.63,2.63,0,0,1-2.1-2.2q-1.66-7-2.59-7.52t-13.09-.34q-8.3,0-8.84.44-.83.78-1.86,5.22-.93,4.05-2.25,4.39-1.66.39-11.13.39-7.47,0-7.47-1.42t11-31.2q12-32.37,13-35.6.59-1.85,1.37-1.86,1.32,0,4.08.24t4.13.24q1.32,0,3.88-.17t3.83-.17q.93,0,1.71,1.61,2.39,5.13,14,35.16Q187.55,562.13,187.55,563.45ZM143.9,494.7q-.93,0-.93-1a11.57,11.57,0,0,1,.1-1.22,11.9,11.9,0,0,0,.1-1.27,14.6,14.6,0,0,0-.17-1.81,14.39,14.39,0,0,1-.17-1.81q0-.68,1-1.07a90.36,90.36,0,0,0,9.28-4.83q3-2.15,9-6.4a3.37,3.37,0,0,1,1-.49,2.6,2.6,0,0,1,.83.49q1.12,1.17,3.56,3.32,1.37.78,4,2.49.78.54.78,1t-.68,1q-4.3,4.05-12.89,7.69t-14.4,3.93Zm9,24.27q-1,2.15-3.47,9.33-2.64,7.62-2.64,8.94,0,.88,2.93,1,1.51.1,5,.1,3.22,0,3.56-.78a1.91,1.91,0,0,0,.1-.68q0-1.61-2.25-8.89A69.15,69.15,0,0,0,152.93,519Z"/><path class="cls-12" d="M256.79,563.1q.1,1.32-1.37,1.32a36.1,36.1,0,0,1-5.35-1.07q-4.42-1.07-5.44-1.46a53.54,53.54,0,0,1-19.58,4q-15.09,0-24.76-10.06t-9.57-25q0-15.48,9.28-25.68,9.57-10.55,24.85-10.55a34.78,34.78,0,0,1,14,2.83A26.48,26.48,0,0,1,250,506.17a3.74,3.74,0,0,1,.83,1.66q0,1.56-4.37,7t-5.64,5.44a9.54,9.54,0,0,1-2.25-2,20.66,20.66,0,0,0-4.88-3.71,17,17,0,0,0-8.2-2A14,14,0,0,0,213.82,518a19.51,19.51,0,0,0-4,12.55q0,8,4.15,12.6T226.12,548a30,30,0,0,0,11.13-2.49q-.15-1.61-.88-8.2a69.06,69.06,0,0,1-.63-8.2q0-.93.63-1.12a2.28,2.28,0,0,1,.78-.1q1.42,0,4.27.27t4.32.27q1.56,0,4.69-.22t4.69-.22q1.22,0,1.22,1.61,0,2.34-.27,7.08t-.27,7.08q0,6.3.93,18.85Z"/><path class="cls-12" d="M283.45,528.58q0,5.76.29,17.33t.29,17.33q0,1-.44,1.22a10.06,10.06,0,0,1-1.27.2,72.82,72.82,0,0,1-8.5.39,62.05,62.05,0,0,1-9.08-.39q-1.42-.29-1.42-1.51,0,.78.44-8.59.88-19.78.88-26,0-5.22-.34-15.67T264,497.24q0-1.07,1.12-1.07,1.51,0,4.57.15t4.57.15q1.51,0,4.47-.15t4.47-.15q1.42,0,1.42,1.07,0,5.23-.56,15.67T283.45,528.58Z"/><path class="cls-12" d="M358.74,497.67q0,5.57-.46,16.72t-.46,16.77v32.18q0,1.32-1.42,1.32-1.17,0-3.54.1t-3.54.1q-1.27,0-3.81-.2t-3.81-.2q-.88,0-2.1-1.61-3.52-4.74-15.82-21-3.37-4.54-10.25-13.38a2.06,2.06,0,0,0-.73-.59,1.35,1.35,0,0,0-.39,1.07q0,5.66.32,17t.32,17q0,1.71-1.32,1.71H294.82q-1.42,0-1.42-1.51,0-5.27.51-15.92t.51-16q0-5.61-.46-16.8t-.46-16.75q0-1.07,1.9-1.07,2.83,0,7-.39,1-.1,3.86-.63a23.1,23.1,0,0,1,3.86-.44q.59,0,1.81,1.66l18.21,25q2.44,3.37,7.37,9.86,1.22,1.51,2.1,1.51.63,0,.63-3.81,0-5.13-.56-15.43t-.56-15.48q0-1.81,1-1.81,2.93,0,8.84-.24t8.84-.24Q358.74,496.16,358.74,497.67Z"/><path class="cls-12" d="M432.23,563.45q0,.88-1.22,1.22-1.46.39-9.08.39a61.62,61.62,0,0,1-9-.39,2.63,2.63,0,0,1-2.1-2.2q-1.66-7-2.59-7.52t-13.09-.34q-8.3,0-8.84.44-.83.78-1.86,5.22-.93,4.05-2.25,4.39-1.66.39-11.13.39-7.47,0-7.47-1.42t11-31.2q12-32.37,13-35.6Q388.23,495,389,495q1.32,0,4.08.24t4.13.24q1.32,0,3.88-.17t3.83-.17q.93,0,1.71,1.61,2.39,5.13,14,35.16Q432.23,562.13,432.23,563.45ZM397.61,519q-1,2.15-3.47,9.33-2.64,7.62-2.64,8.94,0,.88,2.93,1,1.51.1,5,.1,3.22,0,3.56-.78a1.91,1.91,0,0,0,.1-.68q0-1.61-2.25-8.89A69.15,69.15,0,0,0,397.61,519Z"/><path class="cls-12" d="M527.54,497.67q0,5.57-.46,16.72t-.46,16.77v32.18q0,1.32-1.42,1.32-1.17,0-3.54.1t-3.54.1q-1.27,0-3.81-.2t-3.81-.2q-.88,0-2.1-1.61-3.52-4.74-15.82-21-3.37-4.54-10.25-13.38a2.06,2.06,0,0,0-.73-.59,1.35,1.35,0,0,0-.39,1.07q0,5.66.32,17t.32,17q0,1.71-1.32,1.71H463.62q-1.42,0-1.42-1.51,0-5.27.51-15.92t.51-16q0-5.61-.46-16.8t-.46-16.75q0-1.07,1.9-1.07,2.83,0,7-.39,1-.1,3.86-.63a23.1,23.1,0,0,1,3.86-.44q.59,0,1.81,1.66l18.21,25q2.44,3.37,7.37,9.86,1.22,1.51,2.1,1.51.63,0,.63-3.81,0-5.13-.56-15.43t-.56-15.48q0-1.81,1-1.81,2.93,0,8.84-.24t8.84-.24Q527.54,496.16,527.54,497.67Z"/><path class="cls-12" d="M604.44,530.49q0,15.23-9.72,25.54-9.91,10.45-25.1,10.45t-25-10.55q-9.77-10.3-9.77-25.44t9.77-25.54q10-10.6,25-10.6a33,33,0,0,1,25,10.6Q604.44,515.4,604.44,530.49Zm-18.51-.1a18.36,18.36,0,0,0-4.44-12.45,15.39,15.39,0,0,0-23.54.2,19.37,19.37,0,0,0-.29,24.8,15.74,15.74,0,0,0,23.68-.29A18.1,18.1,0,0,0,585.94,530.39Z"/><path class="cls-12" d="M50.2,649.48a63.62,63.62,0,0,1-.83,7.71q-.88,6.1-1.56,7.28a1.82,1.82,0,0,1-1.61.93,11.89,11.89,0,0,1-1.46-.15q-3.57-.49-20.8-.49-3.76,0-11.18,0t-11.13,0Q0,664.67,0,663.25q0-5.47.61-16.43t.61-16.43q0-5.57-.59-20.75Q.49,605.73.1,598l0-.68q-.1-1.12,1.22-1.12,3.61,0,10.86.2t10.86.2q3.56,0,10.74-.2t10.74-.2q2.54,0,2.93,1.9.24,1.12.76,6.81t.51,6.91q0,1-1,1l-1,0q-13-1.07-23.34-1.07-2.59,0-3.17,1.22a15.3,15.3,0,0,0-.24,3.76q0,3.32,1,4.39t3.17.93q.49,0,1.9-.07t2.34-.07q6.15,0,12.45-.34l2.69-.24a23.89,23.89,0,0,1,2.64-.2q1.17,0,1.17,1.12,0-1-.88,7.47-.39,3.91-.39,7.81,0,1-1.42,1L40.19,638q-2.78-.29-12.7-.29H22.31q-2,0-2.34,1,0,.24,0,3a14.34,14.34,0,0,0,.49,4.79q.83,1.86,6.25,2.2h7.13q2.59,0,7.69-.46t7.64-.46Q50.19,647.72,50.2,649.48Z"/><path class="cls-12" d="M122,597.67q0,5.57-.46,16.72t-.46,16.77v32.18q0,1.32-1.42,1.32-1.17,0-3.54.1t-3.54.1q-1.27,0-3.81-.2t-3.81-.2q-.88,0-2.1-1.61-3.52-4.74-15.82-21-3.37-4.54-10.25-13.38a2.06,2.06,0,0,0-.73-.59,1.35,1.35,0,0,0-.39,1.07q0,5.66.32,17t.32,17q0,1.71-1.32,1.71H58.11q-1.42,0-1.42-1.51,0-5.27.51-15.92t.51-16q0-5.61-.46-16.8t-.46-16.75q0-1.07,1.9-1.07,2.83,0,7-.39,1-.1,3.86-.63a23.1,23.1,0,0,1,3.86-.44q.59,0,1.81,1.66l18.21,25q2.44,3.37,7.37,9.86,1.22,1.51,2.1,1.51.63,0,.63-3.81,0-5.13-.56-15.43t-.56-15.48q0-1.81,1-1.81,2.93,0,8.84-.24t8.84-.24Q122,596.16,122,597.67Z"/><path class="cls-12" d="M188.13,653.63a3.71,3.71,0,0,1-1,2.05q-9,10.69-23.88,10.69-15.23,0-24.71-10.4-9.23-10.06-9.23-25.39,0-14.84,9-25.2a30.37,30.37,0,0,1,24-10.84q15.82,0,24.8,9.72a3.06,3.06,0,0,1,1,1.9q0,.93-3.39,6.88t-4.27,6.69a1.32,1.32,0,0,1-1,.39,13,13,0,0,1-2.44-2,25.78,25.78,0,0,0-5.18-3.66,17.52,17.52,0,0,0-8-2,14,14,0,0,0-11.47,5.37,19.17,19.17,0,0,0-4,12.3,19.52,19.52,0,0,0,4,12.45,13.85,13.85,0,0,0,11.47,5.47,18.16,18.16,0,0,0,8.06-1.86,24.82,24.82,0,0,0,5.08-3.42,12.46,12.46,0,0,1,2.39-1.86,1.37,1.37,0,0,1,1,.54q.78.88,4.25,6.1Q188.13,653.09,188.13,653.63Z"/><path class="cls-12" d="M261.23,630.49q0,15.23-9.72,25.54-9.91,10.45-25.1,10.45t-25-10.55q-9.77-10.3-9.77-25.44t9.77-25.54q10-10.6,25-10.6a33,33,0,0,1,25,10.6Q261.23,615.4,261.23,630.49Zm-18.51-.1a18.36,18.36,0,0,0-4.44-12.45,15.39,15.39,0,0,0-23.54.2,19.37,19.37,0,0,0-.29,24.8,15.74,15.74,0,0,0,23.68-.29A18.1,18.1,0,0,0,242.72,630.39Z"/><path class="cls-12" d="M333.84,597.67q0,5.57-.46,16.72t-.46,16.77v32.18q0,1.32-1.42,1.32-1.17,0-3.54.1t-3.54.1q-1.27,0-3.81-.2t-3.81-.2q-.88,0-2.1-1.61-3.52-4.74-15.82-21-3.37-4.54-10.25-13.38a2.06,2.06,0,0,0-.73-.59,1.35,1.35,0,0,0-.39,1.07q0,5.66.32,17t.32,17q0,1.71-1.32,1.71H269.92q-1.42,0-1.42-1.51,0-5.27.51-15.92t.51-16q0-5.61-.46-16.8t-.46-16.75q0-1.07,1.9-1.07,2.83,0,7-.39,1-.1,3.86-.63a23.1,23.1,0,0,1,3.86-.44q.59,0,1.81,1.66l18.21,25q2.44,3.37,7.37,9.86,1.22,1.51,2.1,1.51.63,0,.63-3.81,0-5.13-.56-15.43t-.56-15.48q0-1.81,1-1.81,2.93,0,8.84-.24t8.84-.24Q333.84,596.16,333.84,597.67Z"/><path class="cls-12" d="M390.48,611.1q0,1-1.07,1-1.86,0-14.7-.73-.29,12.35-.29,17.24,0,5.76.46,17.33t.46,17.33q0,.93-.44,1.17a5.85,5.85,0,0,1-1.37.24,70.15,70.15,0,0,1-8.59.39,67.22,67.22,0,0,1-8.84-.39,1.43,1.43,0,0,1-1.37-1.51q0-5.76.49-17.29t.49-17.29q0-3.81-.39-17-9.77,1-15.58,1-.78,0-.78-.49a28.51,28.51,0,0,1,.68-3.76q.78-3.42.88-4.15.15-2.29.34-4.59.34-3.66,1.17-3.66l.68,0a197.08,197.08,0,0,0,23.39,1q4.39,0,16.21-.93l6.4-.49a2.68,2.68,0,0,1,1.12.12c.1.08.16.4.2,1q0,1.32-.1,3.66-.1,2.59-.1,3.66a29.32,29.32,0,0,0,.32,3.59A29.46,29.46,0,0,1,390.48,611.1Z"/><path class="cls-12" d="M453.91,664.18q0,.34-1,.49a84.5,84.5,0,0,1-9.33.29,82.93,82.93,0,0,1-8.69-.29,5,5,0,0,1-1.22-.24,2.16,2.16,0,0,1-.68-1q-.73-1.9-2.15-5.66-1.9-4.88-6-14.4-.88-1.9-4.05-2.1,1.46.1-5,.1-.73,0-.73,2.49,0,3.32.61,9.91t.61,9.91q0,.83-.44,1l-1.37.1q-2.88.19-9,.2a64.68,64.68,0,0,1-8.4-.29q-1.42-.29-1.42-1.51,0-5.37.51-16.21t.51-16.26q0-20.65-.93-32.23l0-.68q0-.83,1.54-1.12t14.92-.59q9-.19,14.4-.2,11.13,0,18.16,5,8,5.66,8,16.36,0,7.13-2.05,11.38t-7.57,8.25q-1.12.78-1.12,1.46s2,4.05,6,12.26S453.91,663.33,453.91,664.18Zm-20.51-43.8q0-6-3.91-8.25-3-1.76-9.47-1.76-4.64,0-4.93,1.42a84.73,84.73,0,0,0-.29,9.57q0,1.12,0,3.32t0,3.27q0,.24,1.56.49a42.8,42.8,0,0,0,6.25.44Q433.4,628.88,433.4,620.38Z"/><path class="cls-12" d="M523.83,663.45q0,.88-1.22,1.22-1.46.39-9.08.39a61.62,61.62,0,0,1-9-.39,2.63,2.63,0,0,1-2.1-2.2q-1.66-7-2.59-7.52t-13.09-.34q-8.3,0-8.84.44-.83.78-1.86,5.22-.93,4.05-2.25,4.39-1.66.39-11.13.39-7.47,0-7.47-1.42t11-31.2q12-32.37,13-35.6.59-1.85,1.37-1.86,1.32,0,4.08.24t4.13.24q1.32,0,3.88-.17t3.83-.17q.93,0,1.71,1.61,2.39,5.13,14,35.16Q523.83,662.13,523.83,663.45ZM489.21,619q-1,2.15-3.47,9.33-2.64,7.62-2.64,8.94,0,.88,2.93,1,1.51.1,5,.1,3.22,0,3.56-.78a1.91,1.91,0,0,0,.1-.68q0-1.61-2.25-8.89A69.15,69.15,0,0,0,489.21,619Z"/><path class="cls-12" d="M592.53,630a36.59,36.59,0,0,1-9.23,24.9q-8.15,9.42-22.9,9.91-2.83.1-15.58.1-2.39,0-7.2-.15t-7.2-.15q-1.42,0-1.42-1.12,0-5.37.42-16.14t.42-16.14q0-5.61-.42-16.82T529,597.67q0-1,1.42-1.22,3.47-.39,11.38-.39,15,0,19.48.44,11.57,1.17,18.12,5.86a29.69,29.69,0,0,1,9.72,12.3A36.6,36.6,0,0,1,592.53,630Zm-18.7,0q0-8.25-4.93-13.48-5-5.42-13.18-5.42-7.52,0-7.52,2,0,2.88-.1,8.67t-.1,8.67q0,2.83.1,8.52t.1,8.57q0,2.1,7.81,2.1,8.45,0,13.28-5.62Q573.83,638.74,573.83,630Z"/><path class="cls-12" d="M664.5,663.45q0,.88-1.22,1.22-1.46.39-9.08.39a61.62,61.62,0,0,1-9-.39,2.63,2.63,0,0,1-2.1-2.2q-1.66-7-2.59-7.52t-13.09-.34q-8.3,0-8.84.44-.83.78-1.86,5.22-.93,4.05-2.25,4.39-1.66.39-11.13.39-7.47,0-7.47-1.42t11-31.2q12-32.37,13-35.6.59-1.85,1.37-1.86,1.32,0,4.08.24t4.13.24q1.32,0,3.88-.17t3.83-.17q.93,0,1.71,1.61,2.39,5.13,14,35.16Q664.5,662.13,664.5,663.45ZM629.88,619q-1,2.15-3.47,9.33-2.64,7.62-2.64,8.94,0,.88,2.93,1,1.51.1,5,.1,3.22,0,3.56-.78a1.91,1.91,0,0,0,.1-.68q0-1.61-2.25-8.89A69.15,69.15,0,0,0,629.88,619Z"/></g></g></svg>