<?xml version="1.0" encoding="utf-8"?>
<!-- Generator: Adobe Illustrator 26.0.3, SVG Export Plug-In . SVG Version: 6.00 Build 0)  -->
<svg version="1.1" id="Capa_1" xmlns="http://www.w3.org/2000/svg" xmlns:xlink="http://www.w3.org/1999/xlink" x="0px" y="0px"
	 viewBox="0 0 250 250" style="enable-background:new 0 0 250 250;" xml:space="preserve">
<style type="text/css">
	.st0{fill:#003876;}
</style>
<g>
	<path class="st0" d="M228.8,26H21.2C10.1,26,1,35.1,1,46.2v157.5c0,11.1,9.1,20.2,20.2,20.2h207.5c11.1,0,20.2-9.1,20.2-20.2V46.2
		C249,35.1,239.9,26,228.8,26z M232.3,203.9c0,1.9-1.5,3.4-3.4,3.4H21c-1.9,0-3.4-1.5-3.4-3.4V46.1c0-1.9,1.5-3.4,3.4-3.4H229
		c1.9,0,3.4,1.5,3.4,3.4V203.9z"/>
	<circle class="st0" cx="58.3" cy="83.3" r="25"/>
	<path class="st0" d="M215.4,190.9c-60.5,0-120.9,0-181.2,0c-0.5-0.6-0.4-1.3-0.4-1.9c0-7.1,0-14.2,0-21.3c0-1.1,0.3-1.9,1.1-2.7
		c13-13,26-26,39-39c0.4-0.4,0.8-0.7,1.3-1.2c6.9,6.9,13.6,13.7,20.4,20.5c22.1-22.1,44-44,65.6-65.7c1.3,0.1,1.7,0.8,2.2,1.3
		c16.9,16.8,33.7,33.7,50.6,50.5c1.1,1.1,1.6,2.2,1.6,3.8c-0.1,17.7,0,35.4,0,53.1C215.7,189.2,215.9,190,215.4,190.9z"/>
</g>
</svg>
