<?xml version="1.0" encoding="utf-8"?>
<!-- Generator: Adobe Illustrator 26.0.3, SVG Export Plug-In . SVG Version: 6.00 Build 0)  -->
<svg version="1.1" id="Capa_1" xmlns="http://www.w3.org/2000/svg" xmlns:xlink="http://www.w3.org/1999/xlink" x="0px" y="0px"
	 viewBox="0 0 250 250" style="enable-background:new 0 0 250 250;" xml:space="preserve">
<style type="text/css">
	.st0{opacity:0.26;fill:#353535;}
	.st1{fill:url(#SVGID_1_);}
	.st2{fill:#003876;}
	.st3{filter:url(#Adobe_OpacityMaskFilter);}
	.st4{opacity:0.41;mask:url(#SVGID_00000039127194451505671210000008879319249786637192_);}
</style>
<circle class="st0" cx="125" cy="125" r="120.8"/>
<linearGradient id="SVGID_1_" gradientUnits="userSpaceOnUse" x1="40.0485" y1="65.1706" x2="239.4341" y2="205.5934" gradientTransform="matrix(0.9005 0.4348 -0.4348 0.9005 66.7892 -41.9177)">
	<stop  offset="0" style="stop-color:#FFFFFF"/>
	<stop  offset="0.1743" style="stop-color:#D9D9D9"/>
	<stop  offset="0.2688" style="stop-color:#C3C3C3"/>
	<stop  offset="0.3665" style="stop-color:#C7C7C7"/>
	<stop  offset="0.4594" style="stop-color:#D2D2D2"/>
	<stop  offset="0.5501" style="stop-color:#E5E5E5"/>
	<stop  offset="0.6055" style="stop-color:#F5F5F5"/>
	<stop  offset="0.709" style="stop-color:#E1E1E1"/>
	<stop  offset="0.9157" style="stop-color:#B0B0B0"/>
</linearGradient>
<circle class="st1" cx="125" cy="125" r="118.4"/>
<g>
	<g>
		<path class="st2" d="M197.6,118.3L81.7,51.4c-5.1-3-11.6,0.7-11.6,6.7v133.9c0,5.9,6.4,9.6,11.6,6.7l115.9-66.9
			C202.7,128.7,202.7,121.3,197.6,118.3z"/>
	</g>
	<defs>
		<filter id="Adobe_OpacityMaskFilter" filterUnits="userSpaceOnUse" x="70.1" y="50.3" width="131.3" height="149.3">
			
				<feColorMatrix  type="matrix" values="-1 0 0 0 1  0 -1 0 0 1  0 0 -1 0 1  0 0 0 1 0" color-interpolation-filters="sRGB" result="source"/>
		</filter>
	</defs>
	
		<mask maskUnits="userSpaceOnUse" x="70.1" y="50.3" width="131.3" height="149.3" id="SVGID_00000011740229660329025760000014044410401924746372_">
		<g class="st3">
			<image style="overflow:visible;" width="136" height="154" xlink:href="48098F40.jpg"  transform="matrix(1 0 0 1 68 48)">
			</image>
		</g>
	</mask>
	<g style="opacity:0.41;mask:url(#SVGID_00000011740229660329025760000014044410401924746372_);">
		<path d="M197.6,118.3L81.7,51.4c-5.1-3-11.6,0.7-11.6,6.7v133.9c0,5.9,6.4,9.6,11.6,6.7l115.9-66.9
			C202.7,128.7,202.7,121.3,197.6,118.3z"/>
	</g>
</g>
</svg>
