<?xml version="1.0" encoding="utf-8"?>
<!-- Generator: Adobe Illustrator 21.0.0, SVG Export Plug-In . SVG Version: 6.00 Build 0)  -->
<svg version="1.1" id="Layer_1" xmlns="http://www.w3.org/2000/svg" xmlns:xlink="http://www.w3.org/1999/xlink" x="0px" y="0px"
	 width="1980px" height="1980px" viewBox="0 0 1980 1980" style="enable-background:new 0 0 1980 1980;" xml:space="preserve">
<style type="text/css">
	.st0{fill:#ED232A;}
	.st1{fill:#003876;}
</style>
<rect x="446" y="1607.4" class="st0" width="1098.3" height="49.4"/>
<g>
	<path class="st1" d="M1246.8,839l32.6-168.7l-88.6-208.4l-99.2-103.5c0,0-6.4-5-5.8-4.8c159,69.1,277.8,256.6,297.7,483.6
		c0,0.4,0.1,1.3,0.1,1.3L1246.8,839z M1196.2,839.3l-174.5-0.6V362.9c0,0,1.5,1.2,2.2,1.8c102.5,88.2,172.3,264.3,172.3,467.1
		C1196.2,834.4,1196.2,839.3,1196.2,839.3z M1383,838.6l-135.9,0.4c0,0-0.4-16.1-0.7-25.1c0.4,10.5,0.7-31-4.8-83.5
		c-13.1-126.4-51.4-228.6-107.3-316.1c-22.7-35.5-48.2-60.1-48.2-60.1l-0.6-0.8c0,0,13.3,8,20.7,12.7c10.8,7,21.7,14,31.8,21.2
		c36.5,26,67.5,55.5,84,72.4c1.7,1.7,7.4,7.6,13.7,14.6c6.3,7,13.2,15.1,18.2,21.1c20.7,24.9,40.9,53.1,58.8,85.2
		c9.9,17.8,18.2,35.9,25.6,54.1c30.2,74.3,40.8,148.5,44.2,197.5C1382.6,832.2,1383,838.6,1383,838.6z M1382.6,832.3
		C1382.6,832.3,1382.6,832.4,1382.6,832.3C1382.6,832.4,1382.6,832.4,1382.6,832.3z M1450.5,815l-67.2-272l-140.9-150.7
		c0,0-41.7-29.6-65.5-45.8c-9.1-6.2-16.7-10.2-16.7-10.2s0.5,0.2,0.8,0.3c200.3,80.9,343.4,274,351.7,501.4c0,0.2,0,0.6,0,0.6
		L1450.5,815z M1434.5,838.7c0,0-5-55.1-14.8-104.2c-8.4-42-21.7-78.7-23.3-83.2c-8.4-23.8-17.8-50.5-32.4-79.2
		c-26.3-51.8-53.2-100.2-101.5-151.3c-14.8-15.6-31.1-32.2-50.6-48.2c-12.9-10.7-24.3-19-32.6-24.8c4.9,2.9,11.1,6.6,18.8,11
		c14.3,8.2,31.4,18.4,49.7,30.6c8.2,5.5,15.8,11.4,24.3,17.8c1.8,1.4,27.6,21.3,53,45.3c21.2,20.1,41.2,43,54.7,60
		c24.7,30.9,48.3,66.7,68.7,107c23.8,47,39.5,94.8,49,136.8c7.1,31.6,12.6,82.4,12.6,82.4H1434.5z M1383,838.6l-135.9,0.4
		c0,0-0.4-16.1-0.7-25.1c0.4,10.5,0.7-31-4.8-83.5c-13.1-126.4-51.4-228.6-107.3-316.1c-22.7-35.5-48.2-60.1-48.2-60.1l-0.6-0.8
		c0,0,13.3,8,20.7,12.7c10.8,7,21.7,14,31.8,21.2c36.5,26,67.5,55.5,84,72.4c1.7,1.7,7.4,7.6,13.7,14.6c6.3,7,13.2,15.1,18.2,21.1
		c20.7,24.9,40.9,53.1,58.8,85.2c9.9,17.8,18.2,35.9,25.6,54.1c30.2,74.3,40.8,148.5,44.2,197.5C1382.6,832.2,1383,838.6,1383,838.6
		z M1382.6,832.3C1382.6,832.3,1382.6,832.4,1382.6,832.3C1382.6,832.4,1382.6,832.4,1382.6,832.3z M899.1,358.5L799.9,462
		l-88.6,208.5l32.6,168.8L607,838.8c0,0,0.1-0.9,0.1-1.3C627,610.3,745.9,422.8,904.9,353.7C905.5,353.4,899.1,358.5,899.1,358.5z
		 M794.5,839.6c0,0,0-4.9,0-7.4c0-202.9,69.9-379.1,172.3-467.3c0.7-0.6,2.2-1.8,2.2-1.8V839L794.5,839.6z M608.1,832.7L608.1,832.7
		C608.1,832.6,608.1,832.6,608.1,832.7L608.1,832.7C608.1,832.6,608.1,832.6,608.1,832.7z M904.5,354.4c0,0-25.6,24.6-48.2,60.1
		C800.4,502,762.1,604.2,749,730.6c-5.4,52.5-5.1,94-4.8,83.5c-0.3,9-0.7,25.1-0.7,25.1l-135.9-0.4c0,0,0.4-5.6,0.4-6.2
		c0,0,0,0,0-0.1l0,0c3.4-49.1,14-123.2,44.2-197.6c7.4-18.1,15.6-36.3,25.6-54.1c17.9-32.2,38-60.3,58.8-85.2
		c5-6,11.9-14.1,18.2-21.1s12.1-12.9,13.7-14.6c16.5-16.9,47.6-46.4,84-72.4c10.1-7.2,21-14.3,31.8-21.3
		c7.4-4.8,20.7-12.7,20.7-12.7L904.5,354.4z M813.8,346.6c-23.8,16.2-65.5,45.8-65.5,45.8L607.4,543.2l-71.7,295.9l-57.7-0.2
		c0,0,0-0.4,0-0.6c8.3-227.5,151.4-420.6,351.7-501.6c0.3-0.1,0.8-0.3,0.8-0.3S823,340.3,813.8,346.6z M728.3,420.9
		c-48.4,51.1-75.2,99.6-101.5,151.4c-14.6,28.7-24,55.4-32.4,79.2c-1.6,4.5-14.9,41.2-23.3,83.2c-9.8,49.2-14.8,104.3-14.8,104.3
		h-75.4c0,0,5.4-50.8,12.6-82.5c9.5-42,25.2-89.8,49-136.8c20.4-40.3,44-76.2,68.7-107c13.6-17,33.6-39.9,54.7-60
		c25.3-24,51.1-44,53-45.3c8.5-6.4,16.1-12.3,24.3-17.8c18.3-12.3,35.3-22.4,49.7-30.6c7.7-4.4,13.9-8.1,18.8-11
		c-8.3,5.8-19.6,14.2-32.6,24.8C759.4,388.8,743,405.4,728.3,420.9z M608.1,832.7L608.1,832.7C608.1,832.6,608.1,832.6,608.1,832.7
		L608.1,832.7C608.1,832.6,608.1,832.6,608.1,832.7z M904.5,354.4c0,0-25.6,24.6-48.2,60.1C800.4,502,762.1,604.2,749,730.6
		c-5.4,52.5-5.1,94-4.8,83.5c-0.3,9-0.7,25.1-0.7,25.1l-135.9-0.4c0,0,0.4-5.6,0.4-6.2c0,0,0,0,0-0.1l0,0
		c3.4-49.1,14-123.2,44.2-197.6c7.4-18.1,15.6-36.3,25.6-54.1c17.9-32.2,38-60.3,58.8-85.2c5-6,11.9-14.1,18.2-21.1
		s12.1-12.9,13.7-14.6c16.5-16.9,47.6-46.4,84-72.4c10.1-7.2,21-14.3,31.8-21.3c7.4-4.8,20.7-12.7,20.7-12.7L904.5,354.4z
		 M1096.7,166.6H893c-1.9,0-3.4-1.5-3.4-3.4v-7.8c0-1.9,1.5-3.4,3.4-3.4h203.7c1.9,0,3.4,1.5,3.4,3.4v7.8
		C1100.1,165.1,1098.6,166.6,1096.7,166.6z M1096.7,320.4H893c-1.9,0-3.4-1.5-3.4-3.4v-7.8c0-1.9,1.5-3.4,3.4-3.4h203.7
		c1.9,0,3.4,1.5,3.4,3.4v7.8C1100.1,318.9,1098.6,320.4,1096.7,320.4z M1539.5,893.5H451.2c-1.9,0-3.4-1.5-3.4-3.4v-9.2
		c0-1.9,1.5-3.4,3.4-3.4h1088.3c1.9,0,3.4,1.5,3.4,3.4v9.2C1542.9,891.9,1541.4,893.5,1539.5,893.5z M975.9,44.8h-3.2
		c-0.4,0-0.7-0.3-0.7-0.7v-7.9c0-0.4,0.3-0.7,0.7-0.7h3.2c0.4,0,0.7,0.3,0.7,0.7v7.9C976.6,44.5,976.3,44.8,975.9,44.8z
		 M1017.1,44.8h-3.2c-0.4,0-0.7-0.3-0.7-0.7v-7.9c0-0.4,0.3-0.7,0.7-0.7h3.2c0.4,0,0.7,0.3,0.7,0.7v7.9
		C1017.9,44.5,1017.5,44.8,1017.1,44.8z M972,46.5V44h45.8v2.5H972z M996.9,13.5h-3.7c-0.5,0-0.9-0.4-0.9-0.9V4.2
		c0-0.5,0.4-0.9,0.9-0.9h3.7c0.5,0,0.9,0.4,0.9,0.9v8.4C997.8,13.1,997.4,13.5,996.9,13.5z M993.7,66.7V13.5h2.7v53.2H993.7z
		 M916.2,141.9c0,0,0-0.2,0-0.4c0.2-45.3,35.4-81.9,78.8-81.9c43.3,0,78.5,36.5,78.8,81.6c0,0.2,0,0.7,0,0.7H916.2z M1093.9,165.9
		h-198c-3.4,0-6.1-2.7-6.1-6.1v-1.7c0-3.4,2.7-6.1,6.1-6.1h198c3.4,0,6.1,2.7,6.1,6.1v1.7C1100,163.1,1097.3,165.9,1093.9,165.9z
		 M1093.9,320.3h-198c-3.4,0-6.1-2.7-6.1-6.1v-1.7c0-3.4,2.7-6.1,6.1-6.1h198c3.4,0,6.1,2.7,6.1,6.1v1.7
		C1100,317.5,1097.3,320.3,1093.9,320.3z M1005,293.4h-19.8c-3.4,0-6.1-2.7-6.1-6.1v-106c0-3.4,2.7-6.1,6.1-6.1h19.8
		c3.4,0,6.1,2.7,6.1,6.1v105.9C1011.1,290.6,1008.4,293.4,1005,293.4z M1056.5,293.4h-19.8c-3.4,0-6.1-2.7-6.1-6.1v-106
		c0-3.4,2.7-6.1,6.1-6.1h19.8c3.4,0,6.1,2.7,6.1,6.1v105.9C1062.6,290.6,1059.9,293.4,1056.5,293.4z M953.2,293.4h-19.8
		c-3.4,0-6.1-2.7-6.1-6.1v-106c0-3.4,2.7-6.1,6.1-6.1h19.8c3.4,0,6.1,2.7,6.1,6.1v105.9C959.3,290.6,956.5,293.4,953.2,293.4z
		 M1192.1,884.2v-24.1c0-2.8,2.3-5.1,5.1-5.1h48.1c2.8,0,5.1,2.3,5.1,5.1v22.4L1192.1,884.2z M1244.3,969.9h-46.1
		c-3.4,0-6.1-2.7-6.1-6.1v-46.1c0-3.4,2.7-6.1,6.1-6.1h46.1c3.4,0,6.1,2.7,6.1,6.1v46.1C1250.4,967.2,1247.7,969.9,1244.3,969.9z
		 M1378.5,884.2v-24.1c0-2.8,2.3-5.1,5.1-5.1h48.1c2.8,0,5.1,2.3,5.1,5.1v22.4L1378.5,884.2z M1430.7,969.9h-46.1
		c-3.4,0-6.1-2.7-6.1-6.1v-46.1c0-3.4,2.7-6.1,6.1-6.1h46.1c3.4,0,6.1,2.7,6.1,6.1v46.1C1436.8,967.2,1434.1,969.9,1430.7,969.9z
		 M740,882.4V860c0-2.8,2.3-5.1,5.1-5.1h48.1c2.8,0,5.1,2.3,5.1,5.1v24.1L740,882.4z M792.2,969.9h-46.1c-3.4,0-6.1-2.7-6.1-6.1
		v-46.1c0-3.4,2.7-6.1,6.1-6.1h46.1c3.4,0,6.1,2.7,6.1,6.1v46.1C798.4,967.2,795.6,969.9,792.2,969.9z M553.5,882.4V860
		c0-2.8,2.3-5.1,5.1-5.1h48.1c2.8,0,5.1,2.3,5.1,5.1v24.1L553.5,882.4z M605.8,969.9h-46.1c-3.4,0-6.1-2.7-6.1-6.1v-46.1
		c0-3.4,2.7-6.1,6.1-6.1h46.1c3.4,0,6.1,2.7,6.1,6.1v46.1C611.9,967.2,609.2,969.9,605.8,969.9z M966,882.4V860
		c0-2.8,2.3-5.1,5.1-5.1h48.1c2.8,0,5.1,2.3,5.1,5.1v24.1L966,882.4z M1018.3,969.9h-46.1c-3.4,0-6.1-2.7-6.1-6.1v-46.1
		c0-3.4,2.7-6.1,6.1-6.1h46.1c3.4,0,6.1,2.7,6.1,6.1v46.1C1024.4,967.2,1021.7,969.9,1018.3,969.9z M1536.8,893.3H454
		c-3.4,0-6.1-2.7-6.1-6.1v-3.6c0-3.4,2.7-6.1,6.1-6.1h1082.8c3.4,0,6.1,2.7,6.1,6.1v3.6C1542.9,890.6,1540.2,893.3,1536.8,893.3z
		 M1536.8,1021.5H453.9c-3.4,0-6.1-2.7-6.1-6.1v-25.6c0-3.4,2.7-6.1,6.1-6.1h1082.9c3.4,0,6.1,2.7,6.1,6.1v25.6
		C1542.9,1018.7,1540.2,1021.5,1536.8,1021.5z"/>
</g>
<g>
	<path class="st1" d="M445,1158.6v-0.2c0-20,14.7-37.8,36.6-37.8c12.3,0,19.9,3.6,27.3,9.7l-5.3,6.3c-5.6-4.9-11.9-8.4-22.2-8.4
		c-16.2,0-27.8,13.7-27.8,30v0.2c0,17.4,11.2,30.4,28.9,30.4c8.4,0,16.1-3.2,21.1-7.3v-18.2h-22.2v-7.4h30.2v29.1
		c-6.8,6.1-17,11.2-29.3,11.2C459.2,1196.1,445,1179.4,445,1158.6z"/>
	<path class="st1" d="M538.7,1158.6v-0.2c0-20.2,15.1-37.8,37.4-37.8c22.2,0,37.2,17.4,37.2,37.6v0.2c0,20.2-15.1,37.8-37.4,37.8
		C553.7,1196.1,538.7,1178.7,538.7,1158.6z M604.7,1158.6v-0.2c0-16.6-12.1-30.2-28.8-30.2s-28.6,13.4-28.6,30v0.2
		c0,16.6,12.1,30.2,28.8,30.2S604.7,1175.2,604.7,1158.6z"/>
	<path class="st1" d="M642.6,1121.8h31.1c8.4,0,14.9,2.4,19.1,6.5c3,3.1,4.7,7,4.7,11.7v0.2c0,9.5-5.8,14.4-11.6,16.9
		c8.7,2.6,15.7,7.6,15.7,17.6v0.2c0,12.5-10.5,19.9-26.5,19.9h-32.5V1121.8z M672.4,1154.4c9.9,0,16.8-4.5,16.8-13.1v-0.2
		c0-7.2-5.7-11.9-16.2-11.9h-22.2v25.2H672.4z M675.3,1187.5c11.1,0,18-4.9,18-13.1v-0.2c0-7.9-6.7-12.5-19.4-12.5h-23.1v25.8
		L675.3,1187.5L675.3,1187.5z"/>
	<path class="st1" d="M730.7,1121.8h8.2v73.1h-8.2V1121.8z"/>
	<path class="st1" d="M772.2,1121.8H825v7.5h-44.6v25h39.9v7.5h-39.9v25.6h45.1v7.5h-53.4v-73.1H772.2z"/>
	<path class="st1" d="M854.1,1121.8h31.4c9,0,16.2,2.7,20.8,7.3c3.6,3.6,5.6,8.7,5.6,14.4v0.2c0,12.1-8.4,19.2-19.8,21.3l22.4,29.9
		h-10.1l-21.2-28.4h-20.9v28.4h-8.2V1121.8z M884.8,1159.1c11,0,18.8-5.6,18.8-15v-0.2c0-9-6.9-14.4-18.7-14.4h-22.6v29.7
		L884.8,1159.1L884.8,1159.1z"/>
	<path class="st1" d="M941.5,1121.8h7.7l46,58.6v-58.6h8v73.1h-6.6l-47.2-59.9v59.9h-8L941.5,1121.8L941.5,1121.8z"/>
	<path class="st1" d="M1032.6,1158.6v-0.2c0-20.2,15.1-37.8,37.4-37.8c22.2,0,37.2,17.4,37.2,37.6v0.2c0,20.2-15.1,37.8-37.4,37.8
		C1047.5,1196.1,1032.6,1178.7,1032.6,1158.6z M1098.6,1158.6v-0.2c0-16.6-12.1-30.2-28.8-30.2c-16.7,0-28.6,13.4-28.6,30v0.2
		c0,16.6,12.1,30.2,28.8,30.2C1086.7,1188.5,1098.6,1175.2,1098.6,1158.6z"/>
	<path class="st1" d="M1179.7,1121.8h25.4c23,0,38.8,15.8,38.8,36.3v0.2c0,20.6-15.9,36.5-38.8,36.5h-25.4V1121.8z M1205.1,1187.3
		c18.5,0,30.3-12.5,30.3-28.7v-0.2c0-16.2-11.8-28.9-30.3-28.9H1188v57.8L1205.1,1187.3L1205.1,1187.3z"/>
	<path class="st1" d="M1273.3,1121.8h52.8v7.5h-44.6v25h39.9v7.5h-39.9v25.6h45.1v7.5h-53.4L1273.3,1121.8L1273.3,1121.8z"/>
	<path class="st1" d="M1398.4,1121.8h8.2v65.5h41.1v7.6h-49.4v-73.1H1398.4z"/>
	<path class="st1" d="M1501.9,1121.3h7.7l33.3,73.6h-8.9l-8.6-19.3h-39.8l-8.7,19.3h-8.5L1501.9,1121.3z M1522.3,1168.2l-16.6-37.3
		l-16.7,37.3H1522.3z"/>
</g>
<g>
	<path class="st1" d="M616.2,1349c0.5,0,0.8,0.6,0.7,1.8c-0.1,1.2-0.3,1.9-0.8,2.1c-3.1,0.8-6.2,1.3-9.4,1.5s-6.5-0.5-10-2.2
		s-6.5-4.1-9.1-7.3l-20.8-26.8c-2.7-3.5-5.8-5.8-9.1-6.9c-3.4-1.1-7.7-1.7-13.2-1.8v26.3c0,4.3,1.3,7.3,3.7,8.9s6.3,2.7,11.4,3.3
		c0.3,0,0.4,0.4,0.4,1.2c0,0.8-0.1,1.6-0.3,2.4s-0.5,1.2-0.8,1.2h-41.1c-0.3,0-0.7-0.4-0.9-1.2c-0.3-0.8-0.4-1.6-0.4-2.4
		s0.2-1.2,0.5-1.2c3.7-0.5,6.5-1.7,8.4-3.4c1.9-1.8,2.8-4.7,2.8-8.7v-60.4c0-4.2-0.9-7.2-2.8-9.1c-1.9-1.9-4.7-3.3-8.4-4.3
		c-0.5-0.2-0.7-1.1-0.5-2.6s0.6-2.2,1.2-2.2c4.2,0.5,9.5,0.8,15.6,0.9c3.6,0,8.4-0.1,14.3-0.4c5.9-0.3,9.8-0.4,11.7-0.4
		c10.5,0,18.8,2.1,25,6.4c6.1,4.3,9.2,10.5,9.2,18.6c0,7.3-2.4,13.1-7.2,17.3c-4.8,4.2-10.4,6.5-16.9,6.8v0.7c2.7,0,5.2,0.7,7.4,2.1
		s4.9,3.9,7.9,7.6l20.2,25.3C608.5,1346.7,612.3,1348.9,616.2,1349L616.2,1349z M548.5,1302.9c10.4,0,17.7-1.2,21.8-3.6
		s6.1-6.9,6.1-13.5c0-6.9-2-12.3-5.9-16s-9-5.6-15.3-5.6c-3.9,0-6.6,0.9-8.2,2.5s-2.4,4.4-2.4,8.3v27.9L548.5,1302.9L548.5,1302.9z"
		/>
	<path class="st1" d="M638.5,1352.3c-0.6,0.1-1-0.7-1.3-2.2c-0.3-1.6-0.1-2.4,0.4-2.6c2.7-0.7,4.6-1.3,5.8-1.6
		c1.1-0.3,2.5-1,4.2-1.9s2.8-2.2,3.4-3.7c0.6-1.5,0.9-3.5,0.9-6v-60.2c0-3.9-1-6.7-3-8.5s-4.8-3.1-8.4-4c-0.5-0.1-0.7-0.9-0.5-2.4
		s0.6-2.2,1.2-2.2c5,0.5,16.7,0.8,35.1,0.9c3.6,0,7.2-0.1,10.8-0.2s7.4-0.3,11.6-0.4c4.2-0.1,7.5-0.3,10-0.3c1.5,0,2.4,0.5,2.8,1.5
		c0.3,1,0.3,2.2-0.2,3.8l-3.2,12.9c-0.2,0.9-0.9,1.3-2.1,1.3c-1.2,0-1.9-0.5-2.2-1.3c-1.1-3.6-3.2-6.3-6.4-7.9
		c-3.2-1.7-8.7-2.5-16.7-2.5c-4.7,0-7.9,0.7-9.8,2.1c-1.9,1.4-2.8,3.8-2.8,7.3v22.1c0,1.7,0.4,2.8,1.1,3.4c0.7,0.6,1.9,0.9,3.4,0.9
		h3c12.8,0,21.5-2.1,26-6.1c0.7-0.7,1.6-0.9,2.5-0.6s1.1,1.1,0.6,2.4l-7.7,17.1c-0.5,1.2-1.2,1.8-2.1,1.8c-0.9,0-1.7-0.5-2.4-1.7
		c-2.9-4-8.9-6.1-17.9-6.1h-1.9c-1.5,0-2.6,0.3-3.4,0.9c-0.7,0.6-1.1,1.7-1.1,3.4v22.7c0,3.9,1.1,6.6,3.1,8.2
		c2.1,1.6,5.8,2.4,11.3,2.4c15.1,0,25.7-4.8,31.9-14.5c0.5-0.8,1.3-1,2.6-0.7s2,1.1,2,2.2c0,4-1.4,8.5-4.2,13.3s-6.2,7.2-10.1,7.2
		c-10.1-0.5-18.9-0.8-26.4-0.8c-20.8,0-34,0.3-39.5,0.8h-0.4V1352.3z"/>
	<path class="st1" d="M825.8,1286.1c0,11.7-4.9,20.2-14.7,25.4c-9.8,5.2-22.4,6.7-37.8,4.4v19.5c0,4.3,1.3,7.3,3.7,8.9
		s6.3,2.7,11.4,3.3c0.3,0,0.4,0.4,0.4,1.2s-0.1,1.6-0.3,2.4s-0.5,1.2-0.8,1.2h-41.1c-0.3,0-0.7-0.4-0.9-1.2
		c-0.3-0.8-0.4-1.6-0.4-2.4s0.2-1.2,0.5-1.2c3.7-0.5,6.5-1.7,8.4-3.4s2.8-4.7,2.8-8.7V1275c0-4.2-0.9-7.2-2.8-9.1
		c-1.9-1.9-4.7-3.3-8.4-4.3c-0.5-0.2-0.7-1.1-0.5-2.6s0.6-2.2,1.2-2.2c4.2,0.5,9.5,0.8,15.6,0.9c3.6,0,8.3-0.1,13.9-0.4
		c5.6-0.3,9.5-0.4,11.5-0.4c11.4,0,20.7,2.3,27.7,7s10.5,12,10.5,22L825.8,1286.1L825.8,1286.1z M775.6,1266.6
		c-1.5,1.6-2.3,4.4-2.3,8.5v34.3c11.7,1.7,20.5,0.9,26.3-2.3c5.8-3.2,8.7-9.1,8.7-17.7c0-7.9-2.2-14-6.7-18.5
		c-4.5-4.4-10.3-6.7-17.5-6.7C780,1264.2,777.1,1265,775.6,1266.6z"/>
	<path class="st1" d="M904.3,1354.3c-5.1,0-9.9-0.7-14.5-2.1s-8.9-3.5-12.8-6.3c-4-2.8-7.1-6.7-9.5-11.8c-2.4-5-3.6-10.8-3.6-17.5
		v-42.5c0-4-0.9-6.9-2.8-8.7c-1.9-1.8-4.6-2.9-8.2-3.4c-0.3,0-0.5-0.4-0.5-1.2c0-0.8,0.1-1.6,0.4-2.4c0.3-0.8,0.6-1.2,0.9-1.2h37
		c0.3,0,0.7,0.4,0.9,1.2s0.4,1.6,0.4,2.4s-0.2,1.2-0.5,1.2c-3.4,0.5-6,1.5-7.9,3.2s-2.9,4.6-2.9,8.9v43.2c0,9.1,2.3,16,6.9,20.7
		c4.6,4.7,10.8,7,18.4,7c7.7,0,14.1-2.4,19-7.1c5-4.8,7.5-11.6,7.5-20.6V1274c0-4-1-6.9-3-8.7c-2-1.8-4.9-2.9-8.7-3.4
		c-0.3,0-0.4-0.4-0.4-1.2c0-0.8,0.1-1.6,0.3-2.4s0.5-1.2,0.8-1.2H952c0.3,0,0.5,0.4,0.8,1.2c0.3,0.8,0.4,1.6,0.4,2.4
		s-0.2,1.2-0.5,1.2c-3.4,0.5-6,1.5-7.9,3.2s-2.9,4.6-2.9,8.9v42.4c0,12.1-3.4,21.4-10.4,28C924.6,1350.9,915.5,1354.3,904.3,1354.3
		L904.3,1354.3z M903.6,1223.5c0.7-1.1,2.2-1.1,4.4,0.2c2.2,1.3,4.1,2.9,5.6,5s1.7,3.4,0.7,4.2l-17.8,13.4c-0.9,0.7-2.1,0.3-3.6-1.2
		c-1.6-1.5-2-2.7-1.5-3.6L903.6,1223.5z"/>
	<path class="st1" d="M1036.5,1300.4c6.7,0,12.5,2.2,17.4,6.7c4.9,4.4,7.3,10.3,7.3,17.5c0,8.4-3.4,15.1-10.4,20.1
		c-6.9,5-16.1,7.5-27.4,7.5c-1.9,0-5.5-0.1-10.8-0.4s-9.7-0.4-13.4-0.4c-9.2,0-16.3,0.3-21.2,0.8c-0.6,0.1-1-0.7-1.3-2.2
		c-0.3-1.6-0.1-2.4,0.4-2.6c2.7-0.7,4.6-1.3,5.8-1.6c1.1-0.3,2.5-1,4.2-1.9s2.8-2.2,3.4-3.7c0.6-1.5,0.9-3.5,0.9-6V1274
		c0-3.9-1-6.7-3-8.5s-4.8-3.1-8.4-4c-0.5-0.1-0.7-0.9-0.5-2.4s0.6-2.2,1.2-2.2c4.4,0.5,9.9,0.8,16.3,0.9c4,0,8.7-0.1,14.2-0.4
		s9-0.4,10.5-0.4c9.2,0,16.8,1.9,22.8,5.8c6,3.8,9.1,9.3,9.1,16.5c0.1,5.4-1.5,9.9-4.8,13.5c-3.2,3.6-7.3,6-12.3,6.9v0.9V1300.4z
		 M1022.8,1345.3c6.6,0,11.8-1.3,15.4-3.9s5.5-7.2,5.5-13.8c0-7.2-2.1-12.8-6.3-16.8c-4.2-4-9.6-6-16.2-6h-14v29.3
		c0,3.9,1.2,6.7,3.6,8.5c2.4,1.8,6.4,2.6,12.1,2.6h-0.1V1345.3z M1009.5,1266.2c-1.4,1.5-2.1,4-2.1,7.8v24.1h14
		c10.3,0,15.4-5.1,15.5-15.3c0-6.2-1.9-10.8-5.5-14s-8.4-4.8-14.3-4.8C1013.4,1264,1010.9,1264.7,1009.5,1266.2z"/>
	<path class="st1" d="M1087.8,1352.3c-0.6,0.1-1-0.7-1.3-2.2c-0.3-1.6-0.1-2.4,0.4-2.6c2.7-0.7,4.6-1.3,5.8-1.6
		c1.1-0.3,2.5-1,4.2-1.9s2.8-2.2,3.4-3.7s0.9-3.5,0.9-6V1274c0-3-0.6-5.4-1.8-7.1c-1.2-1.8-2.5-3-4-3.6s-3.3-1.1-5.6-1.4
		c-0.3,0-0.5-0.4-0.5-1.2c0-0.8,0.1-1.6,0.4-2.4s0.5-1.2,0.9-1.2h37.4c0.3,0,0.5,0.4,0.8,1.2c0.3,0.8,0.4,1.6,0.3,2.4
		s-0.2,1.2-0.5,1.2c-3.4,0.5-6.2,1.5-8.1,3.2s-3,4.6-3,8.9v60.2c0,3.9,1.1,6.6,3.1,8.2c2.1,1.6,5.8,2.4,11.3,2.4
		c15.1,0,25.7-4.8,31.9-14.5c0.5-0.8,1.3-1,2.6-0.7s2,1.1,2,2.2c0,4-1.4,8.5-4.2,13.3c-2.8,4.8-6.2,7.2-10.1,7.2
		c-10.1-0.5-18.9-0.8-26.4-0.8c-20.8,0-34,0.3-39.5,0.8L1087.8,1352.3z"/>
	<path class="st1" d="M1193,1352.2c-0.3,0-0.7-0.4-0.9-1.2c-0.3-0.8-0.4-1.6-0.4-2.4s0.2-1.2,0.5-1.2c3.7-0.5,6.5-1.7,8.4-3.4
		c1.9-1.8,2.8-4.7,2.8-8.7V1274c0-4-0.9-6.9-2.8-8.7c-1.9-1.8-4.7-2.9-8.4-3.4c-0.3,0-0.5-0.4-0.5-1.2c0-0.8,0.1-1.6,0.4-2.4
		s0.6-1.2,0.9-1.2h37.2c0.3,0,0.7,0.4,0.9,1.2c0.3,0.8,0.4,1.6,0.4,2.4s-0.2,1.2-0.5,1.2c-3.5,0.5-6.3,1.5-8.3,3.2s-3,4.6-3,8.9
		v61.2c0,4.3,1,7.3,3,8.9s4.8,2.7,8.3,3.2c0.3,0,0.5,0.4,0.5,1.2c0,0.8-0.1,1.6-0.4,2.4s-0.6,1.2-0.9,1.2H1193V1352.2z"/>
	<path class="st1" d="M1312.3,1354.5c-4.8,0-9.6-0.5-14.3-1.6c-4.8-1.1-9.5-2.8-14.3-5.4c-4.8-2.5-8.9-5.6-12.6-9.1
		c-3.6-3.6-6.6-8.1-8.9-13.6c-2.2-5.5-3.4-11.5-3.4-18.1c0-6.2,1-12.2,2.9-18s4.9-11.3,8.9-16.4s9.5-9.2,16.5-12.3
		c7-3.1,15-4.7,24.1-4.7c5.2,0,10,0.5,14.5,1.4s7.9,2.1,10.4,3.6c2.4,1.5,3.4,3,2.8,4.5l-1.8,5.3c-0.9,2.8-1.9,4.5-2.9,5.2
		c-1.1,0.7-2.5,0.5-4.3-0.3c-1.8-0.9-3.7-1.9-5.8-3.2s-5-2.6-8.9-3.8c-3.8-1.3-7.9-1.9-12.2-1.9c-9.5,0-16.6,2.8-21.5,8.5
		s-7.3,13.6-7.3,23.5c0,7.3,1.3,13.9,3.9,19.6c2.6,5.8,6,10.2,10.1,13.6s8.6,5.8,13.4,7.5s9.6,2.6,14.5,2.6c2,0,5.4-0.6,10.1-1.7
		c4.8-1.1,8.7-2.7,11.7-4.7c0.5-0.3,1.3,0,2.2,1.1c1,1.1,1.3,1.9,1,2.5c-2.6,3.8-7.3,7.3-14,10.7c-6.7,3.4-11.4,5-14.2,5
		L1312.3,1354.5z"/>
	<path class="st1" d="M1464.9,1347.5c0.9,0.2,1.3,1,1.1,2.4c-0.1,1.5-0.6,2.2-1.4,2.2h-35.8c-0.9,0-1.3-0.7-1.4-2.2s0.3-2.2,1-2.4
		c1.5-0.3,2.8-0.6,3.7-1c0.9-0.4,1.9-1.1,2.7-2.1c0.9-1,1.2-2.4,1-4.3s-0.9-4.2-2.1-7l-1.5-3.4c-0.6-1.5-1.5-2.5-2.6-2.9
		s-2.8-0.6-5.1-0.6h-27.6c-2.2,0-3.9,0.2-5,0.6s-2,1.4-2.6,2.9l-1.3,3.4c-1.2,2.8-1.9,5.1-1.9,6.9c-0.1,1.9,0.3,3.3,1.3,4.3
		c0.9,1,1.9,1.7,3,2.1s2.6,0.7,4.6,1c0.9,0.2,1.3,1,1.1,2.4c-0.1,1.5-0.7,2.2-1.6,2.2h-29.2c-0.8,0-1.3-0.7-1.4-2.2s0.2-2.2,1.1-2.4
		c3.1-0.5,5.6-1.7,7.5-3.5s4-5.4,6.3-10.8l22.9-52.5c4.6-10.4,6.9-17.9,6.9-22.6c0-0.5,1.6-1.1,4.8-1.7c3.2-0.7,4.9-0.8,5.1-0.3
		l33,77c2.3,5.4,4.4,9.1,6.3,11C1459.7,1345.8,1462.1,1347,1464.9,1347.5L1464.9,1347.5z M1423.6,1318.7c0.7,0,1.3-0.1,1.9-0.1
		c0.5-0.1,0.9-0.3,1.3-0.6s0.4-0.8,0.1-1.5l-15.9-37.9l-16,37.9c-0.3,0.8-0.2,1.3,0.5,1.7c0.7,0.3,1.6,0.5,2.7,0.5h25.6H1423.6z"/>
</g>
<g>
	<path class="st1" d="M431.7,1510.8c-0.6,0.1-1-0.7-1.3-2.2c-0.3-1.6-0.1-2.4,0.4-2.6c2.7-0.7,4.6-1.3,5.8-1.6
		c1.1-0.3,2.5-1,4.2-1.9s2.8-2.2,3.4-3.7s0.9-3.5,0.9-6v-60.2c0-3.9-1-6.7-3-8.5s-4.8-3.1-8.4-4c-0.5-0.1-0.7-0.9-0.5-2.4
		s0.6-2.2,1.2-2.2c4.4,0.5,10.1,0.8,16.9,0.9c3.8,0,8.7-0.1,14.8-0.4c6.1-0.3,10.1-0.4,12.1-0.4c15.9,0,28.4,4.2,37.2,12.7
		c8.9,8.5,13.3,19.4,13.3,32.9c0,8.9-1.9,17-5.6,24.4c-3.8,7.4-9.6,13.5-17.5,18.3c-7.9,4.8-17.1,7.1-27.6,7.1
		c-1.9,0-5.6-0.1-11.2-0.4s-10.1-0.4-13.8-0.4c-9.2,0-16.3,0.3-21.2,0.8L431.7,1510.8z M479.3,1503.8c22,0,33-11.6,32.9-34.8
		c0-13.4-3.4-24.4-10.3-33.1s-16.2-13.1-28-13.1c-4.7,0-8,0.7-9.9,2.2s-2.8,4-2.8,7.5v60.2c0,3.7,1.5,6.5,4.3,8.3s7.5,2.7,13.9,2.7
		v0.1H479.3z"/>
	<path class="st1" d="M606.9,1512.9c-14.1,0-25.7-4.6-35-14c-9.3-9.3-13.9-21-13.9-35.1c0-14,4.6-25.8,13.7-35.5
		c9.1-9.7,21-14.5,35.5-14.5c14.2,0,25.9,4.6,35.1,13.9c9.2,9.3,13.8,20.9,13.8,35s-4.6,26-13.7,35.7
		C633.3,1508.1,621.5,1512.9,606.9,1512.9L606.9,1512.9z M611.9,1503.8c3.2,0,6.4-0.6,9.5-1.7s6-2.9,8.9-5.4c2.9-2.4,5.2-6,6.9-10.5
		c1.7-4.6,2.6-9.9,2.6-15.9c0-13.4-3.8-24.6-11.5-33.7s-16.5-13.6-26.6-13.6c-3.2,0-6.3,0.5-9.4,1.7c-3,1.1-6,2.9-8.8,5.4
		c-2.8,2.4-5.1,5.9-6.8,10.4s-2.6,9.8-2.6,15.9c0,13.4,3.8,24.7,11.5,33.7s16.5,13.6,26.5,13.6L611.9,1503.8z"/>
	<path class="st1" d="M804,1506.1c0.3,0,0.5,0.4,0.5,1.2c0,0.8-0.1,1.6-0.4,2.4c-0.3,0.8-0.5,1.2-0.9,1.2H768
		c-0.3,0-0.5-0.4-0.8-1.2c-0.3-0.8-0.4-1.5-0.4-2.2s0.1-1.1,0.5-1.3c6.7-1.1,9.9-5.2,9.5-12.2l-2.6-45.5l-22,44.7
		c-3.1,6.2-4.9,10.8-5.4,14c-0.3,1.7-2,2.4-5.2,2.4c-2,0-3.4-0.8-4.2-2.4l-31.3-59.3L704,1494c-0.3,7.3,2.9,11.4,9.5,12.2
		c0.3,0,0.5,0.4,0.5,1.2s-0.1,1.6-0.4,2.4c-0.3,0.8-0.5,1.2-0.8,1.2h-28c-0.3,0-0.7-0.4-0.9-1.2c-0.3-0.8-0.4-1.6-0.4-2.4
		s0.2-1.2,0.5-1.2c3.4-0.3,6.1-1.4,8-3.1s3-4.8,3.2-9.1l4.4-77.8c0.1-1.2,1-1.8,2.8-1.8s3,0.6,3.8,1.7l39.3,73.5l36.4-73.5
		c0.6-1.2,1.9-1.8,3.8-1.8c1.9,0,2.9,0.6,3,1.7l4.4,77.8c0.3,4.3,1.3,7.3,3.2,9.1c1.9,1.7,4.6,2.8,7.9,3.1L804,1506.1z"/>
	<path class="st1" d="M831.9,1510.8c-0.3,0-0.7-0.4-0.9-1.2c-0.3-0.8-0.4-1.6-0.4-2.4s0.2-1.2,0.5-1.2c3.7-0.5,6.5-1.7,8.4-3.4
		c1.9-1.8,2.8-4.7,2.8-8.7v-61.2c0-4-0.9-6.9-2.8-8.7c-1.9-1.8-4.7-2.9-8.4-3.4c-0.3,0-0.5-0.4-0.5-1.2c0-0.8,0.1-1.6,0.4-2.4
		c0.3-0.8,0.6-1.2,0.9-1.2h37.2c0.3,0,0.7,0.4,0.9,1.2c0.3,0.8,0.4,1.6,0.4,2.4s-0.2,1.2-0.5,1.2c-3.5,0.5-6.3,1.5-8.3,3.2
		s-3,4.6-3,8.9v61.2c0,4.3,1,7.3,3,8.9s4.8,2.7,8.3,3.2c0.3,0,0.5,0.4,0.5,1.2c0,0.8-0.1,1.6-0.4,2.4c-0.3,0.8-0.6,1.2-0.9,1.2
		H831.9L831.9,1510.8z"/>
	<path class="st1" d="M985.9,1512.1c-1.8,0-3.4-0.9-5-2.5l-64.5-67.5v51.4c0,2.2,0.3,4.1,0.9,5.6c0.6,1.5,1.6,2.6,3,3.6
		c1.4,0.9,2.6,1.6,3.8,2s3,0.9,5.5,1.5c0.5,0.2,0.7,1,0.5,2.4c-0.2,1.5-0.7,2.2-1.3,2.2h-32.1c-0.5,0-0.9-0.7-1.2-2.2
		s-0.1-2.2,0.5-2.4c4.2-1.5,6.9-2.7,8.1-3.8c2-1.9,3-4.8,3-8.8V1441c0-8.1-1.7-14.4-5-18.9c-0.3-0.3-0.5-0.7-0.9-1.1
		c-0.3-0.4-0.6-0.7-0.9-1c-0.3-0.3-0.5-0.5-0.6-0.7s-0.2-0.3-0.2-0.5c0-0.7,0.3-1.4,0.7-2.1c0.5-0.7,1.1-1,2-1h10.1
		c1.5,0,2.5,0.4,3.2,1.3l63.1,66.7v-50.9c0-2.2-0.3-4.1-0.9-5.6c-0.6-1.5-1.7-2.6-3.2-3.6c-1.6-0.9-2.8-1.5-3.8-1.9
		c-0.9-0.3-2.6-0.8-5.2-1.4c-0.5-0.2-0.7-1-0.5-2.4c0.2-1.5,0.7-2.2,1.3-2.2h32.1c0.5,0,0.9,0.7,1.2,2.2s0.1,2.2-0.5,2.4
		c-2.2,0.6-3.6,1.1-4.4,1.4c-0.8,0.3-1.9,0.9-3.2,1.9c-1.3,0.9-2.2,2.1-2.7,3.6s-0.7,3.3-0.7,5.6v52.7c0,11.9,0.5,19.8,1.6,23.9
		c0.3,0.9,0,1.5-0.7,1.9s-1.7,0.6-3,0.6L985.9,1512.1z"/>
	<path class="st1" d="M1027.3,1510.8c-0.3,0-0.7-0.4-0.9-1.2c-0.3-0.8-0.4-1.6-0.4-2.4s0.2-1.2,0.5-1.2c3.7-0.5,6.5-1.7,8.4-3.4
		s2.8-4.7,2.8-8.7v-61.2c0-4-0.9-6.9-2.8-8.7c-1.9-1.8-4.7-2.9-8.4-3.4c-0.3,0-0.5-0.4-0.5-1.2c0-0.8,0.1-1.6,0.4-2.4
		s0.6-1.2,0.9-1.2h37.2c0.3,0,0.7,0.4,0.9,1.2c0.3,0.8,0.4,1.6,0.4,2.4s-0.2,1.2-0.5,1.2c-3.5,0.5-6.3,1.5-8.3,3.2s-3,4.6-3,8.9
		v61.2c0,4.3,1,7.3,3,8.9s4.8,2.7,8.3,3.2c0.3,0,0.5,0.4,0.5,1.2c0,0.8-0.1,1.6-0.4,2.4s-0.6,1.2-0.9,1.2H1027.3L1027.3,1510.8z"/>
	<path class="st1" d="M1146.6,1513.1c-4.8,0-9.6-0.5-14.3-1.6c-4.8-1.1-9.5-2.8-14.3-5.4c-4.8-2.5-8.9-5.6-12.6-9.1
		c-3.6-3.6-6.6-8.1-8.9-13.6c-2.2-5.5-3.4-11.5-3.4-18.1c0-6.2,1-12.2,2.9-18s4.9-11.3,8.9-16.4s9.5-9.2,16.5-12.3
		c7-3.1,15-4.7,24.1-4.7c5.2,0,10,0.5,14.5,1.4s7.9,2.1,10.4,3.6c2.4,1.5,3.4,3,2.8,4.5l-1.8,5.3c-0.9,2.8-1.9,4.5-2.9,5.2
		c-1.1,0.7-2.5,0.5-4.3-0.3c-1.8-0.9-3.7-1.9-5.8-3.2c-2.1-1.3-5-2.6-8.9-3.8c-3.8-1.3-7.9-1.9-12.2-1.9c-9.5,0-16.6,2.8-21.5,8.5
		s-7.3,13.6-7.3,23.5c0,7.3,1.3,13.9,3.9,19.6s6,10.2,10.1,13.6s8.6,5.8,13.4,7.5s9.6,2.6,14.5,2.6c2,0,5.4-0.6,10.1-1.7
		c4.8-1.1,8.7-2.7,11.7-4.7c0.5-0.3,1.3,0,2.2,1.1c1,1.1,1.3,1.9,1,2.5c-2.6,3.8-7.3,7.3-14,10.7c-6.7,3.4-11.4,5-14.2,5
		L1146.6,1513.1z"/>
	<path class="st1" d="M1299.3,1506.1c0.9,0.2,1.3,1,1.1,2.4c-0.1,1.5-0.6,2.2-1.4,2.2h-35.8c-0.9,0-1.3-0.7-1.4-2.2s0.3-2.2,1-2.4
		c1.5-0.3,2.8-0.6,3.7-1c0.9-0.4,1.9-1.1,2.7-2.1c0.9-1,1.2-2.4,1-4.3s-0.9-4.2-2.1-7l-1.5-3.4c-0.6-1.5-1.5-2.5-2.6-2.9
		s-2.8-0.6-5.1-0.6h-27.6c-2.2,0-3.9,0.2-5,0.6s-2,1.4-2.6,2.9l-1.3,3.4c-1.2,2.8-1.9,5.1-1.9,6.9c-0.1,1.9,0.3,3.3,1.3,4.3
		c0.9,1,1.9,1.7,3,2.1s2.6,0.7,4.6,1c0.9,0.2,1.3,1,1.1,2.4c-0.1,1.5-0.7,2.2-1.6,2.2h-29.2c-0.8,0-1.3-0.7-1.4-2.2s0.2-2.2,1.1-2.4
		c3.1-0.5,5.6-1.7,7.5-3.5s4-5.4,6.3-10.8l22.9-52.5c4.6-10.4,6.9-17.9,6.9-22.6c0-0.5,1.6-1.1,4.8-1.7c3.2-0.7,4.9-0.8,5.1-0.3
		l33,77c2.3,5.4,4.4,9.1,6.3,11C1294,1504.4,1296.4,1505.6,1299.3,1506.1L1299.3,1506.1z M1257.9,1477.4c0.7,0,1.3-0.1,1.9-0.1
		c0.5-0.1,0.9-0.3,1.3-0.6s0.4-0.8,0.1-1.5l-15.9-37.9l-16,37.9c-0.3,0.8-0.2,1.3,0.5,1.7c0.7,0.3,1.6,0.5,2.7,0.5h25.6H1257.9z"/>
	<path class="st1" d="M1414,1512.1c-1.8,0-3.4-0.9-5-2.5l-64.5-67.5v51.4c0,2.2,0.3,4.1,0.9,5.6s1.6,2.6,3,3.6
		c1.4,0.9,2.6,1.6,3.8,2c1.2,0.4,3,0.9,5.5,1.5c0.5,0.2,0.7,1,0.5,2.4c-0.2,1.5-0.7,2.2-1.3,2.2h-32.1c-0.5,0-0.9-0.7-1.2-2.2
		c-0.3-1.5-0.1-2.2,0.5-2.4c4.2-1.5,6.9-2.7,8.1-3.8c2-1.9,3-4.8,3-8.8V1441c0-8.1-1.7-14.4-5-18.9c-0.3-0.3-0.5-0.7-0.9-1.1
		s-0.6-0.7-0.9-1s-0.5-0.5-0.6-0.7s-0.2-0.3-0.2-0.5c0-0.7,0.3-1.4,0.7-2.1c0.5-0.7,1.1-1,2-1h10.1c1.5,0,2.5,0.4,3.2,1.3l63.1,66.7
		v-50.9c0-2.2-0.3-4.1-0.9-5.6s-1.7-2.6-3.2-3.6c-1.6-0.9-2.8-1.5-3.8-1.9c-0.9-0.3-2.6-0.8-5.2-1.4c-0.5-0.2-0.7-1-0.5-2.4
		c0.2-1.5,0.7-2.2,1.3-2.2h32.1c0.5,0,0.9,0.7,1.2,2.2c0.3,1.5,0.1,2.2-0.5,2.4c-2.2,0.6-3.6,1.1-4.4,1.4s-1.9,0.9-3.2,1.9
		c-1.3,0.9-2.2,2.1-2.7,3.6s-0.7,3.3-0.7,5.6v52.7c0,11.9,0.5,19.8,1.6,23.9c0.3,0.9,0,1.5-0.7,1.9s-1.7,0.6-3,0.6L1414,1512.1z"/>
	<path class="st1" d="M1549.2,1506.1c0.9,0.2,1.3,1,1.1,2.4c-0.1,1.5-0.6,2.2-1.4,2.2h-35.8c-0.9,0-1.3-0.7-1.4-2.2s0.3-2.2,1-2.4
		c1.5-0.3,2.8-0.6,3.7-1c0.9-0.4,1.9-1.1,2.7-2.1c0.9-1,1.2-2.4,1-4.3s-0.9-4.2-2.1-7l-1.5-3.4c-0.6-1.5-1.5-2.5-2.6-2.9
		s-2.8-0.6-5.1-0.6h-27.6c-2.2,0-3.9,0.2-5,0.6s-2,1.4-2.6,2.9l-1.3,3.4c-1.2,2.8-1.9,5.1-1.9,6.9c-0.1,1.9,0.3,3.3,1.3,4.3
		c0.9,1,1.9,1.7,3,2.1s2.6,0.7,4.6,1c0.9,0.2,1.3,1,1.1,2.4c-0.1,1.5-0.7,2.2-1.6,2.2h-29.2c-0.8,0-1.3-0.7-1.4-2.2s0.2-2.2,1.1-2.4
		c3.1-0.5,5.6-1.7,7.5-3.5s4-5.4,6.3-10.8l22.9-52.5c4.6-10.4,6.9-17.9,6.9-22.6c0-0.5,1.6-1.1,4.8-1.7c3.2-0.7,4.9-0.8,5.1-0.3
		l33,77c2.3,5.4,4.4,9.1,6.3,11C1544,1504.4,1546.4,1505.6,1549.2,1506.1L1549.2,1506.1z M1507.9,1477.4c0.7,0,1.3-0.1,1.9-0.1
		c0.5-0.1,0.9-0.3,1.3-0.6s0.4-0.8,0.1-1.5l-15.9-37.9l-16,37.9c-0.3,0.8-0.2,1.3,0.5,1.7c0.7,0.3,1.6,0.5,2.7,0.5h25.6H1507.9z"/>
</g>
<g>
	<path class="st0" d="M481.5,1932.9c-0.5,0-1.1-0.6-1.6-1.9c-0.5-1.3-0.7-2.4-0.7-3.4s0.4-1.6,0.9-1.9c8.8-1.2,15.1-2.9,19.2-5.2
		c4.1-2.3,6.2-6.3,6.2-11.9v-109.2c0-2.8-0.5-4.7-1.6-5.8c-1.1-1.1-2.9-1.6-5.6-1.6h-6.1c-20.5,0-32.9,4.9-37.4,14.5
		c-1.2,2.4-3.3,3.4-6.2,2.9c-2.1-0.5-2.9-1.5-2.4-3c2.4-10.2,4.3-19,5.2-26.7c0.1-1.9,0.6-3.2,1.6-3.4c1-0.4,2.7-0.4,5.1,0
		c9.4,1,30,1.5,61.6,1.5c35.2,0,57.7-0.5,67.6-1.5c2.4-0.4,4.4-0.4,5.5,0c1.2,0.4,1.5,1.5,0.9,3.4c-3.4,10.6-5.6,19.5-6.8,26.7
		c-0.4,1.9-1.5,2.9-3.7,2.9c-2.2,0-3.4-1-3.9-2.8c-2.3-9.6-12.5-14.5-30.9-14.6h-6.9c-5.7,0-8.6,2.4-8.6,7.3v109.2
		c0,5.6,2.1,9.5,6.2,11.8c4.1,2.3,10.6,4,19.4,5.2c0.5,0.4,0.9,1,0.9,2.1c0,1.1-0.2,2.3-0.7,3.5c-0.5,1.3-1.1,1.9-1.7,1.9h-75.3
		L481.5,1932.9z"/>
	<path class="st0" d="M771.9,1927.8c0.9,0,1.3,1,1.2,2.9c-0.1,1.9-0.5,3-1.3,3.4c-5.1,1.3-10.2,2.1-15.3,2.4
		c-5.2,0.4-10.6-0.9-16.3-3.5c-5.7-2.7-10.7-6.7-14.9-12.1l-34.1-43.8c-4.4-5.7-9.4-9.5-15-11.3c-5.5-1.8-12.7-2.8-21.6-2.9v43
		c0,7.1,2.1,11.9,6.1,14.5s10.2,4.4,18.8,5.4c0.5,0,0.6,0.6,0.6,1.9c0,1.3-0.2,2.6-0.5,3.9c-0.4,1.3-0.7,1.9-1.3,1.9H611
		c-0.5,0-1.1-0.6-1.5-1.9c-0.5-1.3-0.6-2.6-0.6-3.9c0-1.3,0.4-1.9,0.9-1.9c6.1-0.9,10.6-2.7,13.8-5.6c3.2-2.9,4.6-7.7,4.6-14.2
		v-98.8c0-6.8-1.5-11.8-4.6-14.9c-3.2-3-7.7-5.4-13.8-7.1c-0.9-0.4-1.1-1.7-0.7-4.3c0.4-2.4,1-3.7,1.9-3.5
		c6.9,0.9,15.5,1.3,25.6,1.5c6,0,13.8-0.2,23.4-0.6c9.6-0.5,16-0.6,19.1-0.6c17.2,0,30.8,3.4,40.9,10.5c10.1,7.1,15,17.2,15,30.6
		c0,12.1-3.9,21.4-11.8,28.4c-7.9,6.9-17.1,10.6-27.6,11.2v1.1c4.4,0,8.4,1.1,12.2,3.4c3.7,2.3,8,6.3,12.9,12.4l33,41.4
		c6,7.4,12.2,11.2,18.5,11.2H771.9z M661.2,1852.4c16.9,0,28.9-1.9,35.6-5.8c6.7-3.9,10.1-11.2,10.1-22c0-11.3-3.3-20.1-9.6-26.2
		c-6.3-6.1-14.7-9.1-25-9.1c-6.3,0-10.8,1.5-13.4,4.1c-2.6,2.7-3.9,7.3-3.9,13.6v45.7h6.3L661.2,1852.4z"/>
	<path class="st0" d="M947.5,1925.4c1.5,0.4,2.1,1.6,1.8,4s-1,3.5-2.3,3.5h-58.6c-1.5,0-2.2-1.2-2.3-3.5c-0.1-2.4,0.5-3.7,1.6-4
		c2.4-0.5,4.5-1,6.1-1.6c1.5-0.6,3-1.8,4.4-3.4c1.5-1.6,1.9-4,1.6-7.1c-0.4-3-1.5-6.8-3.4-11.4l-2.4-5.5c-1-2.4-2.4-4.1-4.3-4.7
		c-1.8-0.6-4.6-1-8.3-1h-45.2c-3.7,0-6.3,0.4-8.3,1c-1.8,0.6-3.3,2.3-4.4,4.7l-2.2,5.5c-1.9,4.5-3,8.3-3.2,11.3s0.5,5.4,2.1,7.1
		c1.5,1.6,3.2,2.7,5,3.4c1.8,0.6,4.4,1.2,7.4,1.6c1.5,0.4,2.1,1.6,1.8,4c-0.2,2.4-1.1,3.5-2.6,3.5h-47.9c-1.3,0-2.1-1.2-2.3-3.5
		c-0.2-2.4,0.4-3.7,1.7-4c5.1-0.9,9.3-2.8,12.2-5.7c3-2.9,6.5-8.9,10.2-17.8l37.5-85.9c7.4-16.9,11.2-29.4,11.2-37
		c0-0.7,2.6-1.7,7.8-2.8c5.2-1.1,8-1.3,8.3-0.5l54,126.1c3.8,8.9,7.3,14.9,10.4,17.9C938.9,1922.6,942.8,1924.5,947.5,1925.4
		L947.5,1925.4z M879.8,1878.3c1.2,0,2.2-0.1,3-0.2c0.9-0.1,1.5-0.5,2.1-1c0.5-0.5,0.6-1.3,0.2-2.4l-25.9-62l-26.2,62
		c-0.5,1.3-0.4,2.2,0.7,2.7c1.1,0.5,2.6,0.7,4.4,0.7h41.9L879.8,1878.3z"/>
	<path class="st0" d="M1059.3,1848.4c11,0,20.5,3.7,28.5,11c8,7.3,12.1,16.8,12.1,28.6c0,13.8-5.6,24.7-16.9,32.9
		c-11.3,8.3-26.3,12.3-44.9,12.3c-3.2,0-9-0.2-17.7-0.6c-8.6-0.5-16-0.6-21.8-0.6c-15,0-26.7,0.5-34.7,1.3c-1,0.1-1.6-1.1-2.1-3.7
		s-0.2-4,0.6-4.4c4.4-1.2,7.6-2.1,9.4-2.6c1.8-0.5,4.1-1.6,6.8-3.2c2.7-1.5,4.5-3.5,5.5-6.1c1-2.4,1.5-5.7,1.5-9.7v-98.4
		c0-6.3-1.6-11.1-4.9-14c-3.3-2.9-7.8-5.1-13.8-6.5c-0.9-0.1-1.1-1.5-0.7-3.9c0.4-2.4,1-3.7,1.9-3.5c7.3,0.9,16.1,1.3,26.7,1.5
		c6.5,0,14.2-0.2,23.3-0.6c9-0.5,14.7-0.6,17.2-0.6c15,0,27.5,3.2,37.4,9.4c9.9,6.3,14.9,15.2,15,26.9c0.1,8.8-2.4,16.1-7.8,22
		c-5.4,6-12.1,9.7-20.1,11.3v1.5L1059.3,1848.4z M1037,1921.7c10.8,0,19.2-2.2,25.2-6.3c6-4.3,9-11.8,9-22.7
		c0-11.8-3.4-20.9-10.2-27.5c-6.8-6.5-15.7-9.7-26.5-9.7h-22.9v48c0,6.3,1.9,11.1,5.8,14c3.9,2.9,10.5,4.4,19.9,4.4h-0.2V1921.7z
		 M1015.2,1792.2c-2.3,2.4-3.4,6.6-3.4,12.8v39.5h22.8c16.8,0,25.2-8.3,25.3-25.1c0-10.1-3-17.8-9-22.9c-6-5.2-13.8-7.8-23.4-7.8
		C1021.6,1788.7,1017.4,1789.9,1015.2,1792.2z"/>
	<path class="st0" d="M1283.2,1925.4c1.5,0.4,2.1,1.6,1.8,4c-0.2,2.4-1,3.5-2.3,3.5h-58.6c-1.5,0-2.2-1.2-2.3-3.5
		c-0.1-2.4,0.5-3.7,1.6-4c2.4-0.5,4.5-1,6.1-1.6c1.5-0.6,3-1.8,4.4-3.4c1.5-1.6,1.9-4,1.6-7.1c-0.4-3-1.5-6.8-3.4-11.4l-2.4-5.5
		c-1-2.4-2.4-4.1-4.3-4.7c-1.8-0.6-4.6-1-8.3-1h-45.2c-3.7,0-6.3,0.4-8.3,1c-1.8,0.6-3.3,2.3-4.4,4.7l-2.2,5.5
		c-1.9,4.5-3,8.3-3.2,11.3c-0.1,3,0.5,5.4,2.1,7.1c1.5,1.6,3.2,2.7,5,3.4c1.8,0.6,4.4,1.2,7.4,1.6c1.5,0.4,2.1,1.6,1.8,4
		c-0.2,2.4-1.1,3.5-2.6,3.5h-47.9c-1.3,0-2.1-1.2-2.3-3.5c-0.2-2.4,0.4-3.7,1.7-4c5.1-0.9,9.3-2.8,12.2-5.7c3-2.9,6.5-8.9,10.2-17.8
		l37.5-85.9c7.4-16.9,11.2-29.4,11.2-37c0-0.7,2.6-1.7,7.8-2.8c5.2-1.1,8-1.3,8.3-0.5l54,126.1c3.8,8.9,7.3,14.9,10.4,17.9
		C1274.7,1922.6,1278.6,1924.5,1283.2,1925.4L1283.2,1925.4z M1215.6,1878.3c1.2,0,2.2-0.1,3-0.2c0.9-0.1,1.5-0.5,2.1-1
		c0.5-0.5,0.6-1.3,0.2-2.4l-25.9-62l-26.2,62c-0.5,1.3-0.4,2.2,0.7,2.7c1.1,0.5,2.6,0.7,4.4,0.7h41.9L1215.6,1878.3z"/>
	<path class="st0" d="M1301.4,1980.3c-1,0-1.8-0.6-2.7-1.9c-0.9-1.3-1.3-2.4-1.5-3.5c-0.1-1.1,0.1-1.7,0.6-2.1
		c5.6-0.5,10.5-4.1,14.5-10.6c4-6.5,6.1-15.8,6.1-27.9v-129.7c0-7.1-1.6-11.9-4.9-14.6s-7.8-4.4-13.5-5.2c-0.5,0-0.9-0.6-0.9-1.8
		s0.2-2.4,0.6-3.4c0.5-1.1,1-1.6,1.5-1.6h60.8c0.5,0,1.1,0.5,1.5,1.6c0.5,1.1,0.6,2.3,0.6,3.4c0,1.1-0.4,1.7-0.9,1.7
		c-5.7,0.7-10.2,2.4-13.5,5.2c-3.3,2.7-4.9,7.6-4.9,14.6V1934c0,10.6-5.2,20.9-15.6,31.2s-19.7,15.2-28,15.2L1301.4,1980.3z"/>
	<path class="st0" d="M1465.4,1936.4c-23,0-42.1-7.6-57.2-22.8c-15.1-15.2-22.8-34.5-22.8-57.5c0-22.8,7.4-42.1,22.4-58.1
		s34.3-23.7,58.1-23.7c23.3,0,42.4,7.6,57.5,22.8c15,15.1,22.7,34.2,22.7,57.2s-7.4,42.5-22.4,58.5
		C1508.7,1928.5,1489.4,1936.4,1465.4,1936.4L1465.4,1936.4z M1473.7,1921.6c5.4,0,10.5-1,15.5-2.8c5-1.8,9.9-4.7,14.6-8.8
		c4.7-4,8.5-9.7,11.3-17.2c2.8-7.4,4.3-16.1,4.3-25.9c0-21.8-6.3-40.3-18.9-55c-12.5-14.9-27-22.3-43.5-22.3
		c-5.4,0-10.4,0.9-15.3,2.7s-9.7,4.7-14.4,8.8c-4.6,4-8.3,9.6-11.2,16.9c-2.8,7.3-4.3,16-4.3,25.9c0,21.9,6.3,40.3,18.9,55.2
		c12.5,14.9,27,22.3,43.4,22.3L1473.7,1921.6z"/>
</g>
</svg>
