<?xml version="1.0" encoding="utf-8"?>
<!-- Generator: Adobe Illustrator 21.0.0, SVG Export Plug-In . SVG Version: 6.00 Build 0)  -->
<svg version="1.1" id="Layer_1" xmlns="http://www.w3.org/2000/svg" xmlns:xlink="http://www.w3.org/1999/xlink" x="0px" y="0px"
	 viewBox="0 0 260 260" style="enable-background:new 0 0 260 260;" xml:space="preserve">
<style type="text/css">
	.st0{fill:#DDDDDD;}
</style>
<g>
	<g>
		<path class="st0" d="M279.2,181.1c0-0.5,0-1,0-1.5c0-0.7-0.2-1-1-1s-1.6,0-2.3,0c-1.1,0-2.2,0-3.3,0c0-6.8,0-13.4,0-20.2
			c0.2,0,0.5,0,0.7,0c1.6,0,3.3,0,4.9,0c0.8,0,1-0.2,1-1c0-0.4,0-0.7,0-1.1c0-1-0.2-1.2-1.2-1.2c-3.7,0-7.4,0-11,0
			c-0.4,0-0.6-0.1-0.9-0.3c-1.6-1.6-3.2-3.2-4.8-4.7c-1.2-1.1-2.5-1.7-4.1-1.7c-3.2,0-6.5,0-9.7,0c-1.1,0-2.2,0.2-3.2,0.9
			c-0.3,0.2-0.5,0.2-0.7,0c-0.9-0.6-2-0.9-3.1-0.9c-2.2,0-4.3,0-6.5,0c-1.7,0-3.1,0.6-4.3,1.8c-1.5,1.5-3,3-4.5,4.5
			c-0.3,0.3-0.6,0.5-1.1,0.5c-2.8,0-5.5,0-8.3,0c-1,0-2,0-3,0c-0.6,0-0.9,0.3-0.9,0.9c0,0.5,0,1,0,1.5c0,0.7,0.2,1,1,1
			c1.2,0,2.3,0,3.5,0c0.7,0,1.4,0,2.1,0c0,6.8,0,13.5,0,20.2c-0.4,0-0.8,0-1.2,0c-1.4,0-2.8,0-4.3,0c-1,0-1.2,0.2-1.2,1.2
			c0,0.4,0,0.7,0,1.1c0,0.8,0.3,1.1,1.1,1.1c1.8,0,3.7,0,5.5,0c1.2,0,2.2-0.5,2.9-1.4c0.4-0.5,0.6-1.2,0.6-1.9c1,0,2,0,3,0
			c0.4,0,0.6,0.1,0.9,0.4c2.5,2.5,5.1,4.9,7.6,7.3c0.5,0.5,1.1,1,1.8,1.3c3.1,1.6,6.1,1.4,9-0.6c0.3-0.2,0.5-0.2,0.7,0
			c0.1,0.1,0.3,0.2,0.4,0.4c1.7,1.6,5.2,1.6,7.1,0c1.1-1,1.9-2.1,2.8-3.2c0.3-0.3,0.5-0.4,0.9-0.2c1.9,0.8,4.1,0.4,5.5-1.1
			c1.1-1.2,2.3-2.5,2.5-4.2c1.7,0,3.4,0,5.1,0c0,0.1,0.1,0.1,0.1,0.2c0.3,1.8,1.2,2.8,3,3c2.1,0.2,4.1,0.1,6.2,0.1
			C278.9,182,279.2,181.7,279.2,181.1z M260.4,179.1c-0.3,0.5-0.7,1-1.2,1.4c-0.6,0.6-1.5,0.7-2.3,0.2c-0.6-0.5-1.2-1-1.9-1.5
			c-0.9,1.1-1.7,2.1-2.5,3.1c-0.6,0.7-1.2,1.5-1.8,2.2c-0.8,1-2.1,1.1-3.2,0.3c-0.5-0.4-1-0.9-1.6-1.3c-0.5-0.4-1-0.9-1.6-1.3
			c-0.5,0.3-0.7,0.8-1.1,1.2c-1.6,1.8-3.9,2.4-6,1.6c-0.5-0.2-1-0.5-1.4-0.9c-2.9-2.8-5.8-5.6-8.7-8.4c-0.3-0.3-0.6-0.4-1.1-0.4
			c-1.4,0-2.7,0-4.2,0c0-5.6,0-11.2,0-16.9c1.2,0,2.3,0,3.4,0c0.4,0,0.7-0.1,1-0.4c1.8-1.9,3.7-3.7,5.6-5.6c0.5-0.5,1.1-0.8,1.8-0.8
			c2.1,0,4.3,0,6.4,0c0.2,0,0.5-0.1,0.6,0.2s-0.2,0.4-0.3,0.5c-1.9,1.8-3.9,3.5-5.8,5.3c-3.2,3.1-3.2,7.9,0.1,10.7
			c2.6,2.2,6.5,2.8,9.6,0c0.8-0.7,1.6-1.5,2.5-2.2c2.2,1.7,4.3,3.4,6.4,5.2c2.1,1.7,4.2,3.4,6.3,5.1c0.2,0.2,0.5,0.4,0.7,0.6
			C260.7,177.6,260.8,178.4,260.4,179.1z M269.1,175.2c-0.2,0.2-0.5,0.1-0.7,0.1c-1.6,0-3.1,0-4.7,0c-0.4,0-0.7-0.1-1-0.5
			c-1-1.1-2.2-1.9-3.4-2.9c-3.1-2.5-6.2-5-9.3-7.6c-0.2-0.2-0.4-0.3-0.7-0.6c0.8-0.7,1.5-1.4,2.2-2.1c0.3-0.2,0.5-0.5,0.8-0.7
			c0.7-0.7,0.7-1.7,0-2.4c-0.6-0.6-1.6-0.7-2.3-0.1c-0.8,0.7-1.5,1.4-2.3,2.1c-1.8,1.7-3.6,3.3-5.4,5c-1.5,1.4-3.5,1.5-5,0.5
			c-1.9-1.3-2.2-4.2-0.5-5.9c1.8-1.8,3.7-3.4,5.6-5.1c1.1-1,2.1-1.9,3.2-2.9c0.4-0.4,0.8-0.5,1.3-0.5c3.5,0,6.9,0,10.4,0
			c0.6,0,1.1,0.2,1.5,0.6c1.8,1.8,3.7,3.6,5.5,5.4c0.5,0.5,1,0.8,1.7,0.7c1-0.1,2,0,3.1,0C269.1,164.1,269.1,169.6,269.1,175.2z"/>
		<path class="st0" d="M277.6,171.9c-1,0-1.7,0.7-1.7,1.6c0,0.9,0.8,1.7,1.7,1.7c1,0,1.7-0.7,1.7-1.7
			C279.2,172.6,278.5,171.9,277.6,171.9z"/>
		<path class="st0" d="M213.5,175.2c0.9,0,1.7-0.8,1.7-1.7s-0.8-1.7-1.7-1.7c-1,0-1.6,0.7-1.6,1.7
			C211.8,174.5,212.5,175.2,213.5,175.2z"/>
	</g>
</g>
<g>
	<g>
		<path class="st0" d="M23,181.1c0-0.5,0-1,0-1.5c0-0.7-0.2-1-1-1s-1.6,0-2.3,0c-1.1,0-2.2,0-3.3,0c0-6.8,0-13.4,0-20.2
			c0.2,0,0.5,0,0.7,0c1.6,0,3.3,0,4.9,0c0.8,0,1-0.2,1-1c0-0.4,0-0.7,0-1.1c0-1-0.2-1.2-1.2-1.2c-3.7,0-7.4,0-11,0
			c-0.4,0-0.6-0.1-0.9-0.3c-1.6-1.6-3.2-3.2-4.8-4.7c-1.2-1.1-2.5-1.7-4.1-1.7c-3.2,0-6.5,0-9.7,0c-1.1,0-2.2,0.2-3.2,0.9
			c-0.3,0.2-0.5,0.2-0.7,0c-0.9-0.6-2-0.9-3.1-0.9c-2.2,0-4.3,0-6.5,0c-1.7,0-3.1,0.6-4.3,1.8c-1.5,1.5-3,3-4.5,4.5
			c-0.3,0.3-0.6,0.5-1.1,0.5c-2.8,0-5.5,0-8.3,0c-1,0-2,0-3,0c-0.6,0-0.9,0.3-0.9,0.9c0,0.5,0,1,0,1.5c0,0.7,0.2,1,1,1
			c1.2,0,2.3,0,3.5,0c0.7,0,1.4,0,2.1,0c0,6.8,0,13.5,0,20.2c-0.4,0-0.8,0-1.2,0c-1.4,0-2.8,0-4.3,0c-1,0-1.2,0.2-1.2,1.2
			c0,0.4,0,0.7,0,1.1c0,0.8,0.3,1.1,1.1,1.1c1.8,0,3.7,0,5.5,0c1.2,0,2.2-0.5,2.9-1.4c0.4-0.5,0.6-1.2,0.6-1.9c1,0,2,0,3,0
			c0.4,0,0.6,0.1,0.9,0.4c2.5,2.5,5.1,4.9,7.6,7.3c0.5,0.5,1.1,1,1.8,1.3c3.1,1.6,6.1,1.4,9-0.6c0.3-0.2,0.5-0.2,0.7,0
			c0.1,0.1,0.3,0.2,0.4,0.4c1.7,1.6,5.2,1.6,7.1,0c1.1-1,1.9-2.1,2.8-3.2c0.3-0.3,0.5-0.4,0.9-0.2c1.9,0.8,4.1,0.4,5.5-1.1
			c1.1-1.2,2.3-2.5,2.5-4.2c1.7,0,3.4,0,5.1,0c0,0.1,0.1,0.1,0.1,0.2c0.3,1.8,1.2,2.8,3,3c2.1,0.2,4.1,0.1,6.2,0.1
			C22.7,182,23,181.7,23,181.1z M4.2,179.1c-0.3,0.5-0.7,1-1.2,1.4c-0.6,0.6-1.5,0.7-2.3,0.2c-0.6-0.5-1.2-1-1.9-1.5
			c-0.9,1.1-1.7,2.1-2.5,3.1c-0.6,0.7-1.2,1.5-1.8,2.2c-0.8,1-2.1,1.1-3.2,0.3c-0.5-0.4-1-0.9-1.6-1.3c-0.5-0.4-1-0.9-1.6-1.3
			c-0.5,0.3-0.7,0.8-1.1,1.2c-1.6,1.8-3.9,2.4-6,1.6c-0.5-0.2-1-0.5-1.4-0.9c-2.9-2.8-5.8-5.6-8.7-8.4c-0.3-0.3-0.6-0.4-1.1-0.4
			c-1.4,0-2.7,0-4.2,0c0-5.6,0-11.2,0-16.9c1.2,0,2.3,0,3.4,0c0.4,0,0.7-0.1,1-0.4c1.8-1.9,3.7-3.7,5.6-5.6c0.5-0.5,1.1-0.8,1.8-0.8
			c2.1,0,4.3,0,6.4,0c0.2,0,0.5-0.1,0.6,0.2s-0.2,0.4-0.3,0.5c-1.9,1.8-3.9,3.5-5.8,5.3c-3.2,3.1-3.2,7.9,0.1,10.7
			c2.6,2.2,6.5,2.8,9.6,0c0.8-0.7,1.6-1.5,2.5-2.2c2.2,1.7,4.3,3.4,6.4,5.2c2.1,1.7,4.2,3.4,6.3,5.1c0.2,0.2,0.5,0.4,0.7,0.6
			C4.5,177.6,4.6,178.4,4.2,179.1z M12.9,175.2c-0.2,0.2-0.5,0.1-0.7,0.1c-1.6,0-3.1,0-4.7,0c-0.4,0-0.7-0.1-1-0.5
			c-1-1.1-2.2-1.9-3.4-2.9c-3.1-2.5-6.2-5-9.3-7.6c-0.2-0.2-0.4-0.3-0.7-0.6c0.8-0.7,1.5-1.4,2.2-2.1c0.3-0.2,0.5-0.5,0.8-0.7
			c0.7-0.7,0.7-1.7,0-2.4c-0.6-0.6-1.6-0.7-2.3-0.1c-0.8,0.7-1.5,1.4-2.3,2.1c-1.8,1.7-3.6,3.3-5.4,5c-1.5,1.4-3.5,1.5-5,0.5
			c-1.9-1.3-2.2-4.2-0.5-5.9c1.8-1.8,3.7-3.4,5.6-5.1c1.1-1,2.1-1.9,3.2-2.9c0.4-0.4,0.8-0.5,1.3-0.5c3.5,0,6.9,0,10.4,0
			c0.6,0,1.1,0.2,1.5,0.6c1.8,1.8,3.7,3.6,5.5,5.4c0.5,0.5,1,0.8,1.7,0.7c1-0.1,2,0,3.1,0C12.9,164.1,12.9,169.6,12.9,175.2z"/>
		<path class="st0" d="M21.4,171.9c-1,0-1.7,0.7-1.7,1.6c0,0.9,0.8,1.7,1.7,1.7c1,0,1.7-0.7,1.7-1.7C23,172.6,22.3,171.9,21.4,171.9
			z"/>
		<path class="st0" d="M-42.7,175.2c0.9,0,1.7-0.8,1.7-1.7s-0.8-1.7-1.7-1.7c-1,0-1.6,0.7-1.6,1.7
			C-44.4,174.5-43.7,175.2-42.7,175.2z"/>
	</g>
</g>
<g>
	<g>
		<path class="st0" d="M139.8,38c-2.2-1.3-4.5-1.6-6.9-0.9c-2.3,0.7-4.7,0.8-7,0c-1.3-0.4-2.6-0.4-4-0.2c-3.6,0.5-6.4,3.4-6.9,7.1
			c-0.2,1.6-0.1,3.2-0.1,4.9c0,0.3,0,0.5,0.1,0.8c0.7,1.5,1.8,2.5,3.6,2.5c3.6,0,7.1,0,10.8,0l0,0c3.6,0,7.1,0,10.8,0
			c1.8,0,3.5-1.4,3.6-3.2c0.1-1.6,0.2-3.4-0.1-5C143.3,41.3,142,39.3,139.8,38z M141.3,48.4c0,0.7-0.5,1.2-1.2,1.2
			c-0.1,0-0.3,0-0.5,0c-3.4,0-6.9,0-10.3,0c-3.5,0-6.9,0-10.4,0c-1.2,0-1.6-0.4-1.6-1.6c0-1.2-0.1-2.5,0.1-3.7
			c0.4-3.2,2.8-5.3,6-5.2c1.1,0,2.1,0.4,3.2,0.6c2.2,0.5,4.3,0.4,6.4-0.2c1.4-0.4,2.7-0.5,4.1-0.1c2.6,0.8,4,2.9,4.2,5.3
			C141.3,46,141.3,47.2,141.3,48.4z"/>
		<path class="st0" d="M129.3,35.3c4.7,0,8.4-3.8,8.4-8.4s-3.7-8.4-8.3-8.4c-4.7-0.1-8.5,3.7-8.5,8.4
			C120.9,31.4,124.6,35.2,129.3,35.3z M129.4,20.9c3.4,0.1,6,2.7,6,6c-0.1,3.4-2.7,6-6.1,6c-3.3-0.1-6-2.8-5.9-6
			C123.4,23.5,126.1,20.8,129.4,20.9z"/>
		<path class="st0" d="M112.6,32.9c3.3,0,6-2.7,6-6c0-3.3-2.7-6-6-6c-3.3,0-6,2.7-6,6C106.5,30.1,109.2,32.9,112.6,32.9z
			 M112.6,23.3c2,0,3.6,1.6,3.6,3.6s-1.6,3.6-3.6,3.6c-2,0-3.6-1.6-3.6-3.6C109,24.9,110.6,23.2,112.6,23.3z"/>
		<path class="st0" d="M146.1,32.9c3.3,0,6-2.7,6-6s-2.7-6-6-6c-3.3,0-6,2.7-6,6S142.8,32.8,146.1,32.9z M146.1,23.3
			c2,0,3.6,1.6,3.6,3.6c0,1.9-1.6,3.6-3.6,3.6c-1.9,0-3.6-1.6-3.6-3.6C142.5,24.9,144.1,23.3,146.1,23.3z"/>
		<path class="st0" d="M148.2,35.3c-1.2-0.1-2.5-0.1-3.7-0.1c-1,0-2.1,0.3-2.9,1c0.5,0.4,1,0.7,1.4,1.2c0.3,0.4,0.6,0.5,1.2,0.3
			c0.2-0.1,0.4-0.1,0.6-0.1c0.9,0,1.7,0.1,2.6,0c1.8-0.1,3.2,1.2,3.5,2.7c0.1,0.3,0.1,0.6,0.1,1c0.1,0.7,0.5,1.1,1.2,1.1
			c0.6,0,1.1-0.4,1.2-1C153.5,38.5,151.1,35.5,148.2,35.3z"/>
		<path class="st0" d="M115.3,37.8c0.5-0.5,1.1-1,1.8-1.6c-0.8-0.5-1.5-0.8-2.4-0.9c-1.2-0.1-2.4-0.1-3.6-0.1
			c-3.3,0.1-5.8,2.7-5.7,6c0,0.5,0.4,1,1,1.1c0.6,0.1,1.2-0.2,1.4-0.8c0.1-0.2,0.1-0.5,0.1-0.8c0.1-1.8,1.6-3.4,3.4-3.3
			c0.7,0,1.4,0,2.1,0c0.6,0,1.2-0.1,1.8,0.2C115.1,37.9,115.2,37.9,115.3,37.8z"/>
	</g>
</g>
<g>
	<g>
		<path class="st0" d="M164.4,224.8c0.4-0.6,1.1-1,1.7-1.5c-9.4,0-18.7,0-28,0c0-0.2,0-0.3,0-0.5c0-1.8,0-3.6,0-5.4
			c0-1,0.4-1.5,1.5-1.5c2.8,0,5.5,0,8.3,0c7.8,0,15.5,0,23.3,0c0.9,0,1.4,0.5,1.4,1.4c0,1,0,2,0,3.1c0,0.2-0.1,0.3,0.1,0.4
			c0.8,0,1.6,0,2.4,0c0-0.7,0-1.4,0-2c0-0.8,0.1-1.4-0.1-2.2c-0.3-1.9-1.8-3.1-3.8-3.1c-2.7,0-5.3,0-8.1,0c-0.3,0-0.5-0.1-0.5-0.5
			c0-1.6,0-3.3,0-4.9c0-1.1-0.8-2-2-2c-2.8,0.1-5.6,0-8.4,0c-0.9,0-1.9,0-2.7,0c-0.6,0-1.4,0.6-1.5,1.4c-0.1,1,0,2.1-0.1,3.1
			c0,0.9,0,1.9,0,2.8c-0.2,0.1-0.3,0.1-0.5,0.1c-2.6,0-5.3,0.1-8,0c-2.1-0.1-3.9,1.8-3.9,3.9c0.1,2.8,0,5.7,0,8.5
			c0,3.6,0,7.3,0,10.9c0,0.4,0,0.8,0.2,1.3c0.6,1.6,2,2.5,3.6,2.5c7.3,0,14.6,0,21.9,0c0.1,0,0.3,0,0.4,0c-0.3-0.7-0.7-1.4-0.8-2
			c-0.1-0.3-0.3-0.4-0.6-0.4c-7,0-13.8,0-20.8,0c-1.1,0-1.5-0.4-1.5-1.5c0-3.5,0-7,0-10.4c0-0.2-0.1-0.3,0.1-0.4c4.1,0,8.1,0,12.3,0
			c0,1,0,2,0,2.9c0,1.3,0.8,2,2,2c1.9,0,3.8,0,5.7,0c1.4,0,2.1-0.7,2.1-2.1c0-0.9,0-1.9,0-2.8c0.6,0,1.1-0.1,1.7,0
			C163,225.9,163.8,225.6,164.4,224.8z M150.5,208.5c3.3,0,6.5,0,9.8,0c0,1.7,0,3.2,0,4.8c-0.3,0.1-9.1,0.1-9.8,0
			C150.5,211.8,150.5,210.2,150.5,208.5z M157.8,228.2c-1.6,0-3.2,0-4.9,0c0-0.8,0-1.6,0-2.5c1.6,0,3.2,0,4.9,0
			C157.8,226.6,157.8,227.4,157.8,228.2z"/>
		<path class="st0" d="M174,223.3c-6,0-11.1,4.9-11.1,11.1c0,6,5,11.1,11.1,11.1s11.1-5,11-11.1C185.1,228.4,180.2,223.3,174,223.3z
			 M174.1,243c-4.6,0.2-8.7-3.6-8.8-8.1c-0.3-4.8,3.4-9.1,8.6-9.2c4.5,0.1,8.3,3.2,8.7,8C182.9,238.8,179,242.9,174.1,243z"/>
		<path class="st0" d="M177.6,233.2c-0.8,0-1.6,0-2.5,0c0-1.2,0-2.2,0-3.3c0.1-1.7-0.3-1.6-1.7-1.6c-0.4,0-0.8,0.3-0.8,0.8
			c0,2,0,3.9,0,5.9c0,0.5,0.3,0.8,0.8,0.8c1.5,0,3.1,0,4.6,0c0.5,0,0.8-0.3,0.8-0.8c0-0.2,0-0.3,0-0.4
			C178.9,233.4,178.7,233.2,177.6,233.2z"/>
	</g>
</g>
<path class="st0" d="M83,75c-0.6-0.6-1.2-1.2-1.7-1.8c-0.1-0.1-0.2-0.4-0.4-0.4c-1.2-0.6-2.3-0.9-3.5-0.3c-0.3,0.2-0.5,0.1-0.7-0.2
	c-2.2-2.2-4.6-4.6-6.8-6.8c-0.2-0.1-0.2-0.3-0.1-0.6c0.5-1.3,0.4-2.4-0.4-3.5c-0.7-0.9-1.6-1.7-2.3-2.3c-1.3-1.2-3.4-1.2-4.8,0.2
	c-0.8,0.8-1.6,1.6-2.3,2.3c-2.5,2.6-5.2,5.2-7.7,7.7c-1.6,1.6-1.7,3.3-0.3,5c0.7,0.8,1.4,1.5,2.1,2.1c1,0.8,2.1,1.1,3.3,0.6
	c0.6-0.3,0.9-0.1,1.3,0.3c0.6,0.6,1.2,1.2,1.7,1.8c0.1,0.1,0.2,0.2,0.1,0.2c-1.7,1.7-3.5,3.5-5.2,5.3c-0.1-0.2-0.3-0.4-0.5-0.6
	c-1.7-1.7-4.1-1.7-5.8,0c-3.4,3.4-6.8,6.8-10.1,10.1c-1.5,1.5-1.7,3.9-0.2,5.4c1.2,1.4,2.4,2.6,3.8,3.8c1.7,1.5,3.6,1.5,5.3,0
	c0.7-0.6,1.3-1.3,1.9-1.8c2.8-2.8,5.6-5.5,8.4-8.4c1.7-1.7,1.8-3.8,0.3-5.6c-0.2-0.3-0.5-0.6-0.8-0.8c1.7-1.7,3.5-3.5,5.3-5.3
	c0.8,0.8,1.6,1.6,2.3,2.3c0.3,0.3,0.2,0.4,0.1,0.7c-0.5,1.2-0.4,2.3,0.4,3.4c0.7,0.9,1.6,1.7,2.4,2.4c0.5,0.4,1,0.7,1.6,0.8
	c1.3,0.2,2.3-0.2,3.2-1.1c3.3-3.3,6.7-6.7,10-10C84.4,78.6,84.4,76.5,83,75z M56.1,91.1c-2.5,2.5-5.2,5.2-7.8,7.7
	c-0.8,0.8-1.6,1.6-2.3,2.3c-0.7,0.7-1.2,0.7-1.8,0c-1.1-1.1-2.1-2.1-3.2-3.2c-0.3-0.3-0.5-0.5-0.4-0.9c0-0.5,0.2-0.7,0.5-1
	c2.7-2.7,5.4-5.4,8.2-8.2c0.6-0.6,1.3-1.3,1.8-1.8c0.6-0.6,1.2-0.6,1.7,0c1.1,1.1,2.1,2.1,3.3,3.3C56.7,90,56.7,90.5,56.1,91.1z
	 M80.9,78c-2.7,2.7-5.5,5.4-8.3,8.2c-0.6,0.6-1.2,1.2-1.7,1.7c-0.5,0.5-0.7,0.5-1.2,0c-0.5-0.5-1.1-1.1-1.6-1.6
	c-0.3-0.3-0.3-0.6,0-1c0.5-0.5,0.9-0.9,1.3-1.3c-3.8-3.8-7.6-7.6-11.5-11.4c-0.4,0.4-0.8,0.8-1.2,1.2c-0.5,0.5-0.7,0.5-1.2,0
	c-0.5-0.5-1.1-1.1-1.6-1.6c-0.4-0.4-0.3-0.7,0-1c3.4-3.4,6.7-6.7,10.1-10.1c0.3-0.3,0.6-0.3,0.9,0c0.6,0.6,1.2,1.2,1.7,1.7
	c0.3,0.3,0.3,0.7,0,1c-0.5,0.4-1,0.9-1.4,1.3c3.9,3.9,7.7,7.7,11.5,11.5c0.4-0.4,0.9-0.9,1.3-1.3c0.5-0.4,0.6-0.4,1.1,0
	c0.5,0.5,1.1,1.1,1.6,1.6C81.2,77.3,81.2,77.7,80.9,78z"/>
<g>
	<g>
		<path class="st0" d="M139,114.8c-2.6-1.8-5.5-2.5-8.7-2.4c-2.8,0.1-5.4,0.9-7.7,2.6c-3.4,2.4-5.4,5.7-6.1,9.8
			c-0.6,3.6,0.2,7,2.1,10.1c0.6,0.9,1.4,1.8,2,2.7c1,1.4,1.9,2.9,2.7,4.4c0.6,1.2,0.9,2.4,0.9,3.7c-0.1,1.5,0,3.1,0,4.6
			c0,0.4,0.1,0.7,0.3,1c0.6,0.9,1.3,1.9,1.9,2.8c0.3,0.5,0.7,0.6,1.3,0.6c1,0,2.1,0,3.1,0s2.1,0,3.1,0c0.6,0,1-0.2,1.3-0.7
			c0.6-0.9,1.2-1.8,1.8-2.8c0.2-0.4,0.3-0.8,0.3-1.2c0-1.7,0-3.5,0-5.3c0-0.6,0.1-1.2,0.3-1.7c1-2.5,2.5-4.8,4.2-6.9
			c3.7-4.5,4.4-10.9,1.7-16C142.6,118.1,141.1,116.2,139,114.8z M134.7,150.2c-0.4,0.6-0.7,1.1-1.1,1.7c-0.2,0.2-0.3,0.2-0.5,0.2
			c-1.5,0-3,0-4.5,0c-0.2,0-0.4-0.1-0.5-0.2c-0.3-0.6-0.7-1.1-1.1-1.6c-0.2-0.2-0.2-0.5-0.2-0.7c2.6,0,5.2,0,7.9,0
			C134.9,149.8,134.8,150,134.7,150.2z M127,146.8c0-0.9,0-1.7,0-2.6c2.6,0,5.3,0,7.9,0c0,0.9,0,1.7,0,2.6
			C132.2,146.8,129.6,146.8,127,146.8z M140.3,134.2c-1.7,2.2-3.4,4.5-4.6,7.1c-0.1,0.2-0.3,0.2-0.5,0.2c-1.5,0-3,0-4.5,0l0,0
			c-1.4,0-2.9,0-4.3,0c-0.2,0-0.4,0-0.6-0.3c-1.1-2.5-2.7-4.8-4.4-6.9c-2.1-2.7-3-5.7-2.4-9.1c0.6-3.8,2.5-6.7,5.8-8.7
			c2.4-1.4,5.1-1.9,7.9-1.4c3.8,0.6,6.7,2.7,8.6,6.1C143.7,125.5,143.3,130.5,140.3,134.2z"/>
		<path class="st0" d="M113.1,136.4c-1.8,0.9-3.6,1.8-5.4,2.7c-0.6,0.3-0.9,1.1-0.6,1.7c0.3,0.6,1,0.9,1.7,0.6
			c1.8-0.9,3.5-1.7,5.3-2.7c0.5-0.2,0.7-0.6,0.8-1.1C115,136.6,114,136,113.1,136.4z"/>
		<path class="st0" d="M154,139.1c-1.7-0.9-3.5-1.8-5.3-2.7c-0.7-0.3-1.5-0.1-1.8,0.6c-0.2,0.6-0.2,1.6,0.7,1.8
			c0.4,0.2,0.7,0.3,1,0.5c1.3,0.7,2.8,1.4,4.1,2c0.9,0.5,2-0.2,2-1.2C154.7,139.7,154.5,139.3,154,139.1z"/>
		<path class="st0" d="M114.1,115.1c-1.7-0.9-3.3-1.7-5-2.5c-0.2-0.2-0.5-0.2-0.7-0.2c-0.7,0-1.2,0.4-1.3,0.9
			c-0.2,0.6,0.1,1.2,0.7,1.5c1.7,0.9,3.4,1.7,5.1,2.6c0.8,0.4,1.6,0.2,1.9-0.6C115.2,116.2,114.9,115.5,114.1,115.1z"/>
		<path class="st0" d="M148.6,117.6c1.9-0.9,3.7-1.8,5.5-2.8c0.6-0.3,0.8-0.9,0.6-1.5c-0.2-0.6-0.6-0.9-1.3-0.9
			c-0.2,0-0.5,0.1-0.7,0.2c-1.6,0.8-3.2,1.6-4.8,2.4c-0.2,0.1-0.4,0.2-0.6,0.4c-0.5,0.4-0.6,1.1-0.2,1.7
			C147.3,117.6,148,117.9,148.6,117.6z"/>
		<path class="st0" d="M155.9,125.6c-1.7,0-3.4,0-5,0c-0.9,0-1.5,0.6-1.4,1.3c0,0.8,0.6,1.3,1.5,1.3c0.8,0,1.7,0,2.4,0
			c0.9,0,1.7,0,2.5,0c0.9,0,1.4-0.5,1.5-1.3C157.3,126.2,156.9,125.7,155.9,125.6z"/>
		<path class="st0" d="M108.3,128.3c0.8,0,1.7,0,2.4,0c0.3,0,0.6,0,0.9-0.2c0.6-0.3,0.8-0.9,0.6-1.5c-0.2-0.6-0.6-0.9-1.3-1
			c-1.7,0-3.4,0-5.1,0c-0.9,0-1.4,0.6-1.4,1.3c0,0.8,0.6,1.3,1.4,1.3C106.7,128.3,107.5,128.3,108.3,128.3z"/>
		<path class="st0" d="M130.8,117.7c-1.3,0.1-2.5,0.2-3.6,0.8c-3.4,1.6-5.2,4.2-5.5,7.9c0,0.3-0.1,0.6,0,0.8c0.2,0.6,0.6,0.9,1.2,1
			c0.6,0.1,1.1-0.2,1.3-0.8c0.2-0.2,0.2-0.6,0.2-0.9c0.2-3,2.1-5.4,5-6.1c0.6-0.2,1.2-0.2,1.7-0.2c0.8-0.2,1.3-0.7,1.2-1.4
			C132.2,118.2,131.5,117.7,130.8,117.7z"/>
	</g>
</g>
<g>
	<g>
		<path class="st0" d="M217.2,77.5c-0.2,0.2-0.2,0.4-0.2,0.7c0.7,3.5,0.3,6.8-1.2,10c-1.1,2.3-2.7,4.3-4.8,5.8
			c-3.8,2.8-8.1,3.9-12.6,2.9c-6.2-1.3-10.4-5.1-12.2-11.3c-1.3-4.3-0.7-8.4,1.6-12.2c2-3.4,4.9-5.8,8.7-7.1c2.7-1,5.4-1,8.3-0.5
			c0.1,0,0.4,0.1,0.5-0.1c0.6-0.6,1.2-1.2,1.8-1.8c-6.9-2.3-15.7-0.1-20.7,7.2c-5,7.5-3.7,17.2,2.3,23.1c6.6,6.5,16.6,6.9,23.7,1.7
			c7-5.2,8.7-13.8,6.5-20.1C218.2,76.5,217.7,77,217.2,77.5z"/>
		<path class="st0" d="M204,72c0-0.1,0-0.1,0-0.1c-0.3-0.7-0.7-1.4-0.7-2.2c0-0.2-0.1-0.1-0.3-0.2c-1.1-0.2-2.2-0.1-3.2,0
			c-3.1,0.4-5.6,1.9-7.5,4.3c-2.7,3.3-3.4,7-2.3,11c1.8,6.2,8.1,9.8,14.1,8.4c4.7-1.1,7.8-4,9.1-8.7c0.4-1.4,0.5-2.9,0.3-4.4
			c0-0.2,0-0.4-0.3-0.4c-0.6,0-1-0.2-1.6-0.4c-0.2-0.1-0.4-0.3-0.7-0.2c0.1,0.7,0.3,1.3,0.3,2c0.1,3.3-1,6-3.6,8.1
			c-2.2,1.8-4.7,2.4-7.5,2.1c-4.3-0.5-7.8-4.2-8.3-8.4c-0.3-3.1,0.5-5.7,2.7-7.9c2.2-2.3,5.1-3.2,8.3-2.8
			C203.1,71.9,203.6,72,204,72z"/>
		<path class="st0" d="M205.8,70c0.5,1.1,1,2.2,1.5,3.4c0.1,0.3,0.1,0.4-0.1,0.7c-1.6,1.6-3.1,3.1-4.7,4.7c-0.6,0.6-1.2,1.2-1.8,1.8
			c-0.4,0.4-0.4,0.8-0.2,1.3c0.2,0.4,0.6,0.7,1.1,0.7c0.4,0,0.7-0.2,0.9-0.4c2.1-2.1,4.3-4.3,6.3-6.3c0.2-0.2,0.4-0.2,0.7-0.1
			c1,0.5,2.1,1,3.1,1.4c0.3,0.1,0.5,0.2,0.9,0.2c0.4,0,0.8-0.2,1.2-0.5c1.5-1.5,3-3,4.5-4.5c1-1,0.7-2.2-0.7-2.7
			c-1.1-0.4-2.3-0.7-3.4-1.1c-0.3-0.1-0.5-0.2-0.6-0.6c-0.4-1.2-0.7-2.4-1.2-3.7c-0.4-1.1-1.6-1.5-2.5-0.6c-1.6,1.5-3.1,3.1-4.6,4.6
			C205.5,68.7,205.5,69.3,205.8,70z M208.4,69.3c1-1,2-2,3.1-3.1c0.4,1.2,0.7,2.3,1.1,3.5c0.1,0.3,0.2,0.4,0.5,0.6
			c1.1,0.4,2.3,0.7,3.5,1.2c-0.2,0.2-0.4,0.4-0.7,0.6c-0.8,0.8-1.6,1.6-2.4,2.4c-0.2,0.2-0.4,0.2-0.6,0.1c-1-0.4-2-0.9-3-1.3
			c-0.2-0.1-0.3-0.2-0.4-0.4c-0.4-1-0.9-2-1.3-3C208.1,69.6,208.1,69.5,208.4,69.3z"/>
		<path class="st0" d="M199.2,78.6c1-1,2-2,3-3c-1.9-0.7-4.6,0.7-5.9,2.9c-1.4,2.4-0.8,5.4,1.3,7.3c2,1.8,5.1,1.9,7.5,0.1
			c1.9-1.4,2.6-4,2.1-5.4c-0.1,0.2-0.2,0.4-0.4,0.4c-1,1-2,2.2-3.1,3.1c-1.3,1.1-3.1,1-4.6-0.1c-1.2-1-1.6-2.8-0.7-4.3
			C198.6,79.3,198.9,79,199.2,78.6z"/>
		<path class="st0" d="M210.8,78.8C210.8,78.9,210.8,78.9,210.8,78.8C210.8,78.8,210.8,78.8,210.8,78.8L210.8,78.8z"/>
		<path class="st0" d="M210.8,78.9L210.8,78.9L210.8,78.9L210.8,78.9L210.8,78.9L210.8,78.9z"/>
	</g>
</g>
<g>
	<g>
		<path class="st0" d="M79.9,214.5c0-0.4-0.3-0.8-0.8-0.8c-0.1,0-0.3,0-0.4-0.1c-0.1-0.2-0.1-0.4-0.1-0.5c0-0.6-0.1-1.3-0.1-1.9
			c-0.3-2.3-0.9-4.6-2-6.7c-1-2-2.3-3.7-4.1-5c-0.9-0.6-1.8-1.1-2.8-1.5c0.4-0.2,0.9-0.4,1.3-0.6c2.5-1.3,4.3-3.3,5.6-5.8
			c1.4-2.8,2.2-5.8,2.3-8.9c0-0.1,0-0.3,0.1-0.4c0.9-0.1,1.1-0.3,1.1-1.3c0-0.7-0.3-1-1-1c-8.3,0-16.7,0-25,0
			c-0.4,0-0.8,0.1-0.9,0.6s0,1.3,0.3,1.5c0.3,0.2,0.5,0.2,0.8,0.3c0,0.3,0,0.6,0,0.9c0,1.2,0.2,2.4,0.4,3.6c0.5,2,1.2,3.9,2.3,5.6
			c1.2,1.9,2.7,3.6,4.6,4.7c0.6,0.3,1.1,0.5,1.7,0.8c-0.8,0.3-1.6,0.7-2.3,1.1c-2,1.3-3.5,3.1-4.6,5.3c-1.4,2.8-2.1,5.6-2.2,8.7
			c0,0.2,0.1,0.4-0.1,0.6c-0.9,0.1-1.1,0.4-1.1,1.4c0,0.6,0.4,0.8,1.2,0.8c5.5,0,11,0,16.5,0c2.8,0,5.6,0,8.4,0
			c0.6,0,0.9-0.3,0.9-0.9C79.9,214.9,79.9,214.7,79.9,214.5z M62.2,194.9c-1.9-1.3-3.2-2.9-4.2-5c-1.1-2.3-1.6-4.8-1.7-7.3
			c0-0.1,0-0.2,0-0.3c0,0,0-0.1,0.1-0.1c6.7,0,13.4,0,20.2,0c0.1,0.7,0,1.4-0.1,2c-0.2,1.9-0.7,3.8-1.4,5.4
			c-0.8,1.8-1.9,3.4-3.6,4.7C68.6,196.6,65.2,196.9,62.2,194.9z M76.5,213.7c-6.8,0-13.5,0-20.2,0c-0.1-0.7,0-1.3,0.1-2
			c0.2-2,0.7-3.9,1.6-5.7c1.2-2.4,2.8-4.4,5.3-5.6c2.5-1.2,5-0.9,7.3,0.5c2.1,1.3,3.5,3.3,4.5,5.4c1,2.3,1.4,4.6,1.5,7.1
			C76.5,213.5,76.5,213.5,76.5,213.7z"/>
		<path class="st0" d="M70.3,191.2c0.6,0,1.1-0.2,1.4-0.8c0.2-0.3,0.4-0.6,0.2-1c-0.2-0.4-0.6-0.5-0.9-0.5c-1.5,0-3,0-4.6,0
			c-1.6,0-3.1,0-4.7,0c-0.6,0-1,0.4-0.9,1c0.1,0.6,0.9,1.3,1.5,1.3C65,191.2,67.6,191.2,70.3,191.2z"/>
		<path class="st0" d="M72.9,209.2c-4.3,0-8.6,0-12.9,0c-0.9,0-1,0.6-1.1,1.4c-0.1,0.5,0.4,0.8,1.1,0.8c2.2,0,4.3,0,6.5,0
			c0.5,0,0.9,0,1.4,0c1.7,0,3.4,0,5.1,0c0.3,0,0.6-0.1,0.9-0.4c0.3-0.5,0.1-0.9-0.1-1.4C73.6,209.3,73.3,209.2,72.9,209.2z"/>
	</g>
</g>
<g>
	<g>
		<path class="st0" d="M18.3,10.9c0-0.2,0-0.5-0.1-0.7c-0.4-2.2-2.3-3.8-4.5-3.8c-2.6,0-5.2,0-7.8,0c-0.2,0-0.4,0.1-0.6-0.1
			c0.4-3.4-2.5-6-5.2-6c-2.9,0-5.7,2.5-5.4,6.1c-0.3,0-0.5,0-0.8,0c-2.5,0-5,0-7.5,0c-2.6,0-4.7,2.1-4.7,4.4c0,11.3,0,22.6,0,33.8
			c0,2.3,2.1,4.3,4.4,4.3c9.2,0,18.5,0,27.7,0c2.4,0,4.4-2,4.4-4.4C18.3,33.3,18.3,22.1,18.3,10.9z M0,3.4c1.3,0,2.3,1,2.3,2.3
			S1.3,8,0,8c-1.2,0-2.2-1-2.3-2.3C-2.3,4.4-1.3,3.4,0,3.4z M15.2,44.2c0,1.1-0.6,1.8-1.8,1.8c-9,0-18,0-27,0
			c-1.1,0-1.7-0.6-1.7-1.7c0-11.1,0-22.1,0-33.2c0-0.9,0.5-1.5,1.3-1.6c1.6-0.2,3.2,0,4.8-0.1c0,0.6,0,1.2,0,1.8
			c0,0.8,0.5,1.3,1.3,1.3c5.2,0,10.5,0,15.7,0c0.8,0,1.3-0.5,1.3-1.3c0-0.5,0-1.1,0-1.6c0.1-0.2,0.3-0.1,0.4-0.1c1.3,0,2.7,0,4,0
			c1.1,0,1.7,0.6,1.7,1.7C15.2,22.2,15.2,33.2,15.2,44.2z"/>
		<path class="st0" d="M8.1,32.3c-1.9,0-3.7,0-5.6,0c-1.5,0-3.1,0-4.6,0c-0.7,0-0.9,0.3-0.9,0.9c0,0.4,0,0.7,0,1.1c0,0.8,0.2,1,1,1
			c1.7,0,3.4,0,5.1,0l0,0c1.7,0,3.4,0,5.2,0c0.6,0,0.9-0.3,0.9-0.9c0-0.4,0-0.7,0-1.1C9.1,32.5,8.9,32.3,8.1,32.3z"/>
		<path class="st0" d="M-0.3,19.1c-0.3-0.3-0.6-0.6-0.9-0.9s-0.6-0.3-0.9,0c-0.2,0.2-0.4,0.4-0.6,0.5C-4,20-5.2,21.3-6.5,22.6
			c-0.7-0.7-1.3-1.3-1.9-1.9c-0.5-0.5-0.6-0.5-1.1,0c-0.3,0.3-0.6,0.5-0.8,0.8c-0.4,0.4-0.4,0.6,0,1.1c1.1,1.1,2.2,2.2,3.2,3.3
			c0.3,0.3,0.6,0.3,1,0c0.4-0.4,0.8-0.8,1.1-1.1c1.5-1.5,3.1-3.1,4.6-4.6C0.1,19.7,0.1,19.5-0.3,19.1z"/>
		<path class="st0" d="M8.2,23.2c-2.3,0-4.5,0-6.8,0c-0.2,0-0.4,0-0.6,0.2C-0.1,24.3-1,25.2-2,26.2c1.5,0,2.9,0,4.3,0
			c1.9,0,3.9,0,5.8,0c0.7,0,0.9-0.3,1-0.9c0-0.4,0-0.7,0-1.1C9.1,23.4,8.9,23.2,8.2,23.2z"/>
		<path class="st0" d="M-7.6,31.5c-1.3,0-2.3,1-2.3,2.2s1,2.3,2.2,2.3c1.3,0,2.3-1,2.3-2.3C-5.3,32.6-6.3,31.6-7.6,31.5z"/>
	</g>
</g>
<g>
	<g>
		<path class="st0" d="M278.3,10.9c0-0.2,0-0.5-0.1-0.7c-0.4-2.2-2.3-3.8-4.5-3.8c-2.6,0-5.2,0-7.8,0c-0.2,0-0.4,0.1-0.6-0.1
			c0.4-3.4-2.5-6-5.2-6c-2.9,0-5.7,2.5-5.4,6.1c-0.3,0-0.5,0-0.8,0c-2.5,0-5,0-7.5,0c-2.6,0-4.7,2.1-4.7,4.4c0,11.3,0,22.6,0,33.8
			c0,2.3,2.1,4.3,4.4,4.3c9.2,0,18.5,0,27.7,0c2.4,0,4.4-2,4.4-4.4C278.3,33.3,278.3,22.1,278.3,10.9z M260,3.4c1.3,0,2.3,1,2.3,2.3
			S261.3,8,260,8c-1.2,0-2.2-1-2.3-2.3C257.7,4.4,258.7,3.4,260,3.4z M275.2,44.2c0,1.1-0.6,1.8-1.8,1.8c-9,0-18,0-27,0
			c-1.1,0-1.7-0.6-1.7-1.7c0-11.1,0-22.1,0-33.2c0-0.9,0.5-1.5,1.3-1.6c1.6-0.2,3.2,0,4.8-0.1c0,0.6,0,1.2,0,1.8
			c0,0.8,0.5,1.3,1.3,1.3c5.2,0,10.5,0,15.7,0c0.8,0,1.3-0.5,1.3-1.3c0-0.5,0-1.1,0-1.6c0.1-0.2,0.3-0.1,0.4-0.1c1.3,0,2.7,0,4,0
			c1.1,0,1.7,0.6,1.7,1.7C275.2,22.2,275.2,33.2,275.2,44.2z"/>
		<path class="st0" d="M268.1,32.3c-1.9,0-3.7,0-5.6,0c-1.5,0-3.1,0-4.6,0c-0.7,0-0.9,0.3-0.9,0.9c0,0.4,0,0.7,0,1.1
			c0,0.8,0.2,1,1,1c1.7,0,3.4,0,5.1,0l0,0c1.7,0,3.4,0,5.2,0c0.6,0,0.9-0.3,0.9-0.9c0-0.4,0-0.7,0-1.1
			C269.1,32.5,268.9,32.3,268.1,32.3z"/>
		<path class="st0" d="M259.7,19.1c-0.3-0.3-0.6-0.6-0.9-0.9s-0.6-0.3-0.9,0c-0.2,0.2-0.4,0.4-0.6,0.5c-1.3,1.3-2.5,2.6-3.8,3.9
			c-0.7-0.7-1.3-1.3-1.9-1.9c-0.5-0.5-0.6-0.5-1.1,0c-0.3,0.3-0.6,0.5-0.8,0.8c-0.4,0.4-0.4,0.6,0,1.1c1.1,1.1,2.2,2.2,3.2,3.3
			c0.3,0.3,0.6,0.3,1,0c0.4-0.4,0.8-0.8,1.1-1.1c1.5-1.5,3.1-3.1,4.6-4.6C260.1,19.7,260.1,19.5,259.7,19.1z"/>
		<path class="st0" d="M268.2,23.2c-2.3,0-4.5,0-6.8,0c-0.2,0-0.4,0-0.6,0.2c-0.9,0.9-1.8,1.8-2.8,2.8c1.5,0,2.9,0,4.3,0
			c1.9,0,3.9,0,5.8,0c0.7,0,0.9-0.3,1-0.9c0-0.4,0-0.7,0-1.1C269.1,23.4,268.9,23.2,268.2,23.2z"/>
		<path class="st0" d="M252.4,31.5c-1.3,0-2.3,1-2.3,2.2s1,2.3,2.2,2.3c1.3,0,2.3-1,2.3-2.3C254.7,32.6,253.7,31.6,252.4,31.5z"/>
	</g>
</g>
</svg>
