<?xml version="1.0" encoding="iso-8859-1"?>
<!-- Generator: Adobe Illustrator 19.0.0, SVG Export Plug-In . SVG Version: 6.00 Build 0)  -->
<svg version="1.1" id="Layer_1" xmlns="http://www.w3.org/2000/svg" xmlns:xlink="http://www.w3.org/1999/xlink" x="0px" y="0px"
	 viewBox="0 0 508 508" style="enable-background:new 0 0 508 508;" xml:space="preserve">
<circle style="fill:#FD8469;" cx="254" cy="254" r="254"/>
<rect x="76.4" y="248.4" style="fill:#E6E9EE;" width="355.2" height="169.2"/>
<path style="fill:#F1543F;" d="M60.4,418c46.4,54.8,116,89.6,193.6,89.6s147.2-34.8,193.6-89.6H60.4z"/>
<rect x="115.2" y="181.2" style="fill:#FFFFFF;" width="277.2" height="236.4"/>
<g>
	<rect x="138.4" y="280.8" style="fill:#84DBFF;" width="35.2" height="27.6"/>
	<rect x="203.6" y="280.8" style="fill:#84DBFF;" width="35.2" height="27.6"/>
	<rect x="269.2" y="280.8" style="fill:#84DBFF;" width="35.2" height="27.6"/>
	<rect x="334.4" y="280.8" style="fill:#84DBFF;" width="35.2" height="27.6"/>
	<rect x="138.4" y="326.8" style="fill:#84DBFF;" width="35.2" height="27.6"/>
	<rect x="203.6" y="326.8" style="fill:#84DBFF;" width="35.2" height="27.6"/>
	<rect x="269.2" y="326.8" style="fill:#84DBFF;" width="35.2" height="27.6"/>
	<rect x="334.4" y="326.8" style="fill:#84DBFF;" width="35.2" height="27.6"/>
	<rect x="138.4" y="372.8" style="fill:#84DBFF;" width="35.2" height="27.6"/>
	<rect x="203.6" y="372.8" style="fill:#84DBFF;" width="35.2" height="27.6"/>
	<rect x="269.2" y="372.8" style="fill:#84DBFF;" width="35.2" height="27.6"/>
	<rect x="334.4" y="372.8" style="fill:#84DBFF;" width="35.2" height="27.6"/>
</g>
<polygon style="fill:#E6E9EE;" points="431.2,182 254,54.4 76.8,182 "/>
<polygon style="fill:#FFFFFF;" points="126,166.4 254,74 382,166.4 "/>
<g>
	<path style="fill:#324A5E;" d="M282,203.6c-2,0-3.6,1.6-3.6,3.6v23.6l-15.2-25.6c-0.8-1.6-2.4-2-4-1.6s-2.8,2-2.8,3.6v37.2
		c0,2,1.6,3.6,3.6,3.6s3.6-1.6,3.6-3.6v-23.6l15.2,25.6c0.8,1.2,2,2,3.2,2c0.4,0,0.8,0,0.8,0c1.6-0.4,2.8-2,2.8-3.6v-37.2
		C285.6,205.6,284,203.6,282,203.6z"/>
	<path style="fill:#324A5E;" d="M240,206.4c-0.4-1.6-2-2.4-3.6-2.4s-2.8,0.8-3.6,2.4l-14,36.8c-0.8,2,0.4,4,2,4.8
		c0.4,0,0.8,0.4,1.2,0.4c1.6,0,2.8-0.8,3.6-2.4l3.2-8.8h14.4l3.2,8.8c0.8,2,2.8,2.8,4.8,2s2.8-2.8,2-4.8L240,206.4z M232,229.6
		l4.4-11.6l4.4,11.6H232z"/>
	<path style="fill:#324A5E;" d="M217.6,216.8c0-7.2-6-13.2-13.2-13.2h-9.6c-2,0-3.6,1.6-3.6,3.6V226l0,0l0,0v18.4
		c0,2,1.6,3.6,3.6,3.6h9.6c7.2,0,13.2-6,13.2-13.2c0-3.6-1.6-6.8-4-9.2C216,223.6,217.6,220.4,217.6,216.8z M198.4,211.2h6
		c3.2,0,5.6,2.4,5.6,5.6c0,3.2-2.4,5.6-5.6,5.6h-6V211.2z M204.4,240.8h-6V230h6c3.2,0,5.6,2.4,5.6,5.6
		C210,238.4,207.6,240.8,204.4,240.8z"/>
	<path style="fill:#324A5E;" d="M300,226.4l13.2-13.2l0,0l0,0l2.8-2.8c1.6-1.6,1.6-4,0-5.2c-1.6-1.6-4-1.6-5.2,0l-12,12v-9.6
		c0-2-1.6-3.6-3.6-3.6s-3.6,1.6-3.6,3.6v37.2c0,2,1.6,3.6,3.6,3.6s3.6-1.6,3.6-3.6v-9.6l12,12c0.8,0.8,1.6,1.2,2.8,1.2
		c0.8,0,2-0.4,2.8-1.2c1.6-1.6,1.6-4,0-5.2L300,226.4z"/>
</g>
<g>
</g>
<g>
</g>
<g>
</g>
<g>
</g>
<g>
</g>
<g>
</g>
<g>
</g>
<g>
</g>
<g>
</g>
<g>
</g>
<g>
</g>
<g>
</g>
<g>
</g>
<g>
</g>
<g>
</g>
</svg>
