<?xml version="1.0" encoding="iso-8859-1"?>
<!-- Generator: Adobe Illustrator 19.0.0, SVG Export Plug-In . SVG Version: 6.00 Build 0)  -->
<svg version="1.1" id="Layer_1" xmlns="http://www.w3.org/2000/svg" xmlns:xlink="http://www.w3.org/1999/xlink" x="0px" y="0px"
	 viewBox="0 0 505 505" style="enable-background:new 0 0 505 505;" xml:space="preserve">
<circle style="fill:#FF7058;" cx="252.5" cy="252.5" r="252.5"/>
<path style="fill:#F1543F;" d="M43.6,394.4C89,461.2,165.6,505,252.5,505S416,461.1,461.4,394.4H43.6z"/>
<rect x="105.3" y="146.9" style="fill:#FFFFFF;" width="294" height="225.9"/>
<rect x="105.3" y="146.9" style="fill:#FFD05B;" width="294" height="225.9"/>
<g>
	<path style="fill:#324A5E;" d="M412,164.3H92.6c-0.3,0-0.6-0.3-0.6-0.6V118c0-0.3,0.3-0.6,0.6-0.6h319.5c0.3,0,0.6,0.3,0.6,0.6
		v45.7C412.6,164.1,412.3,164.3,412,164.3z"/>
	<rect x="92" y="372.8" style="fill:#324A5E;" width="320.6" height="21.5"/>
</g>
<g>
	<polygon style="fill:#FFFFFF;" points="431.6,200 380.2,200 345.5,164.3 382.9,164.3 	"/>
	<polygon style="fill:#FFFFFF;" points="124.3,200 73,200 121.6,164.3 159,164.3 	"/>
</g>
<polygon style="fill:#84DBFF;" points="380.4,200 329,200 308.2,164.3 345.6,164.3 "/>
<polygon style="fill:#FFFFFF;" points="329.2,200 277.8,200 270.9,164.3 308.3,164.3 "/>
<g>
	<polygon style="fill:#84DBFF;" points="278,200 226.6,200 233.6,164.3 271,164.3 	"/>
	<polygon style="fill:#84DBFF;" points="175.5,200 124.2,200 158.9,164.3 196.4,164.3 	"/>
</g>
<polygon style="fill:#FFFFFF;" points="226.8,200 175.4,200 196.3,164.3 233.7,164.3 "/>
<g>
	<path style="fill:#E6E9EE;" d="M431,225.7v-26.1h-51.3v26.1c0,6.9,4.8,12.5,10.8,12.5h29.7C426.2,238.2,431,232.6,431,225.7z"/>
	<path style="fill:#E6E9EE;" d="M124.3,225.7v-26.1H73v26.1c0,6.9,4.8,12.5,10.8,12.5h29.7C119.5,238.2,124.3,232.6,124.3,225.7z"/>
</g>
<path style="fill:#54C0EB;" d="M379.9,225.7v-26.1h-51.3v26.1c0,6.9,4.8,12.5,10.8,12.5h29.7C375.1,238.2,379.9,232.6,379.9,225.7z"
	/>
<path style="fill:#E6E9EE;" d="M328.8,225.7v-26.1h-51.3v26.1c0,6.9,4.8,12.5,10.8,12.5H318C324,238.2,328.8,232.6,328.8,225.7z"/>
<g>
	<path style="fill:#54C0EB;" d="M277.7,225.7v-26.1h-51.3v26.1c0,6.9,4.8,12.5,10.8,12.5h29.7C272.8,238.2,277.7,232.6,277.7,225.7z
		"/>
	<path style="fill:#54C0EB;" d="M175.4,225.7v-26.1h-51.3v26.1c0,6.9,4.8,12.5,10.8,12.5h29.7C170.6,238.2,175.4,232.6,175.4,225.7z
		"/>
</g>
<path style="fill:#E6E9EE;" d="M226.6,225.7v-26.1h-51.3v26.1c0,6.9,4.8,12.5,10.8,12.5h29.7C221.7,238.2,226.6,232.6,226.6,225.7z"
	/>
<rect x="122.2" y="259.8" style="fill:#F9B54C;" width="171.1" height="92.5"/>
<rect x="129.9" y="267.5" style="fill:#FFFFFF;" width="155.8" height="77.1"/>
<rect x="308.2" y="259.8" style="fill:#F9B54C;" width="69.8" height="112.9"/>
<g>
	<rect x="315.9" y="267.5" style="fill:#FFFFFF;" width="54.5" height="46.7"/>
	<ellipse style="fill:#FFFFFF;" cx="252" cy="102.8" rx="71.6" ry="39.1"/>
</g>
<g>
	<path style="fill:#4CDBC4;" d="M208.8,96.7c-0.4,0.4-0.7,0.8-0.7,1.5c0,0.6,0.3,1.1,0.8,1.4c0.5,0.4,1.8,0.8,3.8,1.3
		s3.5,1.2,4.6,2.2s1.6,2.4,1.6,4.2c0,1.9-0.7,3.4-2.1,4.5c-1.4,1.2-3.2,1.7-5.5,1.7c-3.3,0-6.2-1.2-8.9-3.6l2.8-3.4
		c2.2,2,4.3,2.9,6.2,2.9c0.9,0,1.5-0.2,2-0.5c0.5-0.4,0.7-0.9,0.7-1.5s-0.3-1.1-0.8-1.5s-1.5-0.7-3.1-1.1c-2.4-0.6-4.2-1.3-5.3-2.2
		c-1.1-0.9-1.7-2.4-1.7-4.3c0-2,0.7-3.5,2.1-4.6c1.4-1.1,3.2-1.6,5.3-1.6c1.4,0,2.8,0.2,4.2,0.7s2.6,1.1,3.6,2l-2.3,3.4
		c-1.8-1.4-3.7-2-5.6-2C209.9,96.1,209.3,96.3,208.8,96.7z"/>
	<path style="fill:#4CDBC4;" d="M231.5,96.6v16.7h-4.6V96.6H221v-4h16.4v4C237.4,96.6,231.5,96.6,231.5,96.6z"/>
	<path style="fill:#4CDBC4;" d="M257.6,110.4c-2.1,2-4.7,3.1-7.7,3.1c-3.1,0-5.6-1-7.7-3.1s-3.1-4.6-3.1-7.6s1-5.6,3.1-7.6
		s4.7-3.1,7.7-3.1c3.1,0,5.6,1,7.7,3.1c2.1,2,3.1,4.6,3.1,7.6C260.8,105.8,259.7,108.4,257.6,110.4z M256.1,102.8
		c0-1.9-0.6-3.4-1.8-4.7c-1.2-1.3-2.6-2-4.4-2c-1.7,0-3.2,0.7-4.4,2s-1.8,2.9-1.8,4.7c0,1.8,0.6,3.4,1.8,4.7
		c1.2,1.3,2.6,1.9,4.4,1.9c1.7,0,3.2-0.6,4.4-1.9S256.1,104.7,256.1,102.8z"/>
	<path style="fill:#4CDBC4;" d="M281.5,99.4c0,3.3-1.3,5.5-3.9,6.4l5.3,7.4h-5.7l-4.6-6.6h-3.2v6.6h-4.6V92.6h7.9
		c3.2,0,5.5,0.5,6.9,1.6C280.8,95.3,281.5,97,281.5,99.4z M275.9,101.9c0.6-0.5,0.9-1.3,0.9-2.4s-0.3-1.9-0.9-2.3s-1.6-0.6-3.1-0.6
		h-3.5v6.1h3.4C274.3,102.7,275.4,102.4,275.9,101.9z"/>
	<path style="fill:#4CDBC4;" d="M301.2,92.6v4.1h-10.3v4.3h9.3v3.9h-9.3v4.3h10.6v4.1h-15.3V92.6H301.2z"/>
</g>
<g>
</g>
<g>
</g>
<g>
</g>
<g>
</g>
<g>
</g>
<g>
</g>
<g>
</g>
<g>
</g>
<g>
</g>
<g>
</g>
<g>
</g>
<g>
</g>
<g>
</g>
<g>
</g>
<g>
</g>
</svg>
