<?xml version="1.0" encoding="iso-8859-1"?>
<!-- Generator: Adobe Illustrator 19.0.0, SVG Export Plug-In . SVG Version: 6.00 Build 0)  -->
<svg version="1.1" id="Layer_1" xmlns="http://www.w3.org/2000/svg" xmlns:xlink="http://www.w3.org/1999/xlink" x="0px" y="0px"
	 viewBox="0 0 508 508" style="enable-background:new 0 0 508 508;" xml:space="preserve">
<circle style="fill:#54C0EB;" cx="254" cy="254" r="254"/>
<path style="fill:#FFFFFF;" d="M135.2,136c0,0,56.4-68,143.2-36.8c2.4,0.8,3.6,3.6,2.4,6l0,0c-0.8,2-3.2,2.8-5.2,2.4
	c-8.8-2.8-33.6-7.6-66.4,2.4c-10.4,3.2-15.6,14.8-11.6,24.8l10,24l-24,22.8c0,0-39.6-26.4-50,21.6L118.4,220c0,0-26.8-12.4-32.8-32
	c0,0,13.6-14,17.6-16.8C103.2,171.6,132.8,171.2,135.2,136z"/>
<path style="fill:#324A5E;" d="M205.6,160.8l6.4,6.4c2.4,2.4,2.4,6.4,0,9.2l-11.2,11.2c-2.4,2.4-6.4,2.4-9.2,0l-6.8-6.8L205.6,160.8
	z"/>
<rect x="221.879" y="170.747" transform="matrix(-0.7071 0.7071 -0.7071 -0.7071 543.1411 189.7166)" style="fill:#FFFFFF;" width="20.8" height="73.199"/>
<path style="fill:#324A5E;" d="M265.6,226l-14.8,14.8c-3.2,3.2-3.2,8-0.4,11.6l109.2,132.4c13.2,16.4,37.6,17.2,52.8,2.4l0,0
	c14.8-14.8,13.6-39.2-2.4-52.8L276.8,225.6C273.6,222.8,268.4,222.8,265.6,226z"/>
<g>
</g>
<g>
</g>
<g>
</g>
<g>
</g>
<g>
</g>
<g>
</g>
<g>
</g>
<g>
</g>
<g>
</g>
<g>
</g>
<g>
</g>
<g>
</g>
<g>
</g>
<g>
</g>
<g>
</g>
</svg>
