<?xml version="1.0" encoding="iso-8859-1"?>
<!-- Generator: Adobe Illustrator 19.0.0, SVG Export Plug-In . SVG Version: 6.00 Build 0)  -->
<svg version="1.1" id="Layer_1" xmlns="http://www.w3.org/2000/svg" xmlns:xlink="http://www.w3.org/1999/xlink" x="0px" y="0px"
	 viewBox="0 0 508 508" style="enable-background:new 0 0 508 508;" xml:space="preserve">
<circle style="fill:#324A5E;" cx="254" cy="254" r="254"/>
<path style="fill:#2B3B4E;" d="M81.2,440c45.2,42,106,68,172.8,68s127.6-26,172.8-68H81.2z"/>
<path style="fill:#F9B54C;" d="M247.6,384.8l-126.4-27.6c-4-0.8-6.8-5.2-6-9.2l26.4-119.6c0.8-4,5.2-6.8,9.2-6L277.2,250
	c4,0.8,6.8,5.2,6,9.2l-26.4,119.6C256,383.2,252,385.6,247.6,384.8z"/>
<path style="fill:#E6E9EE;" d="M267.6,402.8l-161.2-35.2c-3.6-0.8-6-4.4-5.2-8s4.4-6,8-5.2l154.4,34l53.6-243.6
	c0.4-1.6,1.6-3.2,2.8-4L396.4,92c3.2-2,7.2-1.2,9.2,2s1.2,7.2-2,9.2l-74,47.2l-54.4,247.2C274.4,401.2,271.2,403.6,267.6,402.8z"/>
<circle style="fill:#4CDBC4;" cx="268.8" cy="396" r="44.4"/>
<circle style="fill:#2C9984;" cx="268.8" cy="396.4" r="30.8"/>
<circle style="fill:#FFFFFF;" cx="268.8" cy="396.4" r="26.4"/>
<g>
	<path style="fill:#E6E9EE;" d="M279.6,384.8c-0.8,3.2-3.6,0-8-0.8s-8.4,0.4-7.6-2.8c0.8-3.2,4.8-4.8,9.2-4
		C277.2,378.4,280.4,382,279.6,384.8z"/>
	<path style="fill:#E6E9EE;" d="M258,407.6c0.8-3.2,3.6,0,8,0.8s8.4-0.4,7.6,2.8c-0.8,3.2-4.8,4.8-9.2,4
		C260.4,414,257.6,410.8,258,407.6z"/>
	<path style="fill:#E6E9EE;" d="M280,406.8c-3.2-0.8,0-3.6,0.8-8s-0.4-8.4,2.8-7.6c3.2,0.8,4.8,4.8,4,9.2
		C286.4,404.8,283.2,407.6,280,406.8z"/>
	<path style="fill:#E6E9EE;" d="M257.6,385.6c3.2,0.8,0,3.6-0.8,8s0.4,8.4-2.8,7.6c-3.2-0.8-4.8-4.8-4-9.2
		C251.2,388,254.4,384.8,257.6,385.6z"/>
	<circle style="fill:#E6E9EE;" cx="268.8" cy="396.4" r="6.8"/>
</g>
<rect x="195.629" y="235.919" transform="matrix(-0.9767 -0.2144 0.2144 -0.9767 365.4363 533.075)" style="fill:#FF7058;" width="31.999" height="21.599"/>
<path style="fill:#FFD05B;" d="M279.2,250.8l-96.4-21.2c-3.2-0.8-5.2-4-4.4-7.2l20-91.2c0.8-3.2,4-5.2,7.2-4.4L302,148
	c3.2,0.8,5.2,4,4.4,7.2L286,246C285.6,249.2,282.4,251.2,279.2,250.8z"/>
<rect x="239.248" y="136.744" transform="matrix(-0.9767 -0.2144 0.2144 -0.9767 465.9689 340.4295)" style="fill:#FF7058;" width="24.399" height="16.399"/>
<g>
</g>
<g>
</g>
<g>
</g>
<g>
</g>
<g>
</g>
<g>
</g>
<g>
</g>
<g>
</g>
<g>
</g>
<g>
</g>
<g>
</g>
<g>
</g>
<g>
</g>
<g>
</g>
<g>
</g>
</svg>
