<?xml version="1.0" encoding="iso-8859-1"?>
<!-- Generator: Adobe Illustrator 19.0.0, SVG Export Plug-In . SVG Version: 6.00 Build 0)  -->
<svg version="1.1" id="Capa_1" xmlns="http://www.w3.org/2000/svg" xmlns:xlink="http://www.w3.org/1999/xlink" x="0px" y="0px"
	 viewBox="0 0 512 512" style="enable-background:new 0 0 512 512;" xml:space="preserve">
<circle style="fill:#505E93;" cx="256" cy="256" r="256"/>
<path style="fill:#28B49B;" d="M119.726,178.673c-13.758,0-24.951-11.193-24.951-24.951s11.193-24.951,24.951-24.951
	s24.951,11.193,24.951,24.951S133.484,178.673,119.726,178.673z M119.726,143.771c-5.487,0-9.951,4.464-9.951,9.951
	s4.464,9.951,9.951,9.951c5.487,0,9.951-4.464,9.951-9.951S125.213,143.771,119.726,143.771z"/>
<circle style="fill:#FDD36E;" cx="100.87" cy="221.4" r="12.533"/>
<circle style="fill:#E8F7F9;" cx="438.62" cy="166.25" r="12.533"/>
<g>
	<path style="fill:#FDD36E;" d="M118.845,70.302c2.035-0.146,4.12,0.534,5.714,2.052C138.873,86,156.7,81.051,156.879,81
		c3.982-1.147,8.137,1.142,9.288,5.121c1.15,3.979-1.142,8.138-5.122,9.288c-1.066,0.309-26.355,7.328-46.838-12.198
		c-2.998-2.859-3.111-7.606-0.253-10.604C115.295,71.202,117.05,70.43,118.845,70.302z"/>
	<path style="fill:#FDD36E;" d="M433.743,335.296c10.085-17.012,1.261-33.274,1.172-33.436c-2.011-3.624-0.713-8.186,2.906-10.201
		c3.619-2.014,8.186-0.713,10.201,2.906c0.541,0.969,13.056,24.038-1.375,48.381c-2.113,3.563-6.714,4.739-10.276,2.627
		C432.814,343.463,431.626,338.868,433.743,335.296z"/>
</g>
<g>
	<path style="fill:#69739B;" d="M483.143,374.161c-24.409,0-49.549,0-78.196,0c-17.019,0-26.762,18.632-17.368,32.181
		c1.742,2.512,0.047,5.939-3.01,5.939c-8.034,0-14.908,0-23.086,0c-11.306,0-20.557,9.25-20.557,20.557s9.25,20.557,20.557,20.557
		c2.604,0,53.367,0,57.533,0C445.339,431.632,467.224,404.699,483.143,374.161z"/>
	<path style="fill:#69739B;" d="M92.73,272.578c-11.681,0-81.714,0-92.181,0c1.781,27.859,8.014,54.504,18.002,79.235
		c8.34,0,27.137,0,32.715,0c17.023,0,26.76-18.634,17.368-32.181c-1.742-2.512-0.047-5.939,3.01-5.939c0.114,0,6.635,0,6.419,0
		H92.73c11.307,0,20.557-9.251,20.557-20.557S104.037,272.578,92.73,272.578z"/>
</g>
<path style="fill:#FDD36E;" d="M144.626,486.564l291.966-243.872c2.73-2.281,2.693-6.482-0.068-8.725
	c-69.374-56.347-151.432-104.795-240.41-138.8c-3.323-1.27-6.98,0.799-7.59,4.303l-65.329,375.432
	C130.129,479.117,137.28,483.01,144.626,486.564z"/>
<path style="fill:#FBB659;" d="M322.839,155.715c-40.956-23.725-83.342-43.969-126.725-60.549c-3.323-1.27-6.98,0.799-7.59,4.303
	l-65.329,375.432c3.552,2.16,7.163,4.232,10.826,6.219l0.01-0.008l18.952-35.342C152.983,445.772,178.878,245.76,322.839,155.715z"
	/>
<path style="fill:#55CEED;" d="M175.639,458.852l-44.544-25.717c-1.369-0.79-3.135-0.317-3.926,1.052l-18.146,31.429
	c15.769,11.077,32.845,20.415,50.95,27.748l17.016-29.472C178.004,462.134,177.396,459.866,175.639,458.852z"/>
<path style="fill:#17A3BF;" d="M146.168,449.401c1.396-2.418,3.949-3.769,6.567-3.773l-21.64-12.494
	c-1.369-0.79-3.135-0.317-3.926,1.052l-18.146,31.429c6.559,4.607,13.356,8.895,20.346,12.881L146.168,449.401z"/>
<path style="fill:#FA6487;" d="M141.847,367.716c15.3,26.501,31.908,55.267,47.197,81.747l23.397-19.543
	c-20.789-36.008-44.388-76.882-62.562-108.36L141.847,367.716z"/>
<path style="fill:#E64B78;" d="M173.599,362.646c-8.417-14.579-16.5-28.579-23.721-41.085l-8.032,46.156
	c6.508,11.272,13.255,22.958,20.034,34.7C164.842,390.762,168.681,377.285,173.599,362.646z"/>
<path style="fill:#FA6487;" d="M163.9,240.981c28.399,49.189,62.431,108.135,89.386,154.822l23.397-19.543
	c-31.682-54.875-75.812-131.31-104.752-181.435L163.9,240.981z"/>
<path style="fill:#E64B78;" d="M171.931,194.825l-2.009,11.547l-6.022,34.609c10.988,19.031,22.819,39.523,34.757,60.2
	c5.029-10.322,10.578-20.759,16.697-31.148C199.54,242.644,184.339,216.315,171.931,194.825z"/>
<path style="fill:#FA6487;" d="M317.529,342.142l23.397-19.543c-33.928-58.766-89.995-155.875-127.316-220.518
	c-5.826-2.374-11.658-4.684-17.496-6.915c-3.323-1.27-6.98,0.799-7.59,4.303l-2.571,14.776
	C225.113,182.072,280.662,278.286,317.529,342.142z"/>
<path style="fill:#E64B78;" d="M191.664,95.347c-1.581,0.753-2.809,2.224-3.139,4.122l-2.571,14.776
	c18.397,31.864,40.411,69.994,62.406,108.09c6.582-8.086,13.599-15.969,21.078-23.559c-19.911-34.488-39.634-68.648-55.827-96.695
	c-2.84-1.157-5.681-2.298-8.523-3.423c-0.089-0.035-0.178-0.071-0.267-0.106c-2.9-1.147-5.802-2.276-8.706-3.386
	c-0.623-0.238-1.258-0.359-1.882-0.375c-0.776-0.02-1.533,0.128-2.234,0.409C191.885,95.246,191.774,95.295,191.664,95.347z"/>
<path style="fill:#FA6487;" d="M381.772,288.481l23.397-19.543c-15.24-26.396-36.223-62.739-56.329-97.566
	c-17.331-10.837-34.163-20.592-52.12-30.207C323.868,188.189,358.04,247.377,381.772,288.481z"/>
<path style="fill:#E64B78;" d="M296.719,141.166c4.286,7.423,8.747,15.151,13.315,23.061c4.162-2.932,8.428-5.774,12.805-8.512
	C313.825,150.493,304.73,145.455,296.719,141.166z"/>
<path style="fill:#A5E5F9;" d="M350.675,140.929c-1.273,0-2.562-0.324-3.743-1.006c-3.587-2.071-4.816-6.658-2.745-10.245
	c33.319-57.711,87.881-67.581,90.188-67.973c4.084-0.691,7.957,2.055,8.65,6.137c0.693,4.079-2.047,7.947-6.122,8.648
	c-0.663,0.118-50.106,9.386-79.725,60.687C355.788,139.584,353.267,140.929,350.675,140.929z"/>
<path style="fill:#28B49B;" d="M379.299,157.455c-1.272,0-2.562-0.324-3.743-1.006c-3.587-2.071-4.816-6.658-2.745-10.245
	c17.531-30.365,46.489-35.601,47.713-35.809c4.084-0.697,7.957,2.054,8.65,6.137c0.692,4.074-2.04,7.938-6.107,8.646
	c-1.04,0.189-23.407,4.521-37.267,28.526C384.412,156.11,381.891,157.455,379.299,157.455z"/>
<path style="fill:#FDD36E;" d="M311.956,119.73c-3.587-2.071-4.816-6.658-2.745-10.245c29.831-51.67,12.874-98.902,12.699-99.373
	c-1.441-3.884,0.539-8.2,4.423-9.641s8.199,0.538,9.641,4.423c0.814,2.192,19.547,54.38-13.772,112.091
	C320.124,120.582,315.534,121.794,311.956,119.73z"/>
<path style="fill:#FA6487;" d="M287.075,104.209c-1.272,0-2.562-0.324-3.743-1.006c-3.587-2.071-4.816-6.658-2.745-10.245
	c13.89-24.059,6.395-45.636,6.069-46.543c-1.396-3.884,0.602-8.184,4.479-9.6c3.878-1.416,8.162,0.549,9.598,4.418
	c0.432,1.164,10.376,28.859-7.155,59.225C292.188,102.864,289.666,104.209,287.075,104.209z"/>
<path style="fill:#E8F7F9;" d="M399.585,388.17c-18.47-7.069-33.009,4.373-33.154,4.489c-3.232,2.594-7.948,2.085-10.545-1.142
	c-2.596-3.227-2.085-7.949,1.143-10.545c0.864-0.696,21.49-16.927,47.918-6.811c3.869,1.481,5.804,5.817,4.324,9.686
	C407.792,387.707,403.463,389.653,399.585,388.17z"/>
<g>
</g>
<g>
</g>
<g>
</g>
<g>
</g>
<g>
</g>
<g>
</g>
<g>
</g>
<g>
</g>
<g>
</g>
<g>
</g>
<g>
</g>
<g>
</g>
<g>
</g>
<g>
</g>
<g>
</g>
</svg>
