<?xml version="1.0" encoding="iso-8859-1"?>
<!-- Generator: Adobe Illustrator 19.0.0, SVG Export Plug-In . SVG Version: 6.00 Build 0)  -->
<svg version="1.1" id="Layer_1" xmlns="http://www.w3.org/2000/svg" xmlns:xlink="http://www.w3.org/1999/xlink" x="0px" y="0px"
	 viewBox="0 0 512 512" style="enable-background:new 0 0 512 512;" xml:space="preserve">
<path style="fill:#98F0E7;" d="M510.582,228.982C497.083,100.299,388.258,0,256,0C114.616,0,0,114.616,0,256
	c0,48.947,13.745,94.68,37.574,133.565L256,411.826L510.582,228.982z"/>
<path style="fill:#34D8C7;" d="M510.582,228.982L370.643,89.043l4.373,52.234L256,22.261v159.113l-12.359,9.954L141.357,89.043
	v184.661l-102.4,82.47l35.259,35.259L256,411.826l218.426-22.261C498.255,350.68,512,304.947,512,256
	C512,246.874,511.514,237.862,510.582,228.982z"/>
<rect x="239.304" y="345.043" style="fill:#D62109;" width="33.391" height="75.687"/>
<rect x="239.304" y="345.043" style="fill:#ED3929;" width="33.391" height="75.687"/>
<rect x="357.287" y="345.043" style="fill:#ED663E;" width="26.713" height="75.687"/>
<polygon style="fill:#046E4A;" points="268.243,276.035 312.13,276.035 268.243,356.174 370.643,356.174 379.548,222.609 
	370.643,89.043 "/>
<g>
	<polygon style="fill:#02432C;" points="473.043,276.035 429.158,276.035 473.043,356.174 370.643,356.174 370.643,89.043 	"/>
	<polygon style="fill:#02432C;" points="128,256 182.857,256 128,356.174 256,356.174 267.13,189.217 256,22.261 	"/>
</g>
<polygon style="fill:#011911;" points="384,256 256,22.261 256,356.174 384,356.174 329.143,256 "/>
<rect x="128" y="345.043" style="fill:#ED663E;" width="26.713" height="75.687"/>
<polygon style="fill:#059866;" points="38.957,276.035 82.843,276.035 38.957,356.174 141.357,356.174 150.261,222.609 
	141.357,89.043 "/>
<g>
	<polygon style="fill:#046E4A;" points="243.757,276.035 199.87,276.035 243.757,356.174 141.357,356.174 141.357,89.043 	"/>
	<path style="fill:#046E4A;" d="M37.574,389.565C82.576,463.002,163.562,512,256,512l11.13-61.217L256,389.565H37.574z"/>
</g>
<path style="fill:#02432C;" d="M256,389.565V512c92.438,0,173.424-48.998,218.426-122.435H256z"/>
<g>
</g>
<g>
</g>
<g>
</g>
<g>
</g>
<g>
</g>
<g>
</g>
<g>
</g>
<g>
</g>
<g>
</g>
<g>
</g>
<g>
</g>
<g>
</g>
<g>
</g>
<g>
</g>
<g>
</g>
</svg>
