<?xml version="1.0" encoding="iso-8859-1"?>
<!-- Generator: Adobe Illustrator 19.0.0, SVG Export Plug-In . SVG Version: 6.00 Build 0)  -->
<svg version="1.1" id="Capa_1" xmlns="http://www.w3.org/2000/svg" xmlns:xlink="http://www.w3.org/1999/xlink" x="0px" y="0px"
	 viewBox="0 0 512 512" style="enable-background:new 0 0 512 512;" xml:space="preserve">
<circle style="fill:#175D76;" cx="256" cy="256" r="256"/>
<path style="fill:#00263F;" d="M512,256c0-6.088-0.228-12.122-0.646-18.103l-106.169-106.17l-286.52,261.53l118.021,118.02
	C243.062,511.753,249.502,512,256,512C397.385,512,512,397.385,512,256z"/>
<circle style="fill:#FFFFFF;" cx="256" cy="256" r="194.17"/>
<g>
	<path style="fill:#E0E0E0;" d="M256,61.833c-0.016,0-0.032,0.001-0.048,0.001v388.332c0.016,0,0.032,0.001,0.048,0.001
		c107.235,0,194.167-86.931,194.167-194.167S363.235,61.833,256,61.833z"/>
	<circle style="fill:#E0E0E0;" cx="256" cy="256" r="137.26"/>
</g>
<path style="fill:#C0C0C0;" d="M256,118.743c-0.016,0-0.032,0.001-0.048,0.001v274.513c0.016,0,0.032,0.001,0.048,0.001
	c75.805,0,137.257-61.452,137.257-137.257S331.805,118.743,256,118.743z"/>
<path style="fill:#FFFFFF;" d="M251.767,349.051c-39.877-17.553-29.517-27.716-10.732-83.539
	c16.906-50.242,74.945-60.607,121.145-34.614s-5.846,43.641-24.304,103.217C322.187,384.752,300.285,370.407,251.767,349.051z"/>
<path style="fill:#E0E0E0;" d="M362.18,230.899c-36.832-20.722-81.187-18.336-106.227,8.94v111.065
	c45.606,20.286,66.693,32.367,81.923-16.788C356.333,274.54,408.38,256.892,362.18,230.899z"/>
<circle style="fill:#FFDC00;" cx="279.68" cy="301.57" r="30.1"/>
<path style="fill:#FFC000;" d="M300.969,280.285c-11.756-11.756-30.815-11.756-42.571,0c-0.884,0.884-1.694,1.814-2.445,2.775
	v37.021c0.751,0.961,1.561,1.891,2.445,2.775c11.755,11.756,30.815,11.756,42.571,0C312.724,311.1,312.724,292.04,300.969,280.285z"
	/>
<g>
	<path style="fill:#FF6838;" d="M239.829,170.745c-34.514,24.605-61.16,58.709-76.687,98.15
		c-4.043,10.271-15.234,15.776-25.823,12.659c-0.137-0.04-0.275-0.081-0.413-0.121c-11.978-3.526-18.385-16.566-13.816-28.186
		c18.581-47.259,50.507-88.12,91.868-117.58c10.17-7.244,24.372-4.181,30.69,6.589c0.073,0.124,0.145,0.247,0.218,0.371
		C251.452,152.147,248.817,164.337,239.829,170.745z"/>
	<path style="fill:#FF6838;" d="M282.163,206.411c-34.514,24.605-61.16,58.709-76.687,98.15
		c-4.043,10.271-15.234,15.776-25.823,12.659c-0.137-0.04-0.275-0.081-0.413-0.121c-11.978-3.526-18.385-16.566-13.816-28.186
		c18.581-47.259,50.507-88.12,91.868-117.58c10.17-7.244,24.372-4.181,30.69,6.589c0.073,0.124,0.145,0.247,0.218,0.371
		C293.785,187.813,291.151,200.004,282.163,206.411z"/>
</g>
<path style="fill:#AE4E32;" d="M288.2,178.293c-0.073-0.124-0.145-0.247-0.218-0.371c-6.318-10.769-20.521-13.832-30.69-6.589
	c-0.45,0.32-0.892,0.65-1.34,0.973v56.08c8.12-7.963,16.875-15.319,26.21-21.975C291.151,200.004,293.785,187.813,288.2,178.293z"/>
<g>
</g>
<g>
</g>
<g>
</g>
<g>
</g>
<g>
</g>
<g>
</g>
<g>
</g>
<g>
</g>
<g>
</g>
<g>
</g>
<g>
</g>
<g>
</g>
<g>
</g>
<g>
</g>
<g>
</g>
</svg>
