<?xml version="1.0" encoding="iso-8859-1"?>
<!-- Generator: Adobe Illustrator 19.0.0, SVG Export Plug-In . SVG Version: 6.00 Build 0)  -->
<svg version="1.1" id="Layer_1" xmlns="http://www.w3.org/2000/svg" xmlns:xlink="http://www.w3.org/1999/xlink" x="0px" y="0px"
	 viewBox="0 0 512 512" style="enable-background:new 0 0 512 512;" xml:space="preserve">
<circle style="fill:#FFEDB5;" cx="256" cy="256" r="256"/>
<path style="fill:#FEE187;" d="M506.089,310.856L341.333,146.101L107.17,365.468l146.503,146.503
	c0.776,0.007,1.55,0.029,2.327,0.029C378.552,512,480.973,425.877,506.089,310.856z"/>
<rect x="170.667" y="146.101" style="fill:#848484;" width="170.667" height="85.333"/>
<rect x="256" y="146.101" style="fill:#686868;" width="85.333" height="85.333"/>
<path style="fill:#444444;" d="M118.158,369.778H393.84c10.274,0,18.604-8.33,18.604-18.604V246.158
	c0-10.274-8.33-18.604-18.604-18.604H118.158c-10.274,0-18.603,8.33-18.603,18.604v105.015
	C99.556,361.448,107.885,369.778,118.158,369.778z"/>
<path style="fill:#2D2D2D;" d="M393.84,227.556H256v142.222h137.84c10.274,0,18.604-8.33,18.604-18.604V246.158
	C412.444,235.885,404.115,227.556,393.84,227.556z"/>
<circle style="fill:#E03A00;" cx="381.845" cy="256" r="6.896"/>
<rect x="170.667" y="312.889" style="fill:#101921;" width="170.667" height="56.889"/>
<rect x="256" y="312.889" width="85.333" height="56.889"/>
<rect x="170.667" y="355.125" style="fill:#7F7F7F;" width="170.667" height="25.859"/>
<rect x="256" y="355.125" style="fill:#686868;" width="85.333" height="25.859"/>
<rect x="170.667" y="348.229" style="fill:#FFFFFF;" width="170.667" height="8.62"/>
<rect x="256" y="348.229" style="fill:#CECECE;" width="85.333" height="8.62"/>
<g>
</g>
<g>
</g>
<g>
</g>
<g>
</g>
<g>
</g>
<g>
</g>
<g>
</g>
<g>
</g>
<g>
</g>
<g>
</g>
<g>
</g>
<g>
</g>
<g>
</g>
<g>
</g>
<g>
</g>
</svg>
