<?xml version="1.0" encoding="iso-8859-1"?>
<!-- Generator: Adobe Illustrator 19.0.0, SVG Export Plug-In . SVG Version: 6.00 Build 0)  -->
<svg version="1.1" id="Capa_1" xmlns="http://www.w3.org/2000/svg" xmlns:xlink="http://www.w3.org/1999/xlink" x="0px" y="0px"
	 viewBox="0 0 512 512" style="enable-background:new 0 0 512 512;" xml:space="preserve">
<g>
	<circle style="fill:#285680;" cx="256" cy="256" r="256"/>
	<circle style="fill:#4482C3;" cx="256" cy="256" r="220.69"/>
	<g>
		<circle style="fill:#ECF0F1;" cx="256" cy="132.414" r="44.138"/>
		<path style="fill:#ECF0F1;" d="M308.966,379.586c-4.875,0-8.828-3.952-8.828-8.828V220.69c0-4.875-3.952-8.828-8.828-8.828
			H185.379c-4.875,0-8.828,3.952-8.828,8.828v17.655c0,4.875,3.952,8.828,8.828,8.828h17.655c4.875,0,8.828,3.952,8.828,8.828
			v114.759c0,4.875-3.952,8.828-8.828,8.828h-17.655c-4.875,0-8.828,3.952-8.828,8.828v17.655c0,4.875,3.952,8.828,8.828,8.828
			h132.414c4.875,0,8.828-3.952,8.828-8.828v-17.655c0-4.875-3.952-8.828-8.828-8.828H308.966z"/>
	</g>
</g>
<g>
</g>
<g>
</g>
<g>
</g>
<g>
</g>
<g>
</g>
<g>
</g>
<g>
</g>
<g>
</g>
<g>
</g>
<g>
</g>
<g>
</g>
<g>
</g>
<g>
</g>
<g>
</g>
<g>
</g>
</svg>
