<?xml version="1.0" encoding="iso-8859-1"?>
<!-- Generator: Adobe Illustrator 19.0.0, SVG Export Plug-In . SVG Version: 6.00 Build 0)  -->
<svg version="1.1" id="Layer_1" xmlns="http://www.w3.org/2000/svg" xmlns:xlink="http://www.w3.org/1999/xlink" x="0px" y="0px"
	 viewBox="0 0 512 512" style="enable-background:new 0 0 512 512;" xml:space="preserve">
<circle style="fill:#B5F1F4;" cx="256" cy="256" r="256"/>
<path style="fill:#84DBFF;" d="M285.605,510.286C413.041,495.609,512,387.37,512,256c0-19.568-2.205-38.621-6.363-56.93
	l-85.292-85.292l-101.783,81.754l-86.221-86.683l-62.242,9.94l-3.313,44.408l-8.813,52.334l-11.802,82.082l-44.461,3.639
	l44.463,44.463l-3.951,24.062L285.605,510.286z"/>
<path style="fill:#324A5E;" d="M404.256,241.347c-2.381,0-4.31-1.929-4.31-4.31V123.259c0-2.381,1.929-4.31,4.31-4.31
	s4.31,1.929,4.31,4.31v113.778C408.566,239.418,406.637,241.347,404.256,241.347z"/>
<polygon style="fill:#FC6F58;" points="284.444,227.556 391.901,113.778 420.345,113.778 341.333,227.556 "/>
<rect x="272.377" y="173.253" style="fill:#324A5E;" width="99.987" height="48.269"/>
<rect x="321.508" y="173.253" style="fill:#2B3B4E;" width="50.855" height="48.269"/>
<rect x="265.481" y="199.111" style="fill:#4D6677;" width="113.778" height="85.333"/>
<rect x="321.508" y="199.111" style="fill:#324A5E;" width="57.751" height="85.333"/>
<path style="fill:#31BAFD;" d="M18.847,352.539C56.96,446.067,148.773,512,256,512s199.04-65.933,237.153-159.461H18.847z"/>
<rect x="142.222" y="284.444" style="fill:#2B3B4E;" width="28.444" height="85.333"/>
<rect x="341.333" y="284.444" style="fill:#21303F;" width="28.444" height="85.333"/>
<path style="fill:#FC6F58;" d="M262.801,283.312l-28.444-170.667c-0.553-3.325-3.431-5.763-6.801-5.763h-56.889
	c-3.37,0-6.247,2.438-6.801,5.763l-28.444,170.667c-0.333,1.998,0.229,4.044,1.541,5.591c1.31,1.545,3.234,2.438,5.261,2.438
	h113.778c2.027,0,3.951-0.893,5.261-2.438C262.572,287.354,263.135,285.31,262.801,283.312z M166.334,181.71l21.616,14.86
	l-27.21,18.708L166.334,181.71z M237.37,214.609l-26.236-18.039l20.842-14.329L237.37,214.609z M230.212,225.626l-30.67,17.155
	l-30.67-17.155l30.67-21.085L230.212,225.626z M199.542,188.602l-22.166-15.239l22.166-9.499l22.166,9.499L199.542,188.602z
	 M216.214,156.719l10.74-4.603l1.653,9.914L216.214,156.719z M187.644,144.474l11.898-5.949l11.898,5.949l-11.898,5.099
	L187.644,144.474z M224.304,136.221l-10.076-5.039l8.526-4.263L224.304,136.221z M199.542,123.838l-6.332-3.165h12.664
	L199.542,123.838z M184.856,131.182l-11.017,5.508l1.695-10.169L184.856,131.182z M171.325,151.769l11.545,4.948l-13.322,5.71
	L171.325,151.769z M157.562,234.349l28.527,15.956l-34.394,19.237L157.562,234.349z M199.542,257.829l35.256,19.72h-70.511
	L199.542,257.829z M212.995,250.306l27.739-15.515l5.703,34.22L212.995,250.306z"/>
<path style="fill:#F1543F;" d="M262.801,283.312l-28.444-170.667c-0.553-3.325-3.431-5.763-6.801-5.763h-27.869v13.791h6.187
	l-6.187,3.094v14.829l11.754,5.877l-11.754,5.037v14.414l22.021,9.438l-22.021,15.141v16.137l30.525,20.987l-30.525,17.074v15.21
	l35.111,19.637h-35.111v13.791H256c2.027,0,3.951-0.893,5.261-2.438C262.572,287.354,263.135,285.31,262.801,283.312z
	 M222.754,126.919l1.55,9.302l-10.076-5.039L222.754,126.919z M216.214,156.719l10.74-4.603l1.653,9.914L216.214,156.719z
	 M211.134,196.572l20.842-14.329l5.394,32.368L211.134,196.572z M212.995,250.306l27.739-15.515l5.703,34.22L212.995,250.306z"/>
<g>
	<rect x="101.71" y="272.808" style="fill:#324A5E;" width="308.579" height="28.444"/>
	<rect x="101.71" y="272.808" style="fill:#324A5E;" width="152.566" height="28.444"/>
</g>
<rect x="254.276" y="272.808" style="fill:#2B3B4E;" width="156.013" height="28.444"/>
<g>
</g>
<g>
</g>
<g>
</g>
<g>
</g>
<g>
</g>
<g>
</g>
<g>
</g>
<g>
</g>
<g>
</g>
<g>
</g>
<g>
</g>
<g>
</g>
<g>
</g>
<g>
</g>
<g>
</g>
</svg>
