<?xml version="1.0" encoding="iso-8859-1"?>
<!-- Generator: Adobe Illustrator 19.0.0, SVG Export Plug-In . SVG Version: 6.00 Build 0)  -->
<svg version="1.1" id="Layer_1" xmlns="http://www.w3.org/2000/svg" xmlns:xlink="http://www.w3.org/1999/xlink" x="0px" y="0px"
	 viewBox="0 0 508 508" style="enable-background:new 0 0 508 508;" xml:space="preserve">
<circle style="fill:#FFD05B;" cx="254" cy="254" r="254"/>
<path style="fill:#F9B54C;" d="M83.2,442c45.2,40.8,104.8,66,170.8,66s125.6-24.8,170.8-66H83.2z"/>
<g>
	<rect x="63.6" y="151.6" style="fill:#E6E9EE;" width="106" height="290.8"/>
	<rect x="338.4" y="151.6" style="fill:#E6E9EE;" width="106" height="290.8"/>
</g>
<g>
	<rect x="74.4" y="170.4" style="fill:#54C0EB;" width="95.2" height="31.6"/>
	<rect x="338.4" y="170.4" style="fill:#54C0EB;" width="95.2" height="31.6"/>
	<rect x="74.4" y="213.2" style="fill:#54C0EB;" width="95.2" height="31.6"/>
	<rect x="338.4" y="213.2" style="fill:#54C0EB;" width="95.2" height="31.6"/>
	<rect x="74.4" y="256.4" style="fill:#54C0EB;" width="95.2" height="31.6"/>
	<rect x="338.4" y="256.4" style="fill:#54C0EB;" width="95.2" height="31.6"/>
	<rect x="74.4" y="299.2" style="fill:#54C0EB;" width="95.2" height="31.6"/>
	<rect x="338.4" y="299.2" style="fill:#54C0EB;" width="95.2" height="31.6"/>
	<rect x="74.4" y="342.4" style="fill:#54C0EB;" width="95.2" height="31.6"/>
	<rect x="338.4" y="342.4" style="fill:#54C0EB;" width="95.2" height="31.6"/>
</g>
<rect x="63.6" y="420.4" style="fill:#CED5E0;" width="380.8" height="22"/>
<g>
	<rect x="50.4" y="136.4" style="fill:#324A5E;" width="119.2" height="15.2"/>
	<rect x="338.4" y="136.4" style="fill:#324A5E;" width="119.2" height="15.2"/>
	<rect x="162.8" y="65.6" style="fill:#324A5E;" width="182.4" height="15.2"/>
</g>
<rect x="169.6" y="80.8" style="fill:#FFFFFF;" width="169.2" height="361.6"/>
<rect x="169.6" y="420.4" style="fill:#E6E9EE;" width="169.2" height="22"/>
<g>
	<rect x="180" y="93.2" style="fill:#84DBFF;" width="148" height="30.4"/>
	<rect x="180" y="139.6" style="fill:#84DBFF;" width="148" height="30.4"/>
	<rect x="180" y="185.6" style="fill:#84DBFF;" width="148" height="30.4"/>
	<rect x="180" y="231.6" style="fill:#84DBFF;" width="148" height="30.4"/>
	<rect x="180" y="277.6" style="fill:#84DBFF;" width="148" height="30.4"/>
	<rect x="180" y="323.6" style="fill:#84DBFF;" width="148" height="30.4"/>
</g>
<rect x="227.2" y="381.2" style="fill:#324A5E;" width="53.6" height="60.8"/>
<g>
</g>
<g>
</g>
<g>
</g>
<g>
</g>
<g>
</g>
<g>
</g>
<g>
</g>
<g>
</g>
<g>
</g>
<g>
</g>
<g>
</g>
<g>
</g>
<g>
</g>
<g>
</g>
<g>
</g>
</svg>
