<?xml version="1.0" encoding="iso-8859-1"?>
<!-- Generator: Adobe Illustrator 19.0.0, SVG Export Plug-In . SVG Version: 6.00 Build 0)  -->
<svg version="1.1" id="Capa_1" xmlns="http://www.w3.org/2000/svg" xmlns:xlink="http://www.w3.org/1999/xlink" x="0px" y="0px"
	 viewBox="0 0 512 512" style="enable-background:new 0 0 512 512;" xml:space="preserve">
<circle style="fill:#733C81;" cx="256" cy="256" r="256"/>
<path style="fill:#4A2859;" d="M310.474,506.172c96.235-20.858,172.3-95.815,194.748-191.447L330.119,139.621l-7.238,36.26
	L215.333,68.333l-7.549,169.614l-24.854,19.616l26.344,26.344l-2.003,72.951l76.505,76.505L249.303,445L310.474,506.172z"/>
<path style="fill:#91CCFE;" d="M353.364,445c-13.14-14.614-33.291-48.358-44.26-65.306C326.285,353.151,366,285.388,366,226.117
	c0-75.629-64.667-108.784-64.667-108.784s-64.667,33.154-64.667,108.783c0,59.271,39.714,127.034,56.896,153.577
	c-10.969,16.947-31.12,50.692-44.26,65.306L353.364,445z"/>
<path style="fill:#228CE4;" d="M309.104,379.694C326.286,353.151,366,285.388,366,226.117c0-75.63-64.667-108.784-64.667-108.784
	s0.481,0.132,0,0.397V445h52.03C340.223,430.386,320.073,396.642,309.104,379.694z"/>
<path style="fill:#C5E4F9;" d="M301.333,117.333c0,0-39.654,20.335-56.857,65.475C257.183,200.48,277.906,212,301.333,212
	s44.151-11.52,56.857-29.192C340.988,137.668,301.333,117.333,301.333,117.333z"/>
<path style="fill:#91CCFE;" d="M301.333,212c23.427,0,44.151-11.52,56.857-29.192c-17.203-45.14-56.857-65.475-56.857-65.475V212z"
	/>
<circle style="fill:#228CE4;" cx="301.33" cy="158.67" r="13.333"/>
<path style="fill:#0666A9;" d="M301.333,172c7.364,0,13.333-5.969,13.333-13.333c0-7.364-5.97-13.333-13.333-13.333V172z"/>
<path style="fill:#FFFFFF;" d="M251.333,378.333c-30.878,0-56-25.121-56-56v-254h20v254c0,19.85,16.149,36,36,36s36-16.149,36-36
	v-37.16l-14.364,21.399l-16.605-11.146l50.97-75.934v102.841C307.333,353.212,282.212,378.333,251.333,378.333z"/>
<path style="fill:#E6E6E6;" d="M256.364,295.427l16.605,11.146l14.364-21.399v37.16c0,19.85-16.149,36-36,36
	c-0.048,0-0.095-0.003-0.143-0.004v20c0.048,0,0.095,0.004,0.143,0.004c30.878,0,56-25.121,56-56V219.493L256.364,295.427z"/>
<circle style="fill:#D63546;" cx="205.33" cy="235.67" r="31.33"/>
<path style="fill:#C20231;" d="M236.667,235.667c0-17.297-14.016-31.32-31.31-31.333v62.665
	C222.651,266.986,236.667,252.964,236.667,235.667z"/>
<g>
</g>
<g>
</g>
<g>
</g>
<g>
</g>
<g>
</g>
<g>
</g>
<g>
</g>
<g>
</g>
<g>
</g>
<g>
</g>
<g>
</g>
<g>
</g>
<g>
</g>
<g>
</g>
<g>
</g>
</svg>
