<?xml version="1.0" encoding="iso-8859-1"?>
<!-- Generator: Adobe Illustrator 19.0.0, SVG Export Plug-In . SVG Version: 6.00 Build 0)  -->
<svg version="1.1" id="Capa_1" xmlns="http://www.w3.org/2000/svg" xmlns:xlink="http://www.w3.org/1999/xlink" x="0px" y="0px"
	 viewBox="0 0 512 512" style="enable-background:new 0 0 512 512;" xml:space="preserve">
<path style="fill:#34ABE0;" d="M511.619,256.381c0,19.02-2.076,37.55-6.02,55.391c-18.989,85.94-81.224,155.636-162.72,185.079
	c-18.885,6.834-38.812,11.498-59.471,13.699C274.405,511.51,265.265,512,256,512c-112.525,0-208.074-72.711-242.223-173.717
	C5.702,314.37,1.059,288.881,0.454,262.401c-0.052-2.003-0.073-4.006-0.073-6.02c0-5.791,0.188-11.539,0.574-17.226
	c1.909-28.671,8.535-56.038,19.124-81.35c3.829-9.15,8.169-18.029,13-26.605C76.889,53.346,160.305,0.762,256,0.762
	C397.175,0.762,511.619,115.206,511.619,256.381z"/>
<path style="fill:#5C5E70;" d="M505.599,294.745v17.027c-5.655,25.572-15.128,49.715-27.816,71.782
	c-18.05,31.415-42.589,58.636-71.782,79.816c-19.198,13.939-40.409,25.28-63.122,33.481c-6.531,2.358-13.177,4.466-19.949,6.291
	c-12.802,3.474-26,5.968-39.522,7.408c-2.473,0.261-4.966,0.49-7.46,0.689c-6.437,0.49-12.937,0.751-19.511,0.762H256
	c-64.458,0-123.334-23.861-168.302-63.227c-17.716-15.494-33.262-33.408-46.147-53.211c-11.508-17.695-20.888-36.913-27.774-57.28
	h12.927c4.038,0,7.303-3.266,7.303-7.303v-26.845c0-4.038,3.266-7.303,7.303-7.303h21.91c4.038,0,7.303,3.266,7.303,7.303v52.167
	c0,4.038,3.266,7.303,7.303,7.303h16.693c4.038,0,7.303-3.266,7.303-7.303v-28.17c0-4.038,3.266-7.303,7.303-7.303h44.864
	c4.038,0,7.303-3.266,7.303-7.303v-40.69c0-4.038,3.266-7.303,7.303-7.303h21.91c4.038,0,7.303,3.266,7.303,7.303v73.034
	c0,4.038,3.266,7.303,7.303,7.303h15.65c4.038,0,7.303-3.266,7.303-7.303v-17.737c0-4.038,3.266-7.303,7.303-7.303h33.387
	c3.61,0,6.604,2.608,7.189,6.051c0.073,0.407,0.115,0.824,0.115,1.252v4.173c0,4.038,3.266,7.303,7.303,7.303h11.477
	c4.038,0,7.303,3.266,7.303,7.303v6.26c0,4.038,3.266,7.303,7.303,7.303h21.91c4.038,0,7.303-3.266,7.303-7.303v-43.82
	c0-4.038,3.266-7.303,7.303-7.303h18.78c4.038,0,7.303-3.266,7.303-7.303v-10.433c0-4.038,3.266-7.303,7.303-7.303h6.26
	c4.038,0,7.303,3.266,7.303,7.303v11.477c0,4.038,3.266,7.303,7.303,7.303c2.014,0,3.85,0.814,5.165,2.139
	c1.325,1.325,2.139,3.14,2.139,5.165v12.52c0,4.038,3.266,7.303,7.303,7.303h15.65c4.038,0,7.303,3.266,7.303,7.303v15.65
	c0,4.038,3.266,7.303,7.303,7.303h30.257c4.038,0,7.303-3.266,7.303-7.303v-58.427c0-4.038,3.266-7.303,7.303-7.303h8.347
	C502.333,287.441,505.599,290.707,505.599,294.745z"/>
<path style="fill:#78CAEF;" d="M236.072,214.908c2.4,2.41,3.892,5.738,3.892,9.411c0,7.345-5.958,13.303-13.303,13.303h-1.304
	c-3.673,0-7.001,1.492-9.401,3.892c-2.41,2.41-3.902,5.738-3.902,9.411c0,7.356-5.958,13.303-13.303,13.303H7.163
	c-2.452,0-4.737-0.657-6.709-1.826c-0.052-2.003-0.073-4.006-0.073-6.02c0-5.791,0.188-11.539,0.574-17.226
	c1.857-0.981,3.965-1.534,6.208-1.534h40.44c3.673,0,7.001-1.492,9.411-3.892c2.4-2.41,3.892-5.738,3.892-9.411
	c0-7.345-5.957-13.303-13.303-13.303H36.314c-3.673,0-7.001-1.492-9.411-3.892c-2.4-2.41-3.892-5.738-3.892-9.411
	c0-7.345,5.957-13.303,13.303-13.303h37.362c3.673,0,7.001-1.492,9.401-3.892c2.41-2.41,3.902-5.738,3.902-9.411
	c0-7.345-5.957-13.303-13.303-13.303H20.079c3.829-9.15,8.169-18.029,13-26.605h162.542c3.673,0,7.001,1.492,9.401,3.892
	c2.41,2.41,3.902,5.738,3.902,9.411c0,7.345,5.958,13.303,13.303,13.303h4.434c7.345,0,13.303,5.958,13.303,13.303
	c0,7.345-5.958,13.303-13.303,13.303h-24.393c-3.673,0-7.001,1.492-9.411,3.892c-2.4,2.41-3.892,5.738-3.892,9.411
	c0,7.345,5.958,13.303,13.303,13.303h24.393C230.334,211.016,233.662,212.508,236.072,214.908z"/>
<g>
	<path style="fill:#797B89;" d="M477.784,383.554c-18.05,31.415-42.589,58.636-71.782,79.816h-7.439
		c-3.673,0-7.001-1.482-9.411-3.892c-2.4-2.41-3.892-5.728-3.892-9.411c0-7.345,5.957-13.303,13.303-13.303h3.693
		c3.673,0,7.001-1.492,9.411-3.902c2.4-2.4,3.892-5.728,3.892-9.401c0-7.345-5.957-13.303-13.303-13.303H366
		c-3.683,0-7.001-1.492-9.411-3.902c-2.41-2.4-3.902-5.728-3.902-9.401c0-7.345,5.957-13.303,13.313-13.303H477.784z"/>
	<path style="fill:#797B89;" d="M174.118,435.471c0,7.356-5.958,13.303-13.303,13.303H87.698
		c-17.716-15.494-33.262-33.408-46.147-53.211h92.659c7.345,0,13.303,5.957,13.303,13.303c0,3.673,1.492,7.001,3.902,9.411
		c2.4,2.4,5.728,3.892,9.401,3.892s7.001,1.492,9.401,3.892C172.626,428.47,174.118,431.798,174.118,435.471z"/>
</g>
<path style="fill:#FFD15C;" d="M322.931,295.099v208.043c-12.802,3.474-26,5.968-39.522,7.408c-2.473,0.261-4.966,0.49-7.46,0.689
	c-6.437,0.49-12.937,0.751-19.511,0.762V295.099H322.931z"/>
<g>
	<path style="fill:#EDBB4C;" d="M275.949,295.099v216.139c-6.437,0.49-12.937,0.751-19.511,0.762V295.099H275.949z"/>
	<polygon style="fill:#EDBB4C;" points="322.934,300.452 256.434,300.452 256.434,355.285 322.934,331.951 	"/>
</g>
<rect x="101.851" y="248.504" style="fill:#EF4152;" width="375.666" height="59.502"/>
<rect x="67.746" y="14.381" style="fill:#FF525D;" width="443.87" height="260.638"/>
<rect x="86.51" y="32.334" style="fill:#F9EED7;" width="406.341" height="226.666"/>
<g>
	<path style="fill:#5C5E70;" d="M191.951,14.381h-77V0h64.138c7.103,0,12.861,5.758,12.861,12.861L191.951,14.381L191.951,14.381z"
		/>
	<path style="fill:#5C5E70;" d="M194.583,14.381h-5.263c-12.295,0-22.261,9.967-22.261,22.261v11.191h49.785v-11.19
		C216.844,24.349,206.877,14.381,194.583,14.381z"/>
	<path style="fill:#5C5E70;" d="M473.12,14.381h-77V0h64.138c7.103,0,12.861,5.758,12.861,12.861V14.381z"/>
	<path style="fill:#5C5E70;" d="M475.751,14.381h-5.263c-12.295,0-22.261,9.967-22.261,22.261v11.191h49.785v-11.19
		C498.012,24.349,488.046,14.381,475.751,14.381z"/>
	<path style="fill:#5C5E70;" d="M332.536,14.381h-77V0h64.139c7.103,0,12.861,5.758,12.861,12.861L332.536,14.381L332.536,14.381z"
		/>
	<path style="fill:#5C5E70;" d="M335.167,14.381h-5.263c-12.295,0-22.261,9.967-22.261,22.261v11.191h49.785v-11.19
		C357.429,24.349,347.462,14.381,335.167,14.381z"/>
</g>
<g>
	<path style="fill:#C69A6A;" d="M231.536,81.391c-4.999,0-7.833,2.761-7.833,8.579v20.814c0,5.819,2.835,8.579,7.982,8.579
		c6.789,0,7.386-4.849,7.61-7.983c0.149-2.313,2.238-3.059,4.774-3.059c3.357,0,4.924,0.969,4.924,4.774
		c0,9.027-7.385,14.771-17.83,14.771c-9.401,0-17.158-4.625-17.158-17.084V89.971c0-12.459,7.833-17.084,17.233-17.084
		c10.37,0,17.756,5.52,17.756,14.175c0,3.879-1.566,4.774-4.848,4.774c-2.761,0-4.774-0.821-4.848-3.059
		C239.145,86.464,238.623,81.391,231.536,81.391z"/>
	<path style="fill:#C69A6A;" d="M251.748,123.392c0-0.149,0.074-0.448,0.149-0.746l14.399-46.924
		c0.672-2.238,3.432-3.282,6.192-3.282c2.835,0,5.594,1.044,6.266,3.282l14.398,46.924c0.075,0.298,0.15,0.522,0.15,0.746
		c0,2.313-3.506,4.028-6.117,4.028c-1.641,0-2.91-0.522-3.282-1.94l-2.835-9.922h-17.084l-2.835,9.922
		c-0.374,1.418-1.641,1.94-3.282,1.94C255.254,127.42,251.748,125.779,251.748,123.392z M278.978,107.95l-6.491-22.902
		l-6.491,22.902H278.978z"/>
	<path style="fill:#C69A6A;" d="M302.697,127.42c-2.164,0-4.253-1.044-4.253-3.059v-48.49c0-2.089,2.387-2.984,4.848-2.984
		c2.387,0,4.849,0.895,4.849,2.984v43.045h18.202c1.94,0,2.909,2.089,2.909,4.253c0,2.089-0.969,4.253-2.909,4.253h-23.647V127.42z"
		/>
	<path style="fill:#C69A6A;" d="M338.801,127.42c-2.164,0-4.253-1.044-4.253-3.059v-48.49c0-2.089,2.387-2.984,4.848-2.984
		c2.387,0,4.849,0.895,4.849,2.984v43.045h18.202c1.94,0,2.909,2.089,2.909,4.253c0,2.089-0.969,4.253-2.909,4.253h-23.647V127.42z"
		/>
</g>
<g>
	<path style="fill:#F4A14E;" d="M185.659,171.122l-2.387,2.387c-0.597,0.522-1.269,0.672-1.79,0.672
		c-1.865,0-3.133-1.94-3.133-3.879c0-1.343,0.672-2.761,1.864-3.507l8.804-6.714c0.522-0.448,1.194-0.746,2.015-0.746
		c2.015,0,4.327,1.194,4.327,3.133v48.491c0,2.015-2.462,3.059-4.849,3.059c-2.461,0-4.848-1.044-4.848-3.059v-39.838H185.659z"/>
	<path style="fill:#F4A14E;" d="M218.632,159.483c8.653,0,16.711,5.67,16.711,15.144c0,16.114-23.649,21.336-23.649,29.095v1.79
		h20.74c1.641,0,3.059,1.94,3.059,4.178s-1.417,4.327-3.059,4.327h-26.558c-1.716,0-4.252-1.194-4.252-3.059v-7.237
		c0-11.936,24.021-18.277,24.021-28.796c0-3.059-2.015-6.64-6.937-6.64c-3.656,0-6.639,1.94-6.639,6.565
		c0,1.79-1.865,3.581-5.073,3.581c-2.537,0-4.402-1.194-4.402-5.222C202.592,164.706,210.35,159.483,218.632,159.483z"/>
	<path style="fill:#F4A14E;" d="M264.283,197.904v-1.418c0-5.52-3.432-7.087-8.206-7.087c-2.164,0-2.91-1.865-2.91-3.804
		c0-1.865,0.746-3.805,2.91-3.805c3.73,0,6.863-0.895,6.863-7.311c0-4.924-2.537-6.565-6.565-6.565c-4.849,0-6.64,2.015-6.64,4.999
		c0,2.238-1.044,3.73-4.625,3.73c-4.327,0-4.999-1.044-4.999-4.178c0-5.297,3.73-12.981,16.338-12.981
		c9.026,0,15.741,3.432,15.741,13.354c0,5.894-2.163,10.668-5.819,12.383c4.402,1.716,7.609,5.073,7.609,11.265v1.418
		c0,12.011-8.057,16.562-17.904,16.562c-12.235,0-17.159-7.535-17.159-13.577c0-2.984,1.269-3.805,4.626-3.805
		c3.954,0,4.999,1.044,4.999,3.432c0,3.357,2.983,5.446,7.758,5.446C261.896,205.961,264.283,203.574,264.283,197.904z"/>
	<path style="fill:#F4A14E;" d="M281.961,192.085h19.397c1.566,0,3.133,1.79,3.133,4.028c0,2.387-1.567,3.954-3.133,3.954h-19.397
		c-1.791,0-2.984-1.566-2.984-3.954C278.977,193.875,280.169,192.085,281.961,192.085z"/>
	<path style="fill:#F4A14E;" d="M333.954,197.904v-1.418c0-5.52-3.432-7.087-8.206-7.087c-2.164,0-2.91-1.865-2.91-3.804
		c0-1.865,0.746-3.805,2.91-3.805c3.73,0,6.863-0.895,6.863-7.311c0-4.924-2.537-6.565-6.565-6.565c-4.849,0-6.64,2.015-6.64,4.999
		c0,2.238-1.044,3.73-4.625,3.73c-4.327,0-4.999-1.044-4.999-4.178c0-5.297,3.73-12.981,16.338-12.981
		c9.026,0,15.741,3.432,15.741,13.354c0,5.894-2.163,10.668-5.819,12.383c4.402,1.716,7.609,5.073,7.609,11.265v1.418
		c0,12.011-8.057,16.562-17.904,16.562c-12.235,0-17.159-7.535-17.159-13.577c0-2.984,1.269-3.805,4.626-3.805
		c3.954,0,4.999,1.044,4.999,3.432c0,3.357,2.983,5.446,7.758,5.446C331.567,205.961,333.954,203.574,333.954,197.904z"/>
	<path style="fill:#F4A14E;" d="M364.985,159.483c8.654,0,16.711,5.67,16.711,15.144c0,16.114-23.649,21.336-23.649,29.095v1.79
		h20.74c1.641,0,3.059,1.94,3.059,4.178s-1.417,4.327-3.059,4.327h-26.558c-1.716,0-4.252-1.194-4.252-3.059v-7.237
		c0-11.936,24.021-18.277,24.021-28.796c0-3.059-2.015-6.64-6.937-6.64c-3.656,0-6.639,1.94-6.639,6.565
		c0,1.79-1.866,3.581-5.073,3.581c-2.537,0-4.402-1.194-4.402-5.222C348.945,164.706,356.704,159.483,364.985,159.483z"/>
	<path style="fill:#F4A14E;" d="M391.315,171.122l-2.387,2.387c-0.597,0.522-1.269,0.672-1.79,0.672
		c-1.865,0-3.133-1.94-3.133-3.879c0-1.343,0.672-2.761,1.864-3.507l8.804-6.714c0.522-0.448,1.194-0.746,2.015-0.746
		c2.015,0,4.327,1.194,4.327,3.133v48.491c0,2.015-2.462,3.059-4.849,3.059c-2.461,0-4.848-1.044-4.848-3.059v-39.838H391.315z"/>
</g>
<path style="fill:#FCF8F2;" d="M458.912,227.449h-10.397c-7.213,0-13.061-5.847-13.061-13.061V76.705
	c0-7.213,5.847-13.061,13.061-13.061h10.397c7.213,0,13.061,5.847,13.061,13.061v137.685
	C471.972,221.602,466.125,227.449,458.912,227.449z"/>
<g>
	<circle style="fill:#797B89;" cx="199.832" cy="29.391" r="7.825"/>
	<circle style="fill:#797B89;" cx="343.646" cy="29.391" r="7.825"/>
	<circle style="fill:#797B89;" cx="481.889" cy="29.391" r="7.825"/>
</g>
<path style="fill:#FFDC8D;" d="M311.645,455.594h-9.738c-3.842,0-6.956-3.114-6.956-6.956v-76.512c0-3.842,3.114-6.956,6.956-6.956
	h9.738c3.842,0,6.956,3.114,6.956,6.956v76.512C318.601,452.479,315.486,455.594,311.645,455.594z"/>
<g>
</g>
<g>
</g>
<g>
</g>
<g>
</g>
<g>
</g>
<g>
</g>
<g>
</g>
<g>
</g>
<g>
</g>
<g>
</g>
<g>
</g>
<g>
</g>
<g>
</g>
<g>
</g>
<g>
</g>
</svg>
