<?xml version="1.0" encoding="iso-8859-1"?>
<!-- Generator: Adobe Illustrator 19.0.0, SVG Export Plug-In . SVG Version: 6.00 Build 0)  -->
<svg version="1.1" id="Layer_1" xmlns="http://www.w3.org/2000/svg" xmlns:xlink="http://www.w3.org/1999/xlink" x="0px" y="0px"
	 viewBox="0 0 506 506" style="enable-background:new 0 0 506 506;" xml:space="preserve">
<circle style="fill:#324A5E;" cx="253" cy="253" r="253"/>
<path style="fill:#CED5E0;" d="M360.1,154.7h-23.7v-35.1c0-4.9-4-8.9-8.9-8.9H178.6c-4.9,0-8.9,4-8.9,8.9v35.1H146v-55
	c0-7,5.7-12.7,12.7-12.7h188.8c7,0,12.7,5.7,12.7,12.7v55H360.1z"/>
<path style="fill:#2C9984;" d="M406.5,403.2h-307c-2.6,0-4.6-2.1-4.6-4.6V230.4h316.3v168.1C411.1,401.1,409.1,403.2,406.5,403.2z"
	/>
<path style="fill:#FFFFFF;" d="M418.3,161.3H87.7c-1.4,0-2.6,1.1-2.6,2.6v66.5h335.7v-66.5C420.8,162.5,419.7,161.3,418.3,161.3z"/>
<g>
	<path style="fill:#ACB3BA;" d="M177.8,161.3h-40v-16.2c0-0.6,0.5-1.1,1.1-1.1h37.8c0.6,0,1.1,0.5,1.1,1.1L177.8,161.3L177.8,161.3z
		"/>
	<path style="fill:#ACB3BA;" d="M368.2,161.3h-40v-16.2c0-0.6,0.5-1.1,1.1-1.1h37.8c0.6,0,1.1,0.5,1.1,1.1V161.3z"/>
</g>
<path style="fill:#2B3B4E;" d="M275,257.1v-53.2c0-5.4-4.4-9.8-9.8-9.8h-24.5c-5.4,0-9.8,4.4-9.8,9.8v53.2c0,5.4,4.4,9.8,9.8,9.8
	h24.5C270.7,266.9,275,262.5,275,257.1z"/>
<ellipse style="fill:#FFFFFF;" cx="253" cy="330.7" rx="53.7" ry="53.6"/>
<polygon style="fill:#F1543F;" points="295.3,320.1 263.6,320.1 263.6,288.4 242.4,288.4 242.4,320.1 210.7,320.1 210.7,341.2 
	242.4,341.2 242.4,372.9 263.6,372.9 263.6,341.2 295.3,341.2 "/>
<g>
</g>
<g>
</g>
<g>
</g>
<g>
</g>
<g>
</g>
<g>
</g>
<g>
</g>
<g>
</g>
<g>
</g>
<g>
</g>
<g>
</g>
<g>
</g>
<g>
</g>
<g>
</g>
<g>
</g>
</svg>
