<?xml version="1.0" encoding="iso-8859-1"?>
<!-- Generator: Adobe Illustrator 19.0.0, SVG Export Plug-In . SVG Version: 6.00 Build 0)  -->
<svg version="1.1" id="Layer_1" xmlns="http://www.w3.org/2000/svg" xmlns:xlink="http://www.w3.org/1999/xlink" x="0px" y="0px"
	 viewBox="0 0 512 512" style="enable-background:new 0 0 512 512;" xml:space="preserve">
<circle style="fill:#E6F3FF;" cx="256" cy="256" r="256"/>
<path style="fill:#CFDBE6;" d="M512,256c0-8.759-0.443-17.415-1.302-25.948l-78.503-78.503l-256.55,106.63L91.439,360.451
	l151.204,151.204C247.067,511.883,251.52,512,256,512C397.384,512,512,397.384,512,256z"/>
<rect x="91.436" y="174.097" style="fill:#324A5E;" width="329.111" height="186.354"/>
<rect x="255" y="174.097" style="fill:#2B3B4E;" width="165.564" height="186.354"/>
<rect x="122.535" y="226.969" style="fill:#84DBFF;" width="266.93" height="85.911"/>
<rect x="255" y="226.969" style="fill:#31BAFD;" width="134.465" height="85.911"/>
<path style="fill:#FD8469;" d="M102.645,210.672L102.645,210.672c-12.614,0-22.84-10.226-22.84-22.84v-36.283h45.68v36.283
	C125.485,200.445,115.259,210.672,102.645,210.672z"/>
<path style="fill:#F1543F;" d="M146.461,210.672L146.461,210.672c-12.614,0-22.84-10.226-22.84-22.84v-36.283h45.68v36.283
	C169.301,200.445,159.075,210.672,146.461,210.672z"/>
<path style="fill:#FD8469;" d="M190.276,210.672L190.276,210.672c-12.614,0-22.84-10.226-22.84-22.84v-36.283h45.68v36.283
	C213.116,200.445,202.89,210.672,190.276,210.672z"/>
<path style="fill:#F1543F;" d="M234.093,210.672L234.093,210.672c-12.614,0-22.84-10.226-22.84-22.84v-36.283h45.68v36.283
	C256.933,200.445,246.706,210.672,234.093,210.672z"/>
<g>
	<path style="fill:#FC6F58;" d="M277.907,210.672L277.907,210.672c-12.614,0-22.84-10.226-22.84-22.84v-36.283h45.68v36.283
		C300.747,200.445,290.523,210.672,277.907,210.672z"/>
	<path style="fill:#FC6F58;" d="M365.54,210.672L365.54,210.672c-12.614,0-22.84-10.226-22.84-22.84v-36.283h45.68v36.283
		C388.38,200.445,378.154,210.672,365.54,210.672z"/>
</g>
<g>
	<path style="fill:#D83E20;" d="M321.724,210.672L321.724,210.672c-12.614,0-22.84-10.226-22.84-22.84v-36.283h45.68v36.283
		C344.564,200.445,334.338,210.672,321.724,210.672z"/>
	<path style="fill:#D83E20;" d="M409.355,210.672L409.355,210.672c-12.614,0-22.84-10.226-22.84-22.84v-36.283h45.68v36.283
		C432.195,200.445,421.969,210.672,409.355,210.672z"/>
	<path style="fill:#D83E20;" d="M146.017,136.363c-0.783-0.553-1.739-1.029-2.843-1.415c-1.076-0.374-2.298-0.722-3.627-1.034
		c-1.046-0.264-1.796-0.465-2.251-0.603c-0.428-0.129-0.857-0.31-1.277-0.541c-0.393-0.215-0.7-0.469-0.919-0.76
		c-0.2-0.267-0.297-0.579-0.297-0.957c0-0.615,0.31-1.136,0.948-1.593c0.674-0.483,1.586-0.727,2.715-0.727
		c1.214,0,2.088,0.217,2.603,0.645c0.545,0.452,1.024,1.1,1.431,1.941c0.355,0.664,0.683,1.136,1.002,1.443
		c0.364,0.352,0.881,0.529,1.539,0.529c0.722,0,1.334-0.278,1.819-0.826c0.469-0.533,0.707-1.143,0.707-1.812
		c0-0.683-0.176-1.386-0.524-2.093c-0.343-0.7-0.891-1.372-1.626-2.001c-0.733-0.624-1.66-1.131-2.757-1.503
		c-1.088-0.371-2.391-0.559-3.874-0.559c-1.848,0-3.484,0.283-4.863,0.838c-1.403,0.567-2.496,1.396-3.246,2.463
		c-0.753,1.072-1.134,2.312-1.134,3.686c0,1.441,0.364,2.67,1.083,3.653c0.705,0.967,1.672,1.739,2.87,2.296
		c1.162,0.54,2.613,1.014,4.315,1.412c1.241,0.284,2.239,0.555,2.972,0.803c0.683,0.233,1.246,0.571,1.67,1.005
		c0.395,0.405,0.588,0.927,0.588,1.595c0,0.845-0.374,1.534-1.146,2.11c-0.8,0.596-1.867,0.898-3.174,0.898
		c-0.95,0-1.717-0.148-2.281-0.44c-0.564-0.291-1.003-0.662-1.307-1.102c-0.328-0.474-0.638-1.076-0.921-1.783
		c-0.269-0.688-0.605-1.221-0.996-1.583c-0.428-0.395-0.953-0.595-1.564-0.595c-0.736,0-1.355,0.252-1.836,0.745
		c-0.479,0.493-0.722,1.091-0.722,1.781c0,1.071,0.359,2.177,1.067,3.293c0.7,1.105,1.624,2,2.746,2.662
		c1.562,0.908,3.562,1.369,5.942,1.369c1.982,0,3.727-0.336,5.184-0.998c1.477-0.672,2.619-1.619,3.389-2.813
		c0.772-1.195,1.165-2.56,1.165-4.056c0-1.248-0.229-2.324-0.679-3.196C147.459,137.668,146.822,136.937,146.017,136.363z"/>
	<path style="fill:#D83E20;" d="M169.541,124.497c-0.84,0-1.522,0.288-2.032,0.855c-0.498,0.553-0.75,1.379-0.75,2.455v11.628
		c0,1.898-0.357,3.317-1.06,4.222c-0.679,0.871-1.888,1.314-3.594,1.314c-1.253,0-2.229-0.221-2.9-0.659
		c-0.669-0.434-1.121-1.031-1.384-1.822c-0.278-0.829-0.419-1.889-0.419-3.15v-11.531c0-1.064-0.255-1.888-0.759-2.448
		c-0.515-0.572-1.214-0.862-2.072-0.862c-0.827,0-1.508,0.29-2.022,0.862c-0.503,0.559-0.759,1.383-0.759,2.448v11.276
		c0,1.803,0.2,3.382,0.595,4.691c0.403,1.339,1.048,2.455,1.915,3.315c0.865,0.862,1.998,1.507,3.363,1.915
		c1.334,0.398,2.943,0.602,4.777,0.602c1.55,0,2.929-0.19,4.098-0.564c1.186-0.379,2.239-0.993,3.138-1.824
		c1.043-0.977,1.765-2.129,2.141-3.425c0.367-1.257,0.553-2.843,0.553-4.71v-11.276c0-1.077-0.262-1.907-0.781-2.462
		C171.065,124.781,170.375,124.497,169.541,124.497z"/>
	<path style="fill:#D83E20;" d="M193.105,126.747c-0.745-0.659-1.639-1.136-2.655-1.419c-1.005-0.288-2.443-0.433-4.275-0.433
		h-6.094c-1.152,0-2.02,0.265-2.581,0.788c-0.569,0.531-0.857,1.389-0.857,2.553v18.072c0,1.045,0.257,1.86,0.765,2.422
		c0.521,0.577,1.208,0.871,2.048,0.871c0.805,0,1.483-0.295,2.014-0.876c0.521-0.569,0.784-1.393,0.784-2.45v-6.206h3.918
		c3.001,0,5.306-0.655,6.849-1.948c1.567-1.31,2.362-3.25,2.362-5.76c0-1.169-0.193-2.239-0.574-3.184
		C194.424,128.226,193.85,127.409,193.105,126.747z M189.709,132.46c0,0.765-0.171,1.384-0.507,1.838
		c-0.336,0.457-0.841,0.791-1.502,0.996c-0.707,0.221-1.608,0.333-2.679,0.333h-2.767v-6.303h2.767c2.481,0,3.489,0.496,3.891,0.902
		C189.449,130.801,189.709,131.531,189.709,132.46z"/>
	<path style="fill:#D83E20;" d="M214.737,144.568H204.1v-5.808h9.421c0.848,0,1.496-0.21,1.929-0.622
		c0.44-0.419,0.662-0.962,0.662-1.615c0-0.657-0.228-1.196-0.677-1.607c-0.438-0.396-1.081-0.6-1.914-0.6H204.1v-4.896h10.269
		c0.865,0,1.531-0.209,1.976-0.615c0.46-0.419,0.693-0.974,0.693-1.653c0-0.667-0.233-1.219-0.693-1.638
		c-0.448-0.409-1.114-0.615-1.977-0.615H201.83c-0.733,0-1.35,0.112-1.833,0.334c-0.526,0.24-0.917,0.627-1.164,1.152
		c-0.228,0.488-0.345,1.112-0.345,1.855v17.625c0,1.138,0.271,1.988,0.805,2.526c0.534,0.541,1.388,0.815,2.538,0.815h12.907
		c0.855,0,1.519-0.214,1.979-0.633c0.469-0.431,0.707-0.991,0.707-1.669c0-0.698-0.238-1.271-0.707-1.701
		C216.257,144.781,215.592,144.568,214.737,144.568z"/>
	<path style="fill:#D83E20;" d="M238.704,142.736c-0.612-1.002-1.319-1.962-2.1-2.851c-0.531-0.605-1.086-1.115-1.658-1.529
		c1.602-0.471,2.848-1.174,3.718-2.096c1.06-1.122,1.598-2.632,1.598-4.487c0-0.902-0.157-1.769-0.467-2.579
		c-0.314-0.814-0.779-1.539-1.383-2.155c-0.603-0.614-1.307-1.091-2.081-1.417c-0.646-0.295-1.379-0.493-2.174-0.586
		c-0.771-0.093-1.708-0.14-2.786-0.14h-7.725c-1.138,0-1.988,0.274-2.527,0.814c-0.54,0.54-0.814,1.391-0.814,2.527v18.041
		c0,1.05,0.245,1.87,0.726,2.438c0.5,0.59,1.202,0.888,2.088,0.888c0.824,0,1.507-0.283,2.027-0.841
		c0.512-0.55,0.771-1.386,0.771-2.484v-7.102h1.233c0.783,0,1.434,0.103,1.934,0.305c0.49,0.198,0.988,0.579,1.479,1.133
		c0.515,0.583,1.115,1.453,1.784,2.591l1.903,3.165c0.453,0.755,0.812,1.329,1.077,1.717c0.29,0.428,0.643,0.786,1.045,1.064
		c0.434,0.3,0.969,0.453,1.589,0.453c0.514,0,0.977-0.105,1.383-0.312c0.409-0.212,0.734-0.503,0.971-0.867
		c0.243-0.372,0.365-0.76,0.365-1.155c0-0.229-0.055-0.665-0.538-1.808C239.795,144.649,239.313,143.732,238.704,142.736z
		 M234.586,132.077c0,0.721-0.172,1.286-0.51,1.677c-0.35,0.403-0.876,0.696-1.564,0.871c-0.74,0.188-1.672,0.283-2.772,0.283
		h-3.824v-5.584h3.951c1.948,0,2.767,0.172,3.112,0.319c0.512,0.215,0.898,0.528,1.184,0.953
		C234.444,131.019,234.586,131.517,234.586,132.077z"/>
	<path style="fill:#D83E20;" d="M266.171,125.504c-0.603-0.403-1.41-0.609-2.4-0.609h-1.472c-0.948,0-1.631,0.088-2.088,0.271
		c-0.503,0.202-0.879,0.565-1.119,1.083c-0.205,0.445-0.428,1.133-0.681,2.101l-2.989,11.273l-2.989-11.271
		c-0.255-0.976-0.478-1.664-0.681-2.103c-0.24-0.517-0.614-0.881-1.119-1.083c-0.457-0.181-1.139-0.271-2.088-0.271h-1.472
		c-0.99,0-1.796,0.205-2.4,0.609c-0.657,0.44-0.991,1.257-0.991,2.429v18.553c0,1.014,0.243,1.793,0.721,2.313
		c0.488,0.534,1.122,0.803,1.886,0.803c0.786,0,1.429-0.274,1.914-0.815c0.471-0.528,0.709-1.302,0.709-2.301v-12.707l2.91,11.564
		l0.002,0.003c0.128,0.493,0.253,0.965,0.378,1.419c0.131,0.488,0.315,0.94,0.545,1.341c0.247,0.433,0.596,0.793,1.041,1.074
		c0.453,0.281,1.003,0.424,1.636,0.424c0.841,0,1.519-0.226,2.015-0.671c0.469-0.421,0.798-0.898,0.976-1.421
		c0.159-0.464,0.359-1.174,0.61-2.169l2.91-11.564v12.707c0,1.003,0.243,1.777,0.719,2.303c0.488,0.54,1.117,0.814,1.87,0.814
		c0.796,0,1.446-0.274,1.929-0.815c0.471-0.526,0.71-1.3,0.71-2.301v-18.553C267.162,126.764,266.83,125.947,266.171,125.504z"/>
</g>
<g>
	<path style="fill:#C1321F;" d="M266.171,125.504c-0.603-0.403-1.41-0.609-2.4-0.609h-1.472c-0.948,0-1.631,0.088-2.088,0.271
		c-0.503,0.202-0.879,0.565-1.119,1.083c-0.205,0.445-0.428,1.133-0.681,2.101l-2.881,10.859v10.378
		c0.786-0.021,1.434-0.231,1.905-0.653c0.469-0.421,0.798-0.898,0.976-1.421c0.159-0.464,0.359-1.174,0.61-2.169l2.91-11.564v12.707
		c0,1.003,0.243,1.777,0.719,2.303c0.488,0.54,1.117,0.814,1.87,0.814c0.796,0,1.446-0.274,1.929-0.815
		c0.471-0.526,0.71-1.3,0.71-2.301v-18.553C267.162,126.764,266.83,125.947,266.171,125.504z"/>
	<path style="fill:#C1321F;" d="M285.239,129.205c-0.29-0.76-0.529-1.369-0.717-1.826c-0.198-0.481-0.445-0.936-0.731-1.352
		c-0.309-0.446-0.717-0.817-1.214-1.098c-1.005-0.571-2.701-0.576-3.718,0c-0.498,0.281-0.907,0.657-1.219,1.119
		c-0.288,0.431-0.56,0.971-0.81,1.61l-6.611,16.796c-0.252,0.622-0.431,1.108-0.54,1.457c-0.119,0.381-0.179,0.757-0.179,1.121
		c0,0.676,0.276,1.281,0.822,1.798c0.54,0.514,1.172,0.776,1.881,0.776c0.841,0,1.469-0.264,1.864-0.788
		c0.336-0.448,0.722-1.26,1.179-2.484l1.015-2.727h8.935l1.014,2.665l0.003,0.01c0.15,0.364,0.331,0.786,0.54,1.265
		c0.228,0.515,0.436,0.891,0.641,1.15c0.219,0.278,0.495,0.5,0.817,0.662c0.324,0.162,0.714,0.245,1.152,0.245
		c0.755,0,1.408-0.271,1.945-0.805c0.534-0.536,0.805-1.141,0.805-1.8c0-0.584-0.247-1.462-0.752-2.672L285.239,129.205z
		 M283.596,139.178h-5.777l2.862-7.978L283.596,139.178z"/>
	<path style="fill:#C1321F;" d="M313.104,142.736c-0.612-1.002-1.319-1.962-2.1-2.851c-0.531-0.605-1.086-1.115-1.658-1.529
		c1.602-0.471,2.848-1.174,3.718-2.096c1.06-1.122,1.598-2.632,1.598-4.487c0-0.902-0.157-1.769-0.467-2.579
		c-0.314-0.814-0.779-1.539-1.383-2.155c-0.603-0.614-1.307-1.091-2.081-1.417c-0.646-0.295-1.379-0.493-2.174-0.586
		c-0.771-0.093-1.708-0.14-2.786-0.14h-7.725c-1.138,0-1.988,0.274-2.527,0.814s-0.814,1.391-0.814,2.527v18.041
		c0,1.05,0.245,1.87,0.726,2.438c0.5,0.59,1.202,0.888,2.088,0.888c0.824,0,1.507-0.283,2.027-0.841
		c0.512-0.55,0.771-1.386,0.771-2.484v-7.102h1.233c0.783,0,1.434,0.103,1.934,0.305c0.49,0.198,0.988,0.579,1.479,1.133
		c0.515,0.583,1.115,1.453,1.784,2.591l1.903,3.165c0.453,0.755,0.812,1.329,1.077,1.717c0.29,0.428,0.643,0.786,1.045,1.064
		c0.434,0.3,0.969,0.453,1.589,0.453c0.514,0,0.977-0.105,1.383-0.312c0.409-0.212,0.734-0.503,0.971-0.867
		c0.243-0.372,0.365-0.76,0.365-1.155c0-0.229-0.055-0.665-0.538-1.808C314.196,144.649,313.713,143.732,313.104,142.736z
		 M308.986,132.077c0,0.721-0.172,1.286-0.51,1.677c-0.35,0.403-0.876,0.696-1.564,0.871c-0.74,0.188-1.672,0.283-2.772,0.283
		h-3.824v-5.584h3.951c1.948,0,2.767,0.172,3.112,0.319c0.512,0.215,0.898,0.528,1.184,0.953
		C308.845,131.019,308.986,131.517,308.986,132.077z"/>
	<path style="fill:#C1321F;" d="M337.679,143.808l-6.44-9.228l5.506-5.215c0.798-0.764,1.205-1.562,1.205-2.374
		c0-0.696-0.259-1.295-0.765-1.776c-0.502-0.478-1.158-0.719-1.951-0.719c-0.61,0-1.117,0.14-1.507,0.415
		c-0.34,0.243-0.733,0.6-1.205,1.093l-8.582,8.949v-7.147c0-1.077-0.262-1.907-0.781-2.462c-0.524-0.564-1.215-0.848-2.05-0.848
		c-0.852,0-1.538,0.291-2.045,0.865c-0.49,0.559-0.738,1.381-0.738,2.443v17.434c0,0.762,0.017,1.345,0.05,1.746
		c0.036,0.45,0.143,0.853,0.324,1.215c0.24,0.431,0.584,0.777,1.026,1.029c0.438,0.25,0.902,0.376,1.381,0.376
		c0.824,0,1.51-0.284,2.041-0.846c0.524-0.555,0.79-1.389,0.79-2.479v-4.663l3.377-3.237l5.318,8.182
		c0.224,0.386,0.483,0.815,0.772,1.288c0.319,0.519,0.715,0.941,1.183,1.258c0.486,0.329,1.112,0.498,1.857,0.498
		c0.814,0,1.474-0.233,1.967-0.691c0.5-0.467,0.752-1.031,0.752-1.674c0-0.529-0.133-1.077-0.393-1.633
		C338.527,145.091,338.158,144.486,337.679,143.808z"/>
	<path style="fill:#C1321F;" d="M358.788,144.568h-10.637v-5.808h9.421c0.848,0,1.496-0.21,1.929-0.622
		c0.44-0.419,0.662-0.962,0.662-1.615c0-0.657-0.228-1.196-0.677-1.607c-0.438-0.396-1.081-0.6-1.914-0.6h-9.421v-4.896h10.269
		c0.865,0,1.531-0.209,1.976-0.615c0.46-0.419,0.693-0.974,0.693-1.653c0-0.667-0.233-1.219-0.693-1.638
		c-0.448-0.409-1.114-0.615-1.977-0.615h-12.538c-0.733,0-1.35,0.112-1.833,0.334c-0.526,0.24-0.917,0.627-1.164,1.152
		c-0.228,0.488-0.345,1.112-0.345,1.855v17.625c0,1.138,0.271,1.988,0.805,2.526c0.534,0.541,1.388,0.815,2.538,0.815h12.907
		c0.855,0,1.519-0.214,1.979-0.633c0.469-0.431,0.707-0.991,0.707-1.669c0-0.698-0.238-1.271-0.707-1.701
		C360.308,144.781,359.643,144.568,358.788,144.568z"/>
	<path style="fill:#C1321F;" d="M382.164,125.552c-0.481-0.434-1.195-0.655-2.12-0.655h-15.098c-0.881,0-1.576,0.214-2.064,0.631
		c-0.509,0.436-0.767,1.031-0.767,1.767c0,0.712,0.247,1.295,0.733,1.734c0.472,0.431,1.179,0.648,2.096,0.648h4.751v16.601
		c0,1.077,0.262,1.907,0.777,2.467c0.526,0.571,1.21,0.859,2.036,0.859c0.814,0,1.491-0.286,2.012-0.85
		c0.51-0.555,0.769-1.388,0.769-2.476v-16.601h4.751c0.914,0,1.624-0.215,2.108-0.645c0.5-0.441,0.753-1.026,0.753-1.738
		C382.905,126.585,382.657,125.999,382.164,125.552z"/>
</g>
<g>
</g>
<g>
</g>
<g>
</g>
<g>
</g>
<g>
</g>
<g>
</g>
<g>
</g>
<g>
</g>
<g>
</g>
<g>
</g>
<g>
</g>
<g>
</g>
<g>
</g>
<g>
</g>
<g>
</g>
</svg>
