<?xml version="1.0" encoding="iso-8859-1"?>
<!-- Generator: Adobe Illustrator 19.0.0, SVG Export Plug-In . SVG Version: 6.00 Build 0)  -->
<svg version="1.1" id="Capa_1" xmlns="http://www.w3.org/2000/svg" xmlns:xlink="http://www.w3.org/1999/xlink" x="0px" y="0px"
	 viewBox="0 0 512 512" style="enable-background:new 0 0 512 512;" xml:space="preserve">
<path style="fill:#FF6292;" d="M509.328,258.672c0,22.665-2.978,44.627-8.561,65.534c-2.43,9.109-5.356,18.012-8.748,26.687
	C455.147,445.204,363.37,512,256,512c-65.286,0-124.813-24.702-169.73-65.276c-4.084-3.681-8.034-7.496-11.87-11.436
	c-2.192-2.254-4.343-4.539-6.442-6.876C27.374,383.496,2.672,323.969,2.672,258.672c0-62.081,22.334-118.971,59.413-163.019
	c5.708-6.783,11.767-13.256,18.147-19.408C124.683,33.406,184.737,6.667,251.047,5.396c1.644-0.031,3.298-0.052,4.953-0.052
	c34.473,0,67.334,6.886,97.278,19.356c22.944,9.554,44.182,22.376,63.136,37.906c3.753,3.071,7.424,6.245,10.991,9.533
	c8.82,8.106,17.061,16.833,24.661,26.108C487.852,141.934,509.328,197.801,509.328,258.672z"/>
<path style="fill:#E6DDDD;" d="M388.995,140.798c-4.176,4.176-10.947,4.176-15.123,0s-4.176-10.947,0-15.123l65.895-65.895
	c4.176-4.176,10.947-4.176,15.123,0s4.176,10.947,0,15.123L388.995,140.798z M474.721,39.941c-9.844-9.844-25.798-9.844-35.642,0
	l-22.665,22.665L156.199,322.821c-32.529,32.529-62.06,67.871-88.241,105.591c2.099,2.337,4.25,4.622,6.442,6.876
	c3.836,3.939,7.786,7.755,11.87,11.436c37.71-26.201,73.041-55.722,105.571-88.251L452.066,98.248l22.655-22.655
	C484.564,65.75,484.564,49.785,474.721,39.941z"/>
<path style="fill:#CCC4C4;" d="M439.079,39.941l-22.665,22.665L156.199,322.821c-32.54,32.54-62.06,67.871-88.241,105.591
	c2.099,2.337,4.25,4.622,6.442,6.876c30.451-33.605,62.153-66.899,94.755-99.501l201.629-201.629
	c-0.269-3.03,0.765-6.152,3.081-8.479l65.896-65.896c2.326-2.316,5.459-3.36,8.489-3.092l3.795-3.784
	c9.844-9.844,20.008-15.644,22.686-12.966C464.887,30.098,448.922,30.098,439.079,39.941z"/>
<path style="fill:#653064;" d="M500.767,324.207c-2.43,9.109-5.356,18.012-8.748,26.687c-9.275-9.13-17.867-19.284-25.715-30.441
	c-22.634-32.147-40.047-73.806-51.772-123.81c-21.321-90.94-55.774-148.347-99.635-166.028
	c-37.462-15.096-68.967,3.298-74.902,7.135c-23.348,15.107-35.921,45.299-29.903,71.8c3.092,13.597,13.907,37.131,51.627,41.97
	c40.429,5.18,78.749,47.347,85.418,94c3.536,24.723-1.851,49.094-15.593,70.477c-15.582,24.237-41.422,44.348-76.784,59.796
	c-37.979,16.585-72.4,23.544-102.303,20.69c-27.804-2.647-50.552-13.824-65.772-32.333c-13.245-16.11-19.842-36.521-19.067-59.051
	c0.765-22.21,8.748-44.906,23.079-65.617c24.712-35.693,29.552-75.916,12.956-107.608c-9.161-17.474-23.906-30.089-41.566-36.221
	c-4.653-1.623-9.513-2.792-14.528-3.474c-6.163-0.848-10.764-6.08-10.764-12.305c0-6.886,5.594-12.439,12.273-12.439
	c0.538,0,1.086,0.041,1.634,0.114c10.423,1.386,20.349,4.332,29.531,8.696c19.098,9.058,34.98,24.216,45.403,44.12
	c20.959,40.005,15.531,89.823-14.528,133.24c-11.632,16.792-18.095,34.897-18.695,52.351c-0.558,16.389,4.084,31.061,13.442,42.425
	c24.764,30.11,76.722,31.847,138.979,4.663c56.218-24.547,83.826-61.481,77.746-104.02c-2.564-17.888-11.105-35.487-24.04-49.57
	c-12.056-13.111-26.625-21.61-39.984-23.327c-19.904-2.554-36.5-9.647-49.321-21.083c-11.694-10.423-19.76-24.257-23.337-40.005
	c-8.375-36.872,8.324-77.229,40.615-98.116c6.897-4.467,15.22-8.51,24.537-11.529c20.959-6.773,46.943-8.344,73.124,2.202
	c10.174,4.095,19.894,9.813,29.107,17.102c12.594,9.957,24.237,22.851,34.815,38.578c21.042,31.289,38.061,74.251,50.593,127.698
	C452.19,248.549,472.684,292.649,500.767,324.207z"/>
<g>
	<path style="fill:#E6DDDD;" d="M156.199,322.821c-32.529,32.529-62.06,67.871-88.241,105.591c2.099,2.337,4.25,4.622,6.442,6.876
		c3.836,3.939,7.786,7.755,11.87,11.436c37.71-26.201,73.041-55.722,105.571-88.251L156.199,322.821z"/>
	<polyline style="fill:#E6DDDD;" points="388.995,140.798 448.85,80.942 459.111,91.205 396.383,153.933 	"/>
</g>
<path style="fill:#CCC4C4;" d="M156.199,322.821c-32.54,32.54-62.06,67.871-88.241,105.591c2.099,2.337,4.25,4.622,6.442,6.876
	c30.451-33.605,62.153-66.899,94.755-99.501L156.199,322.821z"/>
<g>
</g>
<g>
</g>
<g>
</g>
<g>
</g>
<g>
</g>
<g>
</g>
<g>
</g>
<g>
</g>
<g>
</g>
<g>
</g>
<g>
</g>
<g>
</g>
<g>
</g>
<g>
</g>
<g>
</g>
</svg>
