<?xml version="1.0" encoding="iso-8859-1"?>
<!-- Generator: Adobe Illustrator 19.0.0, SVG Export Plug-In . SVG Version: 6.00 Build 0)  -->
<svg version="1.1" id="Capa_1" xmlns="http://www.w3.org/2000/svg" xmlns:xlink="http://www.w3.org/1999/xlink" x="0px" y="0px"
	 viewBox="0 0 512 512" style="enable-background:new 0 0 512 512;" xml:space="preserve">
<path style="fill:#4191BE;" d="M120,461.759c0,4.824-5.421,7.699-9.39,4.956C43.788,420.524,0,343.38,0,256
	C0,164.589,47.92,84.383,120,39.094V461.759z M390,37.845v421.48c0,6.458,7.274,10.279,12.565,6.577
	C468.726,419.621,512,342.868,512,256C512,163.745,463.193,82.899,390,37.845z"/>
<path style="fill:#41739B;" d="M120,39.094v422.665c0,4.824-5.421,7.699-9.39,4.956C95.879,456.532,82.27,444.843,70,431.874V80.132
	C84.837,64.448,101.632,50.635,120,39.094z"/>
<path style="fill:#FFFAD2;" d="M371.553,27.514V129.43v253.14v101.916C336.838,502.078,297.58,512,256,512
	c-55.195,0-106.31-17.469-148.119-47.178v-120.46V10c0-5.522,4.477-10,10-10h253.672L371.553,27.514L371.553,27.514z"/>
<path style="fill:#FFF091;" d="M277.556,89.922V0l94.922,94.922h-89.922C279.795,94.922,277.556,92.683,277.556,89.922z"/>
<path style="fill:#F5DA73;" d="M404.119,10v37.178v47.744v369.9c-13.19,9.373-27.309,17.521-42.188,24.293V84.375L277.556,0h31.641
	h63.281h21.641C399.642,0,404.119,4.478,404.119,10z"/>
<path style="fill:#FFD06B;" d="M294.434,380H185c-2.761,0-5-2.239-5-5v-10c0-2.761,2.239-5,5-5h109.434c2.761,0,5,2.239,5,5v10
	C299.434,377.761,297.196,380,294.434,380z"/>
<path style="fill:#FFE67D;" d="M319.717,405v10c0,2.762-2.239,5-5,5h-150c-2.761,0-5-2.238-5-5v-10c0-2.762,2.239-5,5-5h150
	C317.479,400,319.717,402.238,319.717,405z M284.434,440H195c-2.761,0-5,2.238-5,5v10c0,2.762,2.239,5,5,5h89.434
	c2.761,0,5-2.238,5-5v-10C289.434,442.238,287.196,440,284.434,440z"/>
<path style="fill:#B40A5A;" d="M215,295c0,8.284-6.716,15-15,15s-15-6.716-15-15s6.716-15,15-15S215,286.716,215,295z M280,280
	c-8.284,0-15,6.716-15,15s6.716,15,15,15s15-6.716,15-15S288.284,280,280,280z M210,120c-5.523,0-10,4.478-10,10v60
	c0,5.522,4.477,10,10,10s10-4.478,10-10v-60C220,124.478,215.523,120,210,120z M280,190v-60c0-5.522-4.477-10-10-10s-10,4.478-10,10
	v60c0,5.522,4.477,10,10,10S280,195.522,280,190z"/>
<path style="fill:#FF4682;" d="M330,180v90c0,11.046-8.954,20-20,20H170c-11.046,0-20-8.954-20-20v-90c0-11.046,8.954-20,20-20h140
	C321.046,160,330,168.954,330,180z M210,140h60c5.523,0,10-4.478,10-10s-4.477-10-10-10h-60c-5.523,0-10,4.478-10,10
	S204.477,140,210,140z"/>
<path style="fill:#C42364;" d="M200,190v70c0,5.523-4.477,10-10,10s-10-4.477-10-10v-70c0-5.523,4.477-10,10-10S200,184.477,200,190
	z M240,180c-5.523,0-10,4.477-10,10v70c0,5.523,4.477,10,10,10s10-4.477,10-10v-70C250,184.477,245.523,180,240,180z M290,180
	c-5.523,0-10,4.477-10,10v70c0,5.523,4.477,10,10,10s10-4.477,10-10v-70C300,184.477,295.523,180,290,180z"/>
<g>
</g>
<g>
</g>
<g>
</g>
<g>
</g>
<g>
</g>
<g>
</g>
<g>
</g>
<g>
</g>
<g>
</g>
<g>
</g>
<g>
</g>
<g>
</g>
<g>
</g>
<g>
</g>
<g>
</g>
</svg>
