<?xml version="1.0" encoding="iso-8859-1"?>
<!-- Generator: Adobe Illustrator 19.0.0, SVG Export Plug-In . SVG Version: 6.00 Build 0)  -->
<svg version="1.1" id="Layer_1" xmlns="http://www.w3.org/2000/svg" xmlns:xlink="http://www.w3.org/1999/xlink" x="0px" y="0px"
	 viewBox="0 0 512 512" style="enable-background:new 0 0 512 512;" xml:space="preserve">
<path style="fill:#E5FAFC;" d="M256,0C114.615,0,0,114.616,0,256c0,117.217,78.78,216.034,186.282,246.392l322.208-288.882
	C488.251,92.348,382.91,0,256,0z"/>
<path style="fill:#C7E7EB;" d="M512,256c0-14.476-1.221-28.665-3.529-42.486L350.609,55.652L161.391,200.348l79.137,79.137
	L106.852,422.957l79.431,79.431C208.449,508.646,231.832,512,256,512C397.384,512,512,397.384,512,256z"/>
<polygon style="fill:#27467A;" points="339.478,122.435 339.478,77.913 256,77.913 244.87,100.174 256,122.435 "/>
<rect x="172.522" y="77.913" style="fill:#367596;" width="83.478" height="44.522"/>
<polygon style="fill:#27467A;" points="339.478,178.087 339.478,133.565 256,133.565 244.87,155.826 256,178.087 "/>
<rect x="172.522" y="133.565" style="fill:#367596;" width="83.478" height="44.522"/>
<g>
	<polygon style="fill:#5195AF;" points="256,55.652 244.87,72.348 256,89.043 350.609,89.043 350.609,55.652 	"/>
	<polygon style="fill:#5195AF;" points="256,111.304 244.87,128 256,144.696 350.609,144.696 350.609,111.304 	"/>
	<polygon style="fill:#5195AF;" points="256,166.957 244.87,183.652 256,200.348 350.609,200.348 350.609,166.957 	"/>
</g>
<g>
	<rect x="161.391" y="55.652" style="fill:#88ACB5;" width="94.609" height="33.391"/>
	<rect x="161.391" y="111.304" style="fill:#88ACB5;" width="94.609" height="33.391"/>
	<rect x="161.391" y="166.957" style="fill:#88ACB5;" width="94.609" height="33.391"/>
	<polygon style="fill:#88ACB5;" points="233.739,322.783 256,422.957 405.148,422.957 405.148,378.435 	"/>
</g>
<polygon style="fill:#A7CBCF;" points="256,322.783 106.852,378.435 106.852,422.957 256,422.957 "/>
<polygon style="fill:#FF754F;" points="233.739,244.87 233.739,367.304 444.104,333.913 444.104,256 "/>
<polygon style="fill:#FF9269;" points="256,244.87 67.896,256 67.896,333.913 256,367.304 "/>
<path style="fill:#111449;" d="M189.217,400.696c18.441,0,33.391,14.95,33.391,33.391c0,18.441-14.95,33.391-33.391,33.391
	l-12.986-33.391L189.217,400.696z"/>
<path style="fill:#2F5E88;" d="M155.826,434.087c0,18.441,14.95,33.391,33.391,33.391v-66.783
	C170.776,400.696,155.826,415.646,155.826,434.087z"/>
<path style="fill:#111449;" d="M322.783,400.696c18.441,0,33.391,14.95,33.391,33.391c0,18.441-14.95,33.391-33.391,33.391
	l-12.986-33.391L322.783,400.696z"/>
<path style="fill:#2F5E88;" d="M289.391,434.087c0,18.441,14.95,33.391,33.391,33.391v-66.783
	C304.342,400.696,289.391,415.646,289.391,434.087z"/>
<polygon style="fill:#FF4719;" points="386.671,333.913 386.671,244.87 364.41,244.87 364.41,333.913 306.977,333.913 
	306.977,244.87 284.717,244.87 284.717,333.913 256,333.913 256,378.435 405.148,378.435 444.104,333.913 "/>
<polygon style="fill:#FF754F;" points="227.283,333.913 227.283,244.87 205.023,244.87 205.023,333.913 147.59,333.913 
	147.59,244.87 125.329,244.87 125.329,333.913 67.896,333.913 106.852,378.435 256,378.435 256,333.913 "/>
<polygon style="fill:#111449;" points="256,233.739 246.275,244.87 256,256 455.235,256 455.235,233.739 "/>
<rect x="56.765" y="233.739" style="fill:#2F5E88;" width="199.235" height="22.261"/>
<g>
</g>
<g>
</g>
<g>
</g>
<g>
</g>
<g>
</g>
<g>
</g>
<g>
</g>
<g>
</g>
<g>
</g>
<g>
</g>
<g>
</g>
<g>
</g>
<g>
</g>
<g>
</g>
<g>
</g>
</svg>
