<?xml version="1.0" encoding="iso-8859-1"?>
<!-- Generator: Adobe Illustrator 19.0.0, SVG Export Plug-In . SVG Version: 6.00 Build 0)  -->
<svg version="1.1" id="Layer_1" xmlns="http://www.w3.org/2000/svg" xmlns:xlink="http://www.w3.org/1999/xlink" x="0px" y="0px"
	 viewBox="0 0 508 508" style="enable-background:new 0 0 508 508;" xml:space="preserve">
<circle style="fill:#324A5E;" cx="254" cy="254" r="254"/>
<path style="fill:#2B3B4E;" d="M6,309.2C31.2,422.8,132.8,508,254,508s222.8-85.2,248-198.8H6z"/>
<g>
	<polygon style="fill:#E6E9EE;" points="392.4,396.8 115.6,396.8 166.4,327.6 341.6,327.6 	"/>
	<path style="fill:#E6E9EE;" d="M202,278.4c-0.4,3.2,16.8,18.4,31.6,30.4h38l36.4-67.6l-3.2-57.2L254,171.2l-45.6,13.2
		c0,0-15.6,21.2-19.6,26C184.8,215.2,202.8,272.4,202,278.4z"/>
</g>
<polygon style="fill:#FF7058;" points="234.4,308.8 273.6,308.8 256,209.6 274,186.8 234,186.8 252,209.6 "/>
<path style="fill:#F9B54C;" d="M279.2,165.6c0,18.4-11.2,21.2-25.2,21.2s-25.2-2.8-25.2-21.2s11.2-48.4,25.2-48.4
	C268,117.2,279.2,146.8,279.2,165.6z"/>
<path style="fill:#4CDBC4;" d="M176.4,308.8c0.8-16,2.8-28,6.4-32.8c15.2-20.4-0.8-70.4-8-70.4s-23.2-10-23.2-10s-7.6,70-8,113.2
	H176.4z"/>
<path style="fill:#2C9984;" d="M254.8,308.8c-8-22.4-23.6-75.2-27.2-148.4c0,0-8.4,17.2-76,35.2c0,0,20.8,56.8,28,113.2H254.8z"/>
<path style="fill:#2B3B4E;" d="M252,308.8h4c-9.2-36-33.2-133.2-25.6-153.2c0,0-11.6,11.6-16.8,26l7.2,7.2l-12,6
	C208.4,194.8,235.6,274.4,252,308.8z"/>
<path style="fill:#2C9984;" d="M331.6,308.8h32.8c-0.4-43.2-8-113.2-8-113.2s-16,10-23.2,10s-23.2,50-8,70.4
	C328.8,280.4,330.8,292.8,331.6,308.8z"/>
<path style="fill:#4CDBC4;" d="M328.4,308.8c7.2-56.4,28-113.2,28-113.2c-67.6-18-76-35.2-76-35.2c-4,73.2-19.6,126-27.2,148.4
	H328.4z"/>
<path style="fill:#324A5E;" d="M252,308.8h4c16.4-34.4,43.6-114,43.6-114l-12-6l7.2-7.2c-5.6-14.4-16.8-26-16.8-26
	C285.2,175.6,261.2,272.4,252,308.8z"/>
<g>
	<path style="fill:#FFFFFF;" d="M230.4,155.6c0,0,3.6,21.6,23.6,31.2c0,0-13.2,10.4-15.6,18.8C238.4,205.6,216.8,174.4,230.4,155.6z
		"/>
	<path style="fill:#FFFFFF;" d="M277.6,155.6c0,0-3.6,21.6-23.6,31.2c0,0,13.2,10.4,15.6,18.8C269.6,205.6,291.2,174.4,277.6,155.6z
		"/>
</g>
<rect x="284" y="258.8" style="fill:#2C9984;" width="41.6" height="10.4"/>
<polygon style="fill:#FFFFFF;" points="308,258.8 299.6,250.8 291.2,258.8 "/>
<g>
	<ellipse style="fill:#FFD05B;" cx="254" cy="112" rx="43.2" ry="54.4"/>
	
		<ellipse transform="matrix(-0.9465 -0.3227 0.3227 -0.9465 543.5684 306.822)" style="fill:#FFD05B;" cx="297.217" cy="108.353" rx="8" ry="14.8"/>
	
		<ellipse transform="matrix(0.9465 -0.3227 0.3227 0.9465 -23.6325 73.6563)" style="fill:#FFD05B;" cx="210.328" cy="108.103" rx="8" ry="14.8"/>
</g>
<path style="fill:#FF7058;" d="M305.2,94c0-1.2,0.4-2.8,0.4-4c0-28.4-23.2-51.6-51.6-51.6S202.4,61.6,202.4,90c0,1.2,0,2.8,0.4,4
	H305.2z"/>
<g>
	<path style="fill:#F1543F;" d="M273.6,94c0-1.6,0-2.8,0-4.4c0-31.2-8.8-56.4-19.6-56.4s-19.6,25.2-19.6,56.4c0,1.6,0,2.8,0,4.4
		H273.6z"/>
	<path style="fill:#F1543F;" d="M305.2,103.6H202.8c-3.6,0-6.8-2.8-6.8-6.8l0,0c0-3.6,2.8-6.8,6.8-6.8h102.4c3.6,0,6.8,2.8,6.8,6.8
		l0,0C311.6,100.8,308.8,103.6,305.2,103.6z"/>
</g>
<circle style="fill:#FFFFFF;" cx="254" cy="86" r="22"/>
<circle style="fill:#54C0EB;" cx="254" cy="86" r="15.6"/>
<g>
</g>
<g>
</g>
<g>
</g>
<g>
</g>
<g>
</g>
<g>
</g>
<g>
</g>
<g>
</g>
<g>
</g>
<g>
</g>
<g>
</g>
<g>
</g>
<g>
</g>
<g>
</g>
<g>
</g>
</svg>
