<?xml version="1.0" encoding="iso-8859-1"?>
<!-- Generator: Adobe Illustrator 19.0.0, SVG Export Plug-In . SVG Version: 6.00 Build 0)  -->
<svg version="1.1" id="Capa_1" xmlns="http://www.w3.org/2000/svg" xmlns:xlink="http://www.w3.org/1999/xlink" x="0px" y="0px"
	 viewBox="0 0 512 512" style="enable-background:new 0 0 512 512;" xml:space="preserve">
<path style="fill:#5C5E70;" d="M512,256v0.554c-0.052,23.364-3.229,45.996-9.143,67.49c-1.891,6.896-4.075,13.678-6.52,20.323
	c-2.1,5.705-4.399,11.327-6.886,16.833c-1.661,3.688-3.417,7.335-5.245,10.93v0.01c-4.232,8.286-8.892,16.311-13.97,24.043
	c-1.985,3.03-4.033,6.019-6.144,8.955c-5.831,8.129-12.142,15.914-18.871,23.291c-3.584,3.929-7.293,7.753-11.118,11.452
	c-1.787,1.735-3.594,3.438-5.423,5.099c-5.622,5.151-11.473,10.041-17.533,14.67c-3.427,2.612-6.928,5.141-10.491,7.575
	c-5.684,3.908-11.525,7.586-17.533,11.024c-20.574,11.797-42.945,20.814-66.601,26.551c-19.404,4.702-39.675,7.199-60.52,7.199
	c-6.907,0-13.751-0.272-20.511-0.815c-23.312-1.839-45.745-6.813-66.873-14.493c-41.127-14.932-77.332-40.103-105.545-72.421
	c-18.85-21.598-34.137-46.383-44.93-73.445C6.44,321.494,0.003,289.499,0.003,256c0-141.384,114.614-255.998,255.998-255.998
	c16.06,0,31.775,1.484,47.02,4.305c9.237,1.724,18.306,3.929,27.167,6.614c17.92,5.413,35.025,12.748,51.043,21.755
	c14.806,8.307,28.693,18.056,41.472,29.038c5.099,4.378,10.01,8.944,14.743,13.699c17.784,17.868,32.956,38.358,44.868,60.834
	c2.55,4.807,4.953,9.697,7.189,14.681c2.623,5.81,5.026,11.724,7.21,17.753c1.39,3.803,2.675,7.649,3.887,11.536
	c0.387,1.275,0.773,2.55,1.149,3.835c1.118,3.803,2.142,7.649,3.072,11.525c0.313,1.285,0.616,2.56,0.899,3.845
	c0.867,3.814,1.641,7.649,2.32,11.525c0.219,1.191,0.418,2.382,0.616,3.584v0.031c0.564,3.396,1.045,6.834,1.463,10.282
	c0.219,1.766,0.418,3.542,0.596,5.318c0.251,2.57,0.47,5.151,0.648,7.743C511.791,243.879,512,249.918,512,256z"/>
<g>
	<path style="fill:#797B89;" d="M489.503,150.925c-2.236,2.55-5.517,4.148-9.174,4.148H304.046c-3.385,0-6.437-1.369-8.662-3.584
		c-2.215-2.215-3.584-5.277-3.584-8.652c0-6.76,5.486-12.236,12.246-12.236h37.209c3.375,0,6.437-1.369,8.652-3.584
		c2.215-2.226,3.584-5.277,3.584-8.662c0-6.76-5.475-12.236-12.236-12.236h-10.386c-3.375,0-6.447-1.369-8.662-3.584
		c-2.215-2.215-3.584-5.287-3.584-8.662c0-6.76,5.486-12.236,12.246-12.236h34.377c3.375,0,6.437-1.369,8.652-3.584
		c2.215-2.226,3.584-5.277,3.584-8.662c0-6.76-5.475-12.236-12.236-12.236h-75.483c-3.375,0-6.437-1.369-8.652-3.584
		c-2.215-2.215-3.584-5.287-3.584-8.662c0-6.76,5.475-12.236,12.236-12.236h91.47c14.806,8.307,28.693,18.056,41.472,29.038
		c5.099,4.378,10.01,8.944,14.743,13.699c17.784,17.868,32.956,38.358,44.868,60.834
		C484.864,141.051,487.267,145.94,489.503,150.925z"/>
	<path style="fill:#797B89;" d="M132.015,387.541c0,6.76-5.486,12.246-12.246,12.246h-3.396c-3.375,0-6.447,1.369-8.662,3.584
		c-2.215,2.215-3.584,5.277-3.584,8.652c0,6.76-5.475,12.246-12.236,12.246H63.073c-18.85-21.598-34.137-46.383-44.93-73.445h48.075
		c6.76,0,12.236,5.475,12.236,12.236c0,6.76,5.486,12.246,12.246,12.246h29.069c3.385,0,6.437,1.369,8.662,3.584
		C130.646,381.105,132.015,384.156,132.015,387.541z"/>
	<path style="fill:#797B89;" d="M240.022,281.754L240.022,281.754c0-6.76,5.48-12.24,12.24-12.24h39.444
		c6.76,0,12.24-5.48,12.24-12.24l0,0c0-6.76-5.48-12.24-12.24-12.24H175.424c-6.76,0-12.24,5.48-12.24,12.24l0,0
		c0,6.76-5.48,12.24-12.24,12.24H111.5c-6.76,0-12.24,5.48-12.24,12.24l0,0c0,6.76,5.48,12.24,12.24,12.24h58.486
		c6.76,0,12.24,5.48,12.24,12.24l0,0c0,6.76,5.48,12.24,12.24,12.24h116.283c6.76,0,12.24-5.48,12.24-12.24l0,0
		c0-6.76-5.48-12.24-12.24-12.24h-58.486C245.503,293.995,240.022,288.515,240.022,281.754z"/>
</g>
<rect x="303.019" y="177.391" style="fill:#FCF8F2;" width="27.167" height="101.354"/>
<g>
	<path style="fill:#494B5B;" d="M54.795,241.36h-23.64c-6.444,0-11.668-5.223-11.668-11.668v-28.213h46.976v28.213
		C66.463,236.137,61.239,241.36,54.795,241.36z"/>
	<path style="fill:#494B5B;" d="M260.559,241.36h-23.64c-6.444,0-11.668-5.223-11.668-11.668v-28.213h46.976v28.213
		C272.228,236.137,267.003,241.36,260.559,241.36z"/>
</g>
<path style="fill:#FF525D;" d="M283.626,143.61v41.827c-0.024-0.012-0.047-0.012-0.071-0.018c-2.63,8.08-5.958,15.842-9.907,23.225
	H18.066c-1.922-3.593-3.7-7.283-5.32-11.054c-1.708-3.966-3.239-8.027-4.587-12.171c-0.024,0.006-0.047,0.006-0.071,0.018V143.61
	c0-5.693,1.46-11.196,4.138-16.031c2.436-4.416,5.882-8.282,10.149-11.237l13.524-9.357l12.407-54.074
	c2.974-12.974,14.518-22.173,27.83-22.173h139.436c13.312,0,24.856,9.197,27.835,22.173l12.402,54.074l13.53,9.357
	C278.289,122.538,283.626,132.729,283.626,143.61z"/>
<path style="fill:#34ABE0;" d="M232.213,106.986H59.509c-3.99,0-6.945-3.706-6.053-7.595l9.871-43.027
	c1.377-6.011,6.644-10.214,12.816-10.214h139.43c6.171,0,11.437,4.203,12.821,10.214l9.866,43.027
	C239.152,103.28,236.202,106.986,232.213,106.986z"/>
<path style="fill:#494B5B;" d="M214.195,208.642v3.456c0,8.395-11.65,15.199-26.021,15.199h-84.636
	c-14.37,0-26.021-6.805-26.021-15.199v-3.456H214.195z"/>
<path style="fill:#EF4152;" d="M12.747,197.591c-1.708-3.966-3.239-8.027-4.587-12.171c-0.024,0.006-0.047,0.006-0.071,0.018V143.61
	c0-5.693,1.46-11.196,4.138-16.031c0,0-9.417,57.698,97.574,57.698C178.528,185.278,87.001,192.454,12.747,197.591z"/>
<g>
	<path style="fill:#5C5E70;" d="M208.071,176.466H83.644c-3.183,0-5.764-2.58-5.764-5.764l0,0c0-3.183,2.58-5.764,5.764-5.764
		h124.428c3.183,0,5.764,2.58,5.764,5.764l0,0C213.835,173.885,211.254,176.466,208.071,176.466z"/>
	<path style="fill:#5C5E70;" d="M208.071,157.658H83.644c-3.183,0-5.764-2.58-5.764-5.764l0,0c0-3.183,2.58-5.764,5.764-5.764
		h124.428c3.183,0,5.764,2.58,5.764,5.764l0,0C213.835,155.077,211.254,157.658,208.071,157.658z"/>
</g>
<path style="fill:#F9EED7;" d="M291.713,196.96c0,1.38-0.242,2.708-0.69,3.941c-0.58,1.636-1.527,3.113-2.73,4.324
	c-2.114,2.114-5.028,3.42-8.258,3.42H11.685c-5.065,0-9.381-3.23-10.995-7.744C0.242,199.669,0,198.341,0,196.96
	c0-3.222,1.306-6.144,3.42-8.265c2.114-2.114,5.035-3.42,8.265-3.42h268.35C286.486,185.275,291.713,190.508,291.713,196.96z"/>
<path style="fill:#78CAEF;" d="M224.611,78.392c1.354,4.326-3.649,7.835-7.255,5.089l-13.345-10.164L190.01,62.655
	c-3.541-2.697-1.634-8.35,2.817-8.35h20.826c2.032,0,3.83,1.321,4.438,3.26L224.611,78.392z"/>
<path style="fill:#FF6E7C;" d="M248.119,126.422h-75.07c-3.264,0-5.911-2.647-5.911-5.911l0,0c0-3.264,2.647-5.911,5.911-5.911
	h75.07c3.264,0,5.911,2.647,5.911,5.911l0,0C254.03,123.775,251.383,126.422,248.119,126.422z"/>
<path style="fill:#E8DBC4;" d="M291.023,200.902c-0.58,1.636-1.527,3.113-2.73,4.324c-2.114,2.114-5.028,3.42-8.258,3.42H11.685
	c-5.065,0-9.381-3.23-10.995-7.744H291.023z"/>
<g>
	<path style="fill:#FCF8F2;" d="M262.474,195.581H152.782c-2.845,0-5.151-2.306-5.151-5.151l0,0c0-2.845,2.306-5.151,5.151-5.151
		h109.692c2.845,0,5.151,2.306,5.151,5.151l0,0C267.625,193.274,265.319,195.581,262.474,195.581z"/>
	<path style="fill:#FCF8F2;" d="M136.568,195.581h-23.006c-2.845,0-5.151-2.306-5.151-5.151l0,0c0-2.845,2.306-5.151,5.151-5.151
		h23.006c2.845,0,5.151,2.306,5.151,5.151l0,0C141.72,193.274,139.414,195.581,136.568,195.581z"/>
</g>
<path style="fill:#279FC9;" d="M122.804,106.986H59.509c-3.99,0-6.945-3.706-6.053-7.595l9.871-43.027
	c1.377-6.011,6.644-10.214,12.816-10.214C76.142,46.149,65.468,99.367,122.804,106.986z"/>
<path style="fill:#EF4152;" d="M235.266,176.87c-6.857,0-12.434-5.578-12.434-12.434v-13.448c0-6.505,5.011-11.895,11.458-12.386
	c0.436-0.048,0.783-0.048,0.976-0.048h31.556c6.857,0,12.434,5.578,12.434,12.434v13.448c0,1.156-0.158,2.278-0.469,3.338
	c-1.481,5.36-6.384,9.096-11.965,9.096H235.266z"/>
<path style="fill:#EDBB4C;" d="M272.986,150.988v13.448c0,0.564-0.073,1.108-0.23,1.62c-0.7,2.623-3.093,4.545-5.935,4.545h-31.556
	c-3.406,0-6.165-2.759-6.165-6.165v-13.448c0-3.281,2.56-5.966,5.799-6.144c0.115-0.021,0.24-0.021,0.366-0.021h31.556
	C270.228,144.824,272.986,147.582,272.986,150.988z"/>
<path style="fill:#FFD15C;" d="M272.986,150.988v13.448c0,0.564-0.073,1.108-0.23,1.62c-0.115,0.021-0.24,0.021-0.355,0.021h-31.566
	c-3.406,0-6.165-2.759-6.165-6.165v-13.448c0-0.564,0.073-1.108,0.23-1.62c0.115-0.021,0.24-0.021,0.366-0.021h31.556
	C270.228,144.824,272.986,147.582,272.986,150.988z"/>
<path style="fill:#FFDC8D;" d="M264.975,155.972h-12.539c-2.116,0-3.832-1.716-3.832-3.832l0,0c0-2.116,1.716-3.832,3.832-3.832
	h12.539c2.116,0,3.832,1.716,3.832,3.832l0,0C268.807,154.257,267.091,155.972,264.975,155.972z"/>
<path style="fill:#EF4152;" d="M24.893,176.87c-6.857,0-12.434-5.578-12.434-12.434v-13.448c0-6.505,5.011-11.895,11.458-12.386
	c0.436-0.048,0.783-0.048,0.976-0.048h31.556c6.857,0,12.434,5.578,12.434,12.434v13.448c0,1.156-0.158,2.278-0.469,3.338
	c-1.481,5.36-6.384,9.096-11.965,9.096H24.893z"/>
<path style="fill:#EDBB4C;" d="M62.614,150.988v13.448c0,0.564-0.073,1.108-0.23,1.62c-0.7,2.623-3.093,4.545-5.935,4.545H24.893
	c-3.406,0-6.165-2.759-6.165-6.165v-13.448c0-3.281,2.56-5.966,5.799-6.144c0.115-0.021,0.24-0.021,0.366-0.021h31.556
	C59.856,144.824,62.614,147.582,62.614,150.988z"/>
<path style="fill:#FFD15C;" d="M62.614,150.988v13.448c0,0.564-0.073,1.108-0.23,1.62c-0.115,0.021-0.24,0.021-0.355,0.021H30.463
	c-3.406,0-6.165-2.759-6.165-6.165v-13.448c0-0.564,0.073-1.108,0.23-1.62c0.115-0.021,0.24-0.021,0.366-0.021h31.556
	C59.856,144.824,62.614,147.582,62.614,150.988z"/>
<path style="fill:#FFDC8D;" d="M54.604,155.972H42.065c-2.116,0-3.832-1.716-3.832-3.832l0,0c0-2.116,1.716-3.832,3.832-3.832
	h12.539c2.116,0,3.832,1.716,3.832,3.832l0,0C58.435,154.257,56.72,155.972,54.604,155.972z"/>
<path style="fill:#494B5B;" d="M411.1,270.617h-23.64c-6.444,0-11.668-5.223-11.668-11.668v-28.213h46.976v28.213
	C422.768,265.394,417.544,270.617,411.1,270.617z"/>
<path style="fill:#E8DBC4;" d="M510.715,230.16c0.251,2.57,0.47,5.151,0.648,7.743H374.367c-1.348-2.529-2.633-5.11-3.835-7.743
	c-0.512-1.097-1.003-2.194-1.484-3.312c-1.651-3.856-3.156-7.795-4.462-11.818c-0.052-0.115-0.084-0.24-0.125-0.355
	c-0.021,0.01-0.042,0.01-0.073,0.021v-41.827c0-5.695,1.463-11.191,4.138-16.029c2.445-4.42,5.883-8.286,10.156-11.243l13.521-9.352
	l12.413-54.073c2.205-9.665,9.174-17.23,18.087-20.459c5.099,4.378,10.01,8.944,14.743,13.699
	c17.784,17.868,32.956,38.358,44.868,60.834c5.527,10.407,10.344,21.243,14.399,32.433c1.39,3.803,2.675,7.649,3.887,11.536
	c0.387,1.275,0.773,2.55,1.149,3.835c1.118,3.803,2.142,7.649,3.072,11.525c0.313,1.285,0.616,2.56,0.899,3.845
	c0.867,3.814,1.641,7.649,2.32,11.525c0.219,1.191,0.418,2.382,0.616,3.584v0.031c0.564,3.396,1.045,6.834,1.463,10.282
	C510.339,226.607,510.537,228.383,510.715,230.16z"/>
<path style="fill:#34ABE0;" d="M437.447,75.41c17.784,17.868,32.956,38.358,44.868,60.834h-66.497c-3.991,0-6.949-3.709-6.06-7.596
	l9.874-43.029c1.379-6.008,6.646-10.209,12.821-10.209C432.452,75.41,437.447,75.41,437.447,75.41z"/>
<path style="fill:#494B5B;" d="M512,256v0.554h-52.161c-14.367,0-26.018-6.802-26.018-15.193v-3.459h77.541
	C511.791,243.879,512,249.918,512,256z"/>
<path style="fill:#D6C8B0;" d="M369.052,226.847c-1.708-3.966-3.239-8.027-4.587-12.171c-0.024,0.006-0.047,0.006-0.071,0.018
	v-41.827c0-5.693,1.46-11.196,4.138-16.031c0,0-9.417,57.698,97.574,57.698C534.833,214.534,443.306,221.711,369.052,226.847z"/>
<path style="fill:#EDBB4C;" d="M421.299,182.905c0,4.474-1.442,8.625-3.884,11.988c-3.718,5.119-9.748,8.447-16.551,8.447
	c-11.284,0-20.429-9.15-20.429-20.435c0-6.803,3.328-12.833,8.441-16.551c3.363-2.441,7.508-3.884,11.988-3.884
	C412.149,162.471,421.299,171.621,421.299,182.905z"/>
<path style="fill:#FFD15C;" d="M421.299,182.905c0,4.474-1.442,8.625-3.884,11.988c-3.363,2.441-7.508,3.884-11.988,3.884
	c-11.29,0-20.435-9.145-20.435-20.429c0-4.48,1.442-8.625,3.884-11.993c3.363-2.441,7.508-3.884,11.988-3.884
	C412.149,162.471,421.299,171.621,421.299,182.905z"/>
<g>
	<circle style="fill:#FFDC8D;" cx="411.353" cy="179.543" r="4.951"/>
	<circle style="fill:#FFDC8D;" cx="405.585" cy="170.233" r="3.474"/>
</g>
<g>
	<path style="fill:#5C5E70;" d="M500.6,180.214h-60.656c-3.176,0-5.757-2.581-5.757-5.768c0-1.588,0.648-3.03,1.682-4.075
		c1.045-1.045,2.487-1.693,4.075-1.693h56.769C498.103,172.482,499.388,176.327,500.6,180.214z"/>
	<path style="fill:#5C5E70;" d="M504.822,195.573h-64.877c-3.176,0-5.757-2.57-5.757-5.757c0-1.599,0.648-3.041,1.682-4.075
		c1.045-1.045,2.487-1.693,4.075-1.693h61.805C502.868,187.852,503.892,191.697,504.822,195.573z"/>
	<path style="fill:#5C5E70;" d="M508.04,210.944h-68.096c-3.176,0-5.757-2.581-5.757-5.757c0-1.588,0.648-3.03,1.682-4.075
		c1.045-1.045,2.487-1.693,4.075-1.693h65.776C506.587,203.233,507.361,207.067,508.04,210.944z"/>
</g>
<path style="fill:#F9EED7;" d="M510.715,230.16c0.251,2.57,0.47,5.151,0.648,7.743h-143.37c-5.068,0-9.383-3.229-11.003-7.743
	c-0.439-1.233-0.69-2.56-0.69-3.939c0-3.229,1.306-6.144,3.427-8.265c1.337-1.348,2.999-2.361,4.859-2.926
	c1.076-0.324,2.226-0.502,3.406-0.502h140.663v0.031c0.564,3.396,1.045,6.834,1.463,10.282
	C510.339,226.607,510.537,228.383,510.715,230.16z"/>
<path style="fill:#E8DBC4;" d="M510.715,230.16c0.251,2.57,0.47,5.151,0.648,7.743h-143.37c-5.068,0-9.383-3.229-11.003-7.743
	H510.715z"/>
<g>
	<path style="fill:#FCF8F2;" d="M510.119,224.84h-1.034c-2.842,0-5.151-2.309-5.151-5.151c0-1.421,0.575-2.717,1.505-3.647
		c0.846-0.836,1.964-1.379,3.218-1.484C509.221,217.955,509.701,221.393,510.119,224.84z"/>
	<path style="fill:#FCF8F2;" d="M492.873,224.838h-23.006c-2.845,0-5.151-2.306-5.151-5.151l0,0c0-2.845,2.306-5.151,5.151-5.151
		h23.006c2.845,0,5.151,2.306,5.151,5.151l0,0C498.025,222.531,495.719,224.838,492.873,224.838z"/>
</g>
<path style="fill:#279FC9;" d="M479.109,136.243h-63.295c-3.99,0-6.945-3.706-6.053-7.595l9.871-43.027
	c1.377-6.011,6.644-10.214,12.816-10.214C432.447,75.406,421.772,128.623,479.109,136.243z"/>
<path style="fill:#494B5B;" d="M235.49,468.049v43.133c-23.312-1.839-45.745-6.813-66.873-14.493v-28.64H235.49z"/>
<path style="fill:#4BC999;" d="M502.857,324.043c-1.891,6.896-4.075,13.678-6.52,20.323c-2.1,5.705-4.399,11.327-6.886,16.833
	c-1.661,3.688-3.417,7.335-5.245,10.93v0.01c-4.232,8.286-8.892,16.311-13.97,24.043c-1.985,3.03-4.033,6.019-6.144,8.955
	c-5.831,8.129-12.142,15.914-18.871,23.291c-3.584,3.929-7.293,7.753-11.118,11.452c-1.787,1.735-3.594,3.438-5.423,5.099
	c-5.622,5.151-11.473,10.041-17.533,14.67c-3.427,2.612-6.928,5.141-10.491,7.575c-5.684,3.908-11.525,7.586-17.533,11.024H166.59
	c-1.923-3.615-3.751-7.283-5.475-11.024c-0.711-1.557-1.411-3.135-2.09-4.712c-0.47-1.087-0.93-2.173-1.369-3.271
	c-0.021-0.042-0.042-0.094-0.052-0.136c-0.418-1.003-0.815-1.996-1.212-3.009c-0.042-0.094-0.073-0.199-0.115-0.303
	c-0.408-1.034-0.794-2.079-1.181-3.124c-0.115-0.303-0.23-0.596-0.334-0.899c-0.334-0.93-0.669-1.86-0.993-2.8
	c-0.387-1.087-0.752-2.173-1.108-3.271c-0.052-0.167-0.115-0.345-0.167-0.512c-0.042,0.01-0.073,0.01-0.105,0.021v-59.538
	c0-8.108,2.079-15.945,5.893-22.82c3.469-6.29,8.37-11.797,14.44-15.997l19.257-13.322l17.659-76.977
	c4.242-18.474,20.668-31.566,39.622-31.566H447.76c18.944,0,35.38,13.092,39.622,31.566L502.857,324.043z"/>
<path style="fill:#34ABE0;" d="M471.444,333.529H225.59c-5.68,0-9.888-5.276-8.616-10.813l14.053-61.251
	c1.96-8.558,9.458-14.541,18.243-14.541h198.487c8.785,0,16.283,5.983,18.251,14.541l14.044,61.251
	C481.323,328.253,477.124,333.529,471.444,333.529z"/>
<path style="fill:#494B5B;" d="M383.123,478.247c-20.574,11.797-42.945,20.814-66.601,26.551h-28.254
	c-20.459,0-37.041-9.686-37.041-21.64v-4.911H383.123z"/>
<path style="fill:#41B787;" d="M159.021,462.51c-2.431-5.647-4.611-11.427-6.53-17.325c-0.033,0.008-0.067,0.008-0.101,0.025
	v-59.543c0-8.103,2.078-15.938,5.89-22.82c0,0-13.405,82.137,138.903,82.137C395.021,444.982,264.727,455.198,159.021,462.51z"/>
<g>
	<path style="fill:#EDBB4C;" d="M483.798,372.265c0.136-0.052,0.272-0.094,0.408-0.136v0.01c-4.232,8.286-8.892,16.311-13.97,24.043
		c-1.985,3.03-4.033,6.019-6.144,8.955c-0.313-1.682-0.47-3.417-0.47-5.183c0-9.676,4.723-18.254,11.995-23.541
		c0.261-0.199,0.543-0.387,0.815-0.575c0.815-0.554,1.661-1.055,2.529-1.526c0.376-0.199,0.752-0.397,1.139-0.575
		c0.345-0.167,0.69-0.334,1.045-0.481c0.596-0.261,1.202-0.502,1.829-0.711C483.245,372.442,483.516,372.349,483.798,372.265z"/>
	<path style="fill:#EDBB4C;" d="M233.4,399.955c0,6.37-2.053,12.277-5.529,17.065c-5.292,7.287-13.876,12.025-23.561,12.025
		c-16.064,0-29.081-13.026-29.081-29.09c0-9.685,4.738-18.269,12.016-23.561c4.788-3.475,10.687-5.529,17.065-5.529
		C220.373,370.865,233.4,383.892,233.4,399.955z"/>
</g>
<path style="fill:#FFD15C;" d="M233.4,399.955c0,6.37-2.053,12.277-5.529,17.065c-4.788,3.475-10.687,5.529-17.065,5.529
	c-16.073,0-29.09-13.017-29.09-29.081c0-6.378,2.053-12.277,5.529-17.074c4.788-3.475,10.687-5.529,17.065-5.529
	C220.373,370.865,233.4,383.892,233.4,399.955z"/>
<g>
	<circle style="fill:#FFDC8D;" cx="219.239" cy="395.167" r="7.048"/>
	<circle style="fill:#FFDC8D;" cx="211.037" cy="381.918" r="4.945"/>
</g>
<path style="fill:#FFD15C;" d="M483.798,372.265c0.136-0.052,0.272-0.094,0.408-0.125c-4.232,8.286-8.892,16.311-13.97,24.043
	c-0.084-0.899-0.125-1.797-0.125-2.717c0-6.363,2.048-12.257,5.507-17.053c0.01-0.01,0.021-0.01,0.021-0.021
	c0.261-0.188,0.533-0.376,0.794-0.554c0.815-0.554,1.661-1.055,2.529-1.526c0.376-0.199,0.752-0.397,1.139-0.575
	c0.345-0.167,0.69-0.334,1.045-0.481c0.596-0.261,1.202-0.502,1.829-0.711C483.245,372.442,483.516,372.349,483.798,372.265z"/>
<g>
	<path style="fill:#5C5E70;" d="M439.487,396.118H257.54c-3.202,0-5.796-2.596-5.796-5.796v-4.817c0-3.202,2.596-5.796,5.796-5.796
		h181.947c3.202,0,5.796,2.596,5.796,5.796v4.817C445.283,393.523,442.687,396.118,439.487,396.118z"/>
	<path style="fill:#5C5E70;" d="M439.487,417.996H257.54c-3.202,0-5.796-2.596-5.796-5.796v-4.817c0-3.202,2.596-5.796,5.796-5.796
		h181.947c3.202,0,5.796,2.596,5.796,5.796v4.817C445.283,415.401,442.687,417.996,439.487,417.996z"/>
	<path style="fill:#5C5E70;" d="M445.221,428.428c-3.584,3.929-7.293,7.753-11.118,11.452H257.538c-3.197,0-5.799-2.602-5.799-5.799
		v-4.817c0-3.197,2.602-5.799,5.799-5.799h181.947C442.41,423.465,444.824,425.628,445.221,428.428z"/>
</g>
<path style="fill:#F9EED7;" d="M428.68,444.979c-5.622,5.151-11.473,10.041-17.533,14.67c-3.427,2.612-6.928,5.141-10.491,7.575
	c-5.684,3.908-11.525,7.586-17.533,11.024H157.51c-7.21,0-13.354-4.598-15.652-11.024c-0.637-1.755-0.982-3.647-0.982-5.611
	c0-4.587,1.86-8.746,4.869-11.766c1.902-1.902,4.274-3.354,6.917-4.148c1.536-0.47,3.166-0.721,4.848-0.721H428.68z"/>
<path style="fill:#78CAEF;" d="M460.623,292.824c1.928,6.158-5.194,11.153-10.328,7.244l-18.998-14.468l-19.931-15.178
	c-5.042-3.839-2.326-11.886,4.01-11.886h29.646c2.894,0,5.452,1.88,6.317,4.641L460.623,292.824z"/>
<path style="fill:#5BD3A2;" d="M496.337,344.366c-2.1,5.705-4.399,11.327-6.886,16.833H384.753c-3.281,0-5.945-2.664-5.945-5.945
	v-4.942c0-3.281,2.664-5.945,5.945-5.945H496.337z"/>
<path style="fill:#E8DBC4;" d="M400.656,467.224c-5.684,3.908-11.525,7.586-17.533,11.024H157.51
	c-7.21,0-13.354-4.598-15.652-11.024H400.656z"/>
<g>
	<path style="fill:#FCF8F2;" d="M428.68,444.979c-5.622,5.151-11.473,10.041-17.533,14.67h-54.93c-2.863,0-5.183-2.32-5.183-5.183
		v-4.305c0-2.863,2.32-5.183,5.183-5.183L428.68,444.979L428.68,444.979z"/>
	<path style="fill:#FCF8F2;" d="M337.441,459.649h-37.057c-2.861,0-5.181-2.32-5.181-5.181v-4.305c0-2.861,2.32-5.181,5.181-5.181
		h37.057c2.861,0,5.181,2.32,5.181,5.181v4.305C342.622,457.33,340.303,459.649,337.441,459.649z"/>
</g>
<path style="fill:#279FC9;" d="M315.695,333.529H225.59c-5.68,0-9.888-5.276-8.616-10.813l14.053-61.251
	c1.96-8.558,9.458-14.541,18.243-14.541C249.269,246.924,234.072,322.683,315.695,333.529z"/>
<path style="fill:#FCF8F2;" d="M330.189,10.92v87.583h-27.167V4.306C312.259,6.031,321.328,8.235,330.189,10.92z"/>
<g>
</g>
<g>
</g>
<g>
</g>
<g>
</g>
<g>
</g>
<g>
</g>
<g>
</g>
<g>
</g>
<g>
</g>
<g>
</g>
<g>
</g>
<g>
</g>
<g>
</g>
<g>
</g>
<g>
</g>
</svg>
